<?xml version="1.0" standalone="no"?>
<!DOCTYPE svg PUBLIC "-//W3C//DTD SVG 1.1//EN" "http://www.w3.org/Graphics/SVG/1.1/DTD/svg11.dtd" >
<svg xmlns="http://www.w3.org/2000/svg" xmlns:xlink="http://www.w3.org/1999/xlink" version="1.1">
<metadata>
Created by FontForge 20170731 at Sat Mar 16 18:04:11 1929
 By Aleksey,,,
Copyright (c) by ParaGraph Intl. 1994
</metadata>
<defs>
<font id="TagirCTT" horiz-adv-x="425" >
  <font-face 
    font-family="TagirCTT"
    font-weight="400"
    font-stretch="normal"
    units-per-em="1000"
    panose-1="0 0 0 0 0 0 0 0 0 0"
    ascent="800"
    descent="-200"
    x-height="498"
    cap-height="660"
    bbox="-185 -449 1065 938"
    underline-thickness="20"
    underline-position="-163"
    unicode-range="U+0020-2122"
  />
<missing-glyph horiz-adv-x="800" 
d="M50 0v800h700v-800h-700zM700 50v700h-600v-700h600z" />
    <glyph glyph-name=".notdef" horiz-adv-x="800" 
d="M50 0v800h700v-800h-700zM700 50v700h-600v-700h600z" />
    <glyph glyph-name=".null" horiz-adv-x="0" 
 />
    <glyph glyph-name="nonmarkingreturn" horiz-adv-x="419" 
 />
    <glyph glyph-name="space" unicode=" " horiz-adv-x="419" 
 />
    <glyph glyph-name="exclam" unicode="!" horiz-adv-x="413" 
d="M381 760q0 -19 -21.5 -100t-42.5 -162q-26 -102 -30.5 -138t-25 -62.5t-46.5 -26.5q-33 0 -46 31q-9 21 -9 61q0 32 28 144q33 133 70 218q49 113 92 113q15 0 23 -12.5t8 -46.5v-19zM269 104q-4 -39 -37.5 -65.5t-73.5 -26.5q-16 0 -29 12t-13 30q0 31 19.5 65t44.5 34
q8 1 13 1q32 0 55.5 -12.5t20.5 -37.5z" />
    <glyph glyph-name="quotedbl" unicode="&#x22;" horiz-adv-x="431" 
d="M330 796q0 -16 -15 -50q-21 -46 -41 -91q-2 -8 -2 -13q0 -14 5 -33q13 -50 13 -71q0 -17 -24 -49q-27 -36 -48 -36q-27 0 -42 15q-22 23 -22 80q0 95 55 197q51 95 87 95q21 0 27.5 -11t6.5 -33zM498 796q0 -16 -15 -50q-21 -46 -41 -91q-2 -8 -2 -12q0 -3 13 -58
q6 -25 6 -47q0 -17 -24 -49q-27 -36 -49 -36q-27 0 -41 15q-22 23 -22 80q0 96 54 197q51 95 87 95q21 0 27.5 -11t6.5 -33z" />
    <glyph glyph-name="numbersign" unicode="#" horiz-adv-x="1013" 
d="M627 468l-185 -26l-22 -109q40 5 91 14t103 18q7 34 10 57t3 46zM993 312q0 -40 -23.5 -63.5t-56.5 -23.5q-26 0 -58 19q-17 10 -29 10l-103 -13q-2 -7 -25 -115q-14 -59 -21 -93q-17 -75 -19 -80q-16 -40 -53 -40q-18 0 -36.5 15t-18.5 36q0 27 21 150q7 41 21 118
q-52 -8 -91.5 -14.5t-121.5 -24.5q2 -2 2 -11q0 -24 -16.5 -74t-31.5 -80l-20 -70q-15 -33 -73 -33q-17 0 -38 18q-14 12 -14 22q0 15 25 108q13 49 19 57q-10 -4 -23 -6t-20 -2q-17 1 -28 1q-17 0 -24 20.5t-7 46.5q0 45 74 76q24 10 73 25q0 25 6.5 52.5t14.5 60.5
q-29 -9 -66 -16t-69 -7q-17 2 -27 9q-13 10 -13 24q0 54 80 88l130 46q27 78 53 141q52 123 95 123q19 0 32 -21q10 -16 10 -25q0 -47 -8 -87t-24 -89q40 0 95 10t82 14q20 55 40 111q14 24 45 24q54 0 54 -36q1 -5 1 -15q0 -30 -12 -59q98 -14 109 -17q73 -21 73 -72
q0 -39 -104 -57q-34 -6 -105 -10q-5 -10 -9.5 -45t-8.5 -52q27 6 40 8.5t41 2.5q66 0 108 -17q53 -22 53 -68z" />
    <glyph glyph-name="dollar" unicode="$" horiz-adv-x="621" 
d="M600 723q0 -27 -18.5 -41.5t-44.5 -14.5q-62 0 -161 -43q-107 -47 -107 -85q0 -32 56 -58q7 -3 128 -46q63 -23 99.5 -72t36.5 -113q0 -71 -75.5 -161t-141.5 -96q-6 -63 -14 -83q-18 -43 -67 -43q-31 0 -46.5 26.5t-15.5 61.5q0 13 3 24q-32 0 -53 8q-21 10 -39 17
q-48 16 -88 47q-51 40 -46 74q1 10 11 26.5t18 16.5q18 0 141 -47q60 -23 98 -23q85 0 135.5 41.5t50.5 99.5q0 55 -58 79q-5 2 -83 29q-91 31 -128 56q-65 43 -65 108q0 15 3 30q15 84 153 168q8 5 102 55q3 24 3 44q0 13 -0.5 24.5t-0.5 22.5v12q1 14 24 28t43 14
q24 2 33 -15.5t9 -49.5q0 -12 -1.5 -26t-2.5 -21q64 0 86.5 -16.5t22.5 -57.5z" />
    <glyph glyph-name="percent" unicode="%" horiz-adv-x="935" 
d="M913 302q0 -77 -85 -187q-98 -126 -206 -126q-58 0 -91 41q-29 36 -29 89q0 24 45 109q54 102 114 167q79 86 150 86q44 0 73 -49.5t29 -129.5zM749 811q0 -30 -52 -143q-39 -85 -118 -243q-96 -192 -129 -264.5t-62.5 -161.5t-36.5 -122.5t-10 -38.5q-14 -24 -50 -24
q-23 0 -39.5 21.5t-16.5 48.5q0 12 78 199q62 148 154 360q85 195 107 239q-6 -4 -37.5 -14t-41.5 -15q3 -11 6 -31t3 -32q0 -10 -1 -13q-10 -53 -120 -135q-115 -86 -190 -86q-52 0 -91.5 39.5t-39.5 92.5q0 29 45 105q51 86 111 145q75 73 137 73q31 0 46 -17t37 -17
q20 0 95 24q86 27 173 55q18 0 30.5 -12.5t12.5 -32.5zM790 278q0 29 -10 41t-42 12q-26 0 -76.5 -72t-50.5 -98q0 -24 4.5 -39t23.5 -13q63 5 107 53t44 116zM363 606q0 22 -17 38q-5 5 -30 26q-31 -20 -61 -39q-58 -50 -58 -112q0 -6 23 -15q4 -1 12 -4q59 0 98 38
q33 33 33 68z" />
    <glyph glyph-name="ampersand" unicode="&#x26;" horiz-adv-x="612" 
d="M597 104q-10 -19 -16 -28q-20 -28 -40 -28q-23 0 -75 31q-56 36 -72 45q-41 -80 -105 -127q-52 -38 -88 -38q-64 0 -113 50t-49 121q0 65 20 110q11 25 78 97q-25 36 -35 55q-22 43 -22 84q0 71 60 146q45 55 116 104q59 40 75 40q47 0 75 -17q44 -27 44 -98
q0 -43 -31.5 -112t-93.5 -158l62 -62q20 57 53.5 94.5t64.5 33.5q15 -2 23 -10t8 -30q3 1 7 2q-8 -8 -76 -142q46 -41 93 -82q37 -39 37 -81zM335 600q0 14 -7.5 31.5t-20.5 19.5q-28 3 -60 -46t-32 -96q0 -19 7.5 -34.5t23.5 -32.5q31 43 58 91q31 54 31 67zM317 190
q-20 17 -39 30q-57 38 -63 43q-36 -35 -36 -79q0 -28 14.5 -53.5t33.5 -25.5q26 0 44 16q3 2 46 69z" />
    <glyph glyph-name="quotesingle" unicode="'" horiz-adv-x="329" 
d="M330 796q0 -16 -15 -50q-21 -46 -41 -91q-2 -8 -2 -13q0 -14 5 -33q13 -50 13 -71q0 -17 -24 -49q-27 -36 -48 -36q-27 0 -42 15q-22 23 -22 80q0 95 55 197q51 95 87 95q21 0 27.5 -11t6.5 -33z" />
    <glyph glyph-name="parenleft" unicode="(" horiz-adv-x="521" 
d="M439 18q-5 -36 -57 -52q-38 -12 -92 -12q-30 0 -70 26q-56 36 -89 103q-44 88 -44 215q0 78 60 194q50 96 137 214q44 58 86 96q49 45 79 45q14 0 20.5 -6.5t6.5 -32.5q2 -22 -55 -87q-44 -51 -57 -68q-60 -81 -85 -131q-45 -89 -45 -175q0 -123 41.5 -189.5t119.5 -66.5
q19 0 32.5 -26.5t11.5 -46.5z" />
    <glyph glyph-name="parenright" unicode=")" horiz-adv-x="454" 
d="M397 446q0 -120 -97 -297q-101 -185 -181 -185q-32 0 -32 37q66 105 118 217q58 124 58 242q0 48 -13 94.5t-37 83.5q-11 16 -56 50q-35 26 -35 47q0 24 34 60t60 36q61 0 114 -86q67 -110 67 -299z" />
    <glyph glyph-name="asterisk" unicode="*" horiz-adv-x="691" 
d="M718 535q1 -5 1 -15q0 -22 -10 -36t-32 -14q-16 0 -33.5 5t-43.5 20q4 -23 8 -47t4 -45q0 -25 -7.5 -39.5t-25.5 -14.5q-15 0 -42 23q-32 27 -39 56q-10 -48 -31 -81q-26 -40 -58 -40q-17 0 -23.5 11t-6.5 32q0 14 4 41t4 35q-26 -34 -57 -66q-83 -87 -126 -87
q-18 0 -36 13.5t-18 29.5q0 10 43 57q32 35 103 106q-38 4 -76 9q-42 10 -42 47q0 47 73 75q24 9 73 19q-12 20 -52 58q-32 30 -32 47q0 18 41 63q24 26 38 26q27 0 71 -44q27 -27 59 -68q13 25 26 51q19 31 42 31q24 0 34 -21l16 -44q21 24 24 26q8 5 19 5q21 0 30 -11
t9 -25q0 -16 -17 -41t-43 -48q53 0 88.5 -26.5t40.5 -72.5z" />
    <glyph glyph-name="plus" unicode="+" horiz-adv-x="883" 
d="M881 411q0 -42 -21.5 -65.5t-62.5 -23.5q-6 0 -43 -2t-63 -2q-29 0 -70.5 -4.5t-76.5 -8.5q-12 -76 -15.5 -113.5t-3.5 -70.5q0 -70 -14 -91q-23 -35 -107 -35q-24 0 -34 21t-10 51t19 127q6 32 19 91q-62 -14 -97 -20q-109 -21 -149 -21q-11 0 -25 2t-32.5 13t-18.5 30
q0 72 200 117q73 16 156 26q8 85 30 138q34 82 98 82q18 0 25.5 -11.5t7.5 -33.5q0 -14 -10 -85q-5 -36 -5 -55q119 0 154 2t58 4q35 0 63 -15.5t28 -46.5z" />
    <glyph glyph-name="comma" unicode="," horiz-adv-x="431" 
d="M260 130q0 -100 -50 -222q-64 -157 -159 -157q-5 0 -11.5 13t-6.5 18q33 76 59 141t26 128q6 55 26 94q26 50 68 50q23 -2 32 -12q16 -18 16 -53z" />
    <glyph glyph-name="hyphen" unicode="-" horiz-adv-x="764" 
d="M682 288q0 -31 -25.5 -55.5t-59.5 -24.5q-6 2 -10 4q-34 15 -87 24l-347 -44q-28 0 -46.5 10.5t-18.5 31.5q0 42 113 77q87 27 215 43.5t181 16.5q54 0 69.5 -16.5t15.5 -66.5z" />
    <glyph glyph-name="period" unicode="." horiz-adv-x="397" 
d="M260 68q0 -20 -28.5 -41.5t-59.5 -21.5q-30 0 -67 45t-37 78q0 24 38 57t64 33q24 0 55 -46q35 -51 35 -104z" />
    <glyph glyph-name="slash" unicode="/" horiz-adv-x="469" 
d="M531 834q0 -2 -28 -52q-35 -62 -76 -153q-60 -133 -113.5 -284.5t-104.5 -297.5q-54 -141 -128 -141q-18 0 -29 16.5t-11 40.5q9 29 19 57q34 97 59 161q36 92 103 244q135 307 184 389q44 73 85 73q20 0 30 -15.5t10 -37.5z" />
    <glyph glyph-name="zero" unicode="0" horiz-adv-x="552" 
d="M604 483q0 -155 -136 -322.5t-269 -167.5q-78 0 -124 80q-40 69 -40 159q0 63 60 167q49 85 77 110q63 63 113 108q98 87 141 87q85 0 133 -65q45 -61 45 -156zM470 457q0 38 -22.5 68t-55.5 30q-16 0 -64 -36q-63 -47 -103 -109q-54 -84 -54 -178q0 -32 9 -59
q14 -41 42 -41q79 0 158 88q90 101 90 237z" />
    <glyph glyph-name="one" unicode="1" horiz-adv-x="357" 
d="M399 640q0 -25 -47.5 -130t-94.5 -208q-53 -124 -59.5 -173t-41 -82t-79.5 -33q-31 0 -40 12.5t-9 43.5q0 10 51 101q39 70 79 191q47 124 107 228q56 98 88 98q18 0 32 -17t14 -31z" />
    <glyph glyph-name="two" unicode="2" horiz-adv-x="516" 
d="M532 73q0 -22 -31 -50t-49 -28q-42 15 -68 22q-78 22 -131 22q-28 0 -68 -8q-100 -20 -118 -20q-26 0 -43.5 15.5t-17.5 39.5q0 4 44 62q16 21 98 130q77 102 98 133q31 43 49 76q34 61 31 91q0 21 -1 23q-4 9 -22 9q-9 0 -59.5 -37.5t-73.5 -37.5q-4 0 -18.5 12.5
t-14.5 15.5q0 48 89 109t154 61q40 0 63 -31q20 -27 20 -61q0 -55 -48 -148q-37 -71 -102 -168q-48 -70 -95 -140q17 4 42.5 6t45.5 2h33q76 0 134.5 -28.5t58.5 -71.5z" />
    <glyph glyph-name="three" unicode="3" horiz-adv-x="589" 
d="M571 333q0 -110 -109 -239t-198 -129q-68 0 -156 78t-88 135q0 19 30 54q34 39 61 39q22 0 62 -88t119 -88q51 0 99 62.5t48 116.5q0 64 -33 84q-24 15 -92 15q-16 0 -28 11t-12 29q0 13 15 33t36 34q34 24 69 49q35 28 35 54q0 15 -12 21.5t-34 6.5q-18 0 -58 -7t-55 -7
q-24 0 -42.5 13t-18.5 37q0 30 40 57q58 40 173 40q47 0 90 -25q50 -29 50 -72q0 -76 -29 -118q-10 -15 -54 -49q37 -18 60 -46q32 -40 32 -101z" />
    <glyph glyph-name="four" unicode="4" horiz-adv-x="578" 
d="M600 302q0 -40 -19.5 -58.5t-50.5 -18.5q-21 0 -35.5 1t-47.5 6q-8 -17 -15 -34q-21 -49 -27 -82q-2 -7 -2 -15v-12v-24q0 -16 -3 -23q-8 -20 -26.5 -32t-47.5 -12q-13 0 -31 19.5t-18 42.5q0 53 42 172q-47 -12 -119 -21.5t-113 -9.5q-17 0 -33.5 15.5t-16.5 33.5
q0 36 97 173q54 73 63 86q62 89 114 148.5t69 59.5q21 0 34.5 -9.5t13.5 -25.5q0 -7 -31 -55q-39 -59 -77 -117q-50 -79 -92 -152q22 0 72 7t72 7q23 69 49 131q39 94 67 141q39 65 67 65q19 0 28.5 -16t9.5 -40q0 -15 -59 -156q-34 -81 -46 -121q60 -7 79 -16
q33 -16 33 -58z" />
    <glyph glyph-name="five" unicode="5" horiz-adv-x="523" 
d="M563 670q0 -47 -42 -66q-31 -14 -91 -14q-25 0 -46 1t-40 2q-18 -24 -35 -48.5t-27 -48.5q27 7 55 10.5t67 3.5q55 0 87 -32q39 -39 39 -123q0 -106 -71 -195q-58 -73 -147 -119q-75 -39 -126 -39q-66 0 -121 52q-50 47 -50 85q0 17 32.5 52.5t48.5 35.5q15 0 46 -42.5
t88 -42.5q48 0 104 49q64 56 64 120q0 28 -11 49q-14 27 -43 27q-39 0 -91 -15q-51 -18 -101 -35q-15 0 -31 17t-16 33q0 19 30 73q12 22 33 56q27 42 48 74q16 24 46 66q23 34 75 45q32 7 101 7q52 0 88.5 -7.5t36.5 -30.5z" />
    <glyph glyph-name="six" unicode="6" horiz-adv-x="498" 
d="M495 326q0 -106 -126 -214q-114 -98 -190 -98q-33 0 -82 33q-63 42 -63 97q0 92 65.5 227t153.5 232q96 106 168 106q13 0 34 -28.5t21 -58.5q0 -36 -78 -64q-53 -19 -87 -48q-57 -50 -101.5 -139t-44.5 -144q0 -40 19 -55q14 -11 43 -11q52 0 94 38t42 78q0 19 -13.5 26
t-37.5 7q-9 0 -17.5 -0.5t-17.5 -0.5q-25 0 -37.5 5t-12.5 25q0 25 45 71t75 46q41 0 91 -37q57 -42 57 -93z" />
    <glyph glyph-name="seven" unicode="7" horiz-adv-x="538" 
d="M614 456q0 -41 -19 -56q-14 -11 -45 -11q-21 1 -31 1q-35 0 -62 -1t-52 -4q-14 -45 -41 -118.5t-52 -143.5q-14 -40 -28 -79q-25 -59 -75 -59q-23 0 -40 14t-17 34q0 22 25 82q88 213 104 261q-59 -15 -105 -23t-79 -8q-10 0 -20 17.5t-10 34.5q0 76 104 95q74 6 148 13
q8 24 14 59t7 47q-30 -7 -49 -10q-60 -10 -111 -10q-44 0 -68 8q-36 12 -36 43q0 51 54 68q32 10 105 10q25 0 95 7t102 7q29 0 40.5 -13.5t11.5 -39.5q0 -27 -10 -70.5t-19 -84.5l88 -3q43 0 57 -17t14 -50z" />
    <glyph glyph-name="eight" unicode="8" horiz-adv-x="584" 
d="M660 604q0 -86 -89 -173q-60 -59 -136 -98q19 -15 35 -35q20 -25 20 -43q0 -90 -79 -163q-70 -64 -130 -64q-75 0 -147 39q-80 43 -80 100q0 69 95 141q37 28 86 55q-8 14 -24 38.5t-16 37.5q0 38 40 97q47 69 114 113q83 54 177 54q39 0 82 -25q52 -30 52 -74zM526 548
q3 19 -12.5 24.5t-51.5 5.5q-53 0 -100 -31q-39 -26 -39 -40q0 -11 26 -49q5 -7 24 -33q51 25 91 53q57 40 62 70zM359 187q0 24 -20 51.5t-30 42.5q-32 -9 -72 -38t-42 -45q0 -35 21.5 -44.5t71.5 -9.5q24 0 47.5 13t23.5 30z" />
    <glyph glyph-name="nine" unicode="9" horiz-adv-x="482" 
d="M551 604q0 -40 -11.5 -71t-55.5 -119q-32 -65 -79 -188q-35 -92 -61 -170q-10 -29 -34 -51t-42 -19q-20 3 -39 17q-22 17 -22 37q0 46 28 93q6 10 31 59q22 43 37 68q-40 -29 -70 -43q-43 -20 -89 -20q-42 0 -75 20q-43 26 -43 72q0 113 131.5 248.5t236.5 135.5
q16 0 27.5 -15t23.5 -29q11 15 30 24.5t34 9.5q23 0 32.5 -15t9.5 -44zM380 522q-16 12 -31 17.5t-28 5.5q-47 0 -106 -70t-59 -119q0 -12 8 -19t26 -7q40 0 75 37q19 20 38 41q24 23 53 71q9 15 24 43z" />
    <glyph glyph-name="colon" unicode=":" 
d="M337 409q0 -36 -20.5 -58.5t-54.5 -25.5q-38 0 -62.5 29.5t-24.5 70.5q3 36 27 60t60 24q33 0 54 -31t21 -69zM274 112q0 -36 -33.5 -60t-68.5 -24q-38 0 -59 25t-21 62t28.5 61.5t67.5 24.5q36 0 61 -26t25 -63z" />
    <glyph glyph-name="semicolon" unicode=";" horiz-adv-x="357" 
d="M271 370q0 -30 -20.5 -54.5t-46.5 -24.5q-39 0 -68.5 15t-33.5 47q-5 35 22.5 61.5t65.5 26.5q33 0 57 -20t24 -51zM221 60q0 -46 -11 -88q-15 -57 -49 -98q-29 -36 -54 -58q-32 -27 -54 -27q-15 0 -23.5 14t-8.5 32q0 21 21 58q26 45 32 75q8 58 17 116q16 60 70 60
q24 0 42 -32t18 -52z" />
    <glyph glyph-name="less" unicode="&#x3c;" horiz-adv-x="524" 
d="M456 35q-31 0 -100.5 44t-137.5 89l-134 80q-66 44 -66 80q-1 12 58 48t121 73q103 76 141.5 101.5t58.5 25.5q27 0 34 -5q14 -9 14 -42q0 -42 -97 -109l-148 -94q53 -36 106 -71q89 -60 131 -93q64 -50 64 -68q0 -29 -8 -42q-11 -17 -37 -17z" />
    <glyph glyph-name="equal" unicode="=" horiz-adv-x="634" 
d="M536 349q0 -29 -36.5 -61t-78.5 -32q-21 0 -33 13t-26 15q-12 2 -51 -6q-100 -20 -129 -20q-30 0 -46.5 9t-16.5 31q0 36 111 65q76 18 115 28t74.5 16t61.5 6q29 0 42 -18.5t13 -45.5zM548 175q0 -30 -32 -70q-36 -45 -77 -45q-9 0 -30 17t-38 17q-60 -12 -91 -17
q-93 -17 -105 -17q-35 0 -48.5 9t-13.5 35q0 15 23 34t48 27l167 28q46 8 93 17q23 4 40 4q27 0 45.5 -9t18.5 -30z" />
    <glyph glyph-name="greater" unicode="&#x3e;" horiz-adv-x="469" 
d="M488 312q0 -48 -63 -77q-102 -47 -130 -70q-24 -20 -81 -73q-91 -85 -116 -85q-21 0 -43 18q-27 22 -27 52q0 23 105.5 113t178.5 126q-74 60 -137 119q-85 80 -85 106q0 60 47 60q36 3 90 -45t106 -96q7 -6 75 -51q80 -53 80 -97z" />
    <glyph glyph-name="question" unicode="?" horiz-adv-x="464" 
d="M555 706q0 -80 -72 -144q-88 -62 -118.5 -85.5t-46.5 -61.5t-16 -96q0 -46 -15.5 -66.5t-58.5 -20.5q-33 0 -45 31q-8 21 -8 60q0 60 40 120q29 44 90 101q46 34 93 68q20 22 20 65q0 31 -22.5 49t-48.5 18q-42 0 -75 -44t-54 -44q-23 0 -33 21.5t-10 52.5q0 60 63 91.5
t155 31.5q75 0 120 -44q42 -41 42 -103zM242 81q0 -38 -17 -52.5t-57 -14.5q-32 3 -40.5 18.5t-8.5 52.5q0 32 21.5 59.5t52.5 27.5q24 0 36.5 -29.5t12.5 -61.5z" />
    <glyph glyph-name="A" unicode="A" horiz-adv-x="601" 
d="M659 424q0 -50 -48 -71q-59 -15 -79 -22l-3 -101q16 -15 29 -32.5t13 -37.5q0 -39 -34 -100q-45 -81 -109 -81q-38 0 -50 30q-7 17 -7 54q0 2 17 125q9 65 9 120q-66 -26 -80 -32q-24 -10 -48 -24q-5 -7 -39 -53q-44 -59 -60 -89q-38 -70 -46 -80q-26 -34 -60 -34l-24 18
q-24 21 -24 35q21 45 40 83q53 102 152 268q128 212 180 275q38 46 71 46q43 0 57 -33q10 -23 10 -75v-36q0 -18 4 -45t4 -42q0 -21 -3 -33q27 6 56 6q34 0 54 -9t18 -30zM330 407q10 4 29.5 7.5t39.5 7.5q-2 11 -3 42.5t-6 49.5q-9 -14 -30 -51t-30 -56z" />
    <glyph glyph-name="B" unicode="B" horiz-adv-x="606" 
d="M594 603q0 -71 -36 -128q-45 -56 -60 -76q38 -17 53 -34q27 -31 27 -91q0 -135 -108 -225q-103 -86 -248 -86q-82 0 -148 34.5t-66 82.5q0 14 16.5 28.5t32.5 14.5q-5 9 -5 24q0 30 24 84l42 90q26 60 50 121q19 49 39 99q-28 10 -56 21q-20 10 -20 27q0 37 48 71
q60 43 159 43q101 0 146 -9q110 -22 110 -91zM449 543q2 11 -12 17t-36 6q-17 0 -28.5 -2t-36.5 -7q-27 -65 -54 -129q100 26 105 28q52 24 62 87zM452 197q1 6 1 13v10q0 44 -28 67q-23 19 -74 27q-35 4 -91 4h-15q-15 -93 -44 -154q-11 -25 -13 -28q-9 -12 -32 -24
q26 -14 49.5 -18.5t71.5 -4.5q81 0 130 38q39 31 45 70z" />
    <glyph glyph-name="C" unicode="C" horiz-adv-x="507" 
d="M528 634q0 -28 -21 -59q-25 -37 -58 -37q-5 0 -24 12t-39 12q-84 0 -146 -95q-80 -123 -80 -221q3 -20 5 -29q9 -30 23 -30q27 0 141 48t126 48q27 0 33.5 -8.5t6.5 -31.5q0 -60 -92 -118q-70 -44 -178 -80q-88 -29 -115 -29q-41 0 -68 48.5t-27 119.5t46 186
q53 134 132 218q99 106 212 106q25 0 74 -21t49 -39z" />
    <glyph glyph-name="D" unicode="D" horiz-adv-x="571" 
d="M222 16q-70 0 -108 33t-38 93q0 28 46 145q57 136 114 273q-11 -5 -46 -17q-27 -9 -48.5 -21t-70.5 -54q-21 -18 -24 -18q-25 0 -40 17t-15 38q0 46 100 111q109 70 208 70q18 0 36 -3q109 -15 190 -86.5t81 -158.5q0 -64 -56 -164q-60 -107 -141 -176q-96 -82 -188 -82z
M493 408q0 77 -62 120q-20 14 -62 28q-11 -33 -89 -231q-32 -82 -41 -116q-3 -13 -5 -22.5t-2 -16.5q0 -17 14 -17q76 0 161.5 92.5t85.5 162.5z" />
    <glyph glyph-name="E" unicode="E" horiz-adv-x="542" 
d="M629 625q0 -73 -106 -97q-125 -10 -249 -20q0 -33 -14 -71q-4 -11 -19 -46q9 0 73 8t97 8q34 0 48 -6t14 -27q0 -75 -89 -98q-50 -13 -170 -13q-8 -20 -15 -43t-13 -43q28 7 69 13.5t84 6.5q77 0 97 -4q51 -10 51 -48q0 -50 -29 -72q-20 -15 -53 -15q-11 0 -17 1t-10 2
q-58 0 -140 -17l-150 -38q-23 0 -41 17t-18 34q0 13 32 137q27 105 55 210q15 60 39 99q30 48 66 48q20 47 40 61q54 37 196 37h60q59 0 85.5 -4t26.5 -20z" />
    <glyph glyph-name="F" unicode="F" horiz-adv-x="567" 
d="M691 590q0 -45 -20 -68q-24 -27 -74 -27q-28 0 -67 21.5t-75 21.5q-44 0 -87 -18q-55 -23 -80 -67q-6 -11 -14 -40q-4 -14 -7 -20q13 1 82 10q39 5 92 5h28q52 0 71 -7q31 -12 31 -46q0 -51 -25 -69q-19 -14 -63 -14q-8 0 -28 1t-31 1h-199q-23 -99 -46 -197
q0 -39 -21 -56t-60 -17q-35 0 -52.5 24t-17.5 56t21 87q62 165 72 205q34 146 75 205q35 51 82 51q6 0 19 -9q21 -15 24 -16q26 27 58 40q52 21 144 21q67 0 117.5 -20.5t50.5 -57.5z" />
    <glyph glyph-name="G" unicode="G" horiz-adv-x="507" 
d="M463 292q0 -17 -21.5 -96t-43 -156.5t-21.5 -88.5q0 -9 18.5 -19.5t18.5 -29.5q0 -35 -39 -55q-30 -15 -61 -15q-23 0 -40 20.5t-17 37.5q0 58 13.5 107t26.5 94q-59 -39 -63 -41q-40 -22 -73 -22q-70 0 -104 33q-29 29 -29 78q0 59 46 178q53 137 126 226
q91 111 187 111q41 0 72 -15.5t31 -38.5q0 -34 -25 -55t-57 -21q-59 0 -97 -21q-32 -17 -47 -48q-56 -107 -78 -158q-30 -70 -25 -99q7 -23 14 -23q48 0 100 35t62 73q7 28 12 37q14 26 49 26q65 0 65 -54z" />
    <glyph glyph-name="H" unicode="H" horiz-adv-x="577" 
d="M640 603q0 -44 -38 -147q-11 -30 -72 -182q-40 -100 -40 -120q0 -8 10 -25t10 -30q0 -38 -26 -62q-33 -30 -99 -30q-26 0 -44 16t-18 39q0 27 54 147q34 75 48 116q-58 -12 -118 -31q-36 -11 -86 -30q-16 -40 -23 -56q-12 -28 -20 -37q17 -26 19 -32q7 -16 7 -37
q0 -29 -29 -65q-37 -46 -91 -46q-27 0 -48.5 18.5t-21.5 43.5q0 19 41 112q31 70 44 104q1 10 -9 26.5t-10 26.5q0 21 20 42q17 17 30 40q23 106 59 183q41 88 75 88q14 0 30.5 -17.5t16.5 -32.5q-8 -30 -13 -48q-36 -127 -43 -156q64 14 127.5 28t98.5 26q15 77 28 122
q26 85 99 85q20 0 27 -12.5t7 -33.5q0 -7 -1 -19t-1 -14z" />
    <glyph glyph-name="I" unicode="I" horiz-adv-x="335" 
d="M307 592q0 -53 -20 -128q-38 -144 -39 -147q-21 -100 -21 -199q0 -39 -28 -60q-26 -17 -41.5 -26.5t-34.5 -9.5q-23 0 -40 12.5t-17 36.5q12 63 19 102q23 117 45.5 204.5t44.5 173.5q36 109 85 109q25 0 36 -21t11 -47z" />
    <glyph glyph-name="J" unicode="J" horiz-adv-x="581" 
d="M701 589q0 -39 -23 -66t-56 -27q-21 0 -36 4q-38 10 -48 10q-19 -31 -32 -62q-16 -39 -29 -98q-21 -101 -40 -165q-26 -88 -52 -134q-31 -55 -66 -55q-15 0 -94 23q-107 31 -172 70q-93 55 -93 119q0 17 27 45q34 35 80 35q29 0 41 -8.5t12 -20.5q0 -10 -5 -21
q-1 -3 -6 -9q0 -17 61 -42q51 -21 122 -35q23 45 41.5 119.5t38 141t29.5 85.5q-26 -5 -48.5 -8t-44.5 -3q-44 0 -66 9q-30 12 -30 42q0 48 56.5 70.5t149.5 22.5q25 0 119 10q31 3 89 10q23 0 49 -19.5t26 -42.5z" />
    <glyph glyph-name="K" unicode="K" horiz-adv-x="648" 
d="M720 543q0 -42 -43 -60q-36 -13 -59.5 -21.5t-92.5 -41.5q-45 -22 -100 -49q42 -65 71 -107q55 -80 85 -94q23 -10 30 -26.5t7 -45.5q0 -34 -28.5 -56.5t-67.5 -22.5q-7 1 -11 1q-41 4 -123 130q-7 11 -99 166q-17 -11 -26 -16t-34 -15q-18 -33 -27 -50q-15 -29 -27 -56
q-6 -15 -6 -32q0 -10 1 -23.5t3 -29.5q0 -9 -1 -13q-6 -32 -36 -50.5t-65 -18.5q-27 -3 -46.5 18.5t-19.5 51.5q0 15 22 72q72 187 85 227q49 159 95 226q34 49 62 45q17 -3 30 -17t15 -31q0 -27 -17 -81t-33 -103q110 67 244 131q115 55 148 55q64 0 64 -63z" />
    <glyph glyph-name="L" unicode="L" horiz-adv-x="532" 
d="M544 124q0 -56 -35 -76q-26 -15 -84 -15q-42 0 -184 -21t-156 -21q-19 -3 -48.5 9.5t-29.5 32.5q0 18 33 110q71 197 73 204q40 118 70 178q55 111 102 111q28 0 36.5 -5.5t8.5 -18.5q-1 -10 -1 -15q0 -18 -35 -115q-20 -56 -70.5 -188t-52.5 -138q58 0 128 9t142 19
q32 0 62 -13q41 -18 41 -47z" />
    <glyph glyph-name="M" unicode="M" horiz-adv-x="861" 
d="M846 84q0 -36 -32.5 -59.5t-81.5 -23.5q-29 0 -47 24.5t-18 65.5q-1 10 -1 21.5v17.5q0 36 4.5 97t4.5 73v20v14q0 9 -1 20.5t-4 23.5q-39 -57 -78 -113q-71 -100 -119 -152q-70 -76 -109 -76q-38 0 -53 36q-11 26 -11 81q0 29 5 77t5 59q-43 -65 -93 -140
q-38 -58 -93 -136q-18 -27 -36 -55q-22 -29 -49 -26q-22 3 -38 16.5t-16 31.5q0 34 10 54q2 3 24 35q63 82 94 130q40 60 102 172q94 165 138 220q39 49 71 49q28 0 39.5 -28.5t11.5 -82.5q0 -32 -13 -156q-6 -57 -6 -70q0 -12 12 -12q6 0 72 92q78 109 128 170
q76 93 103 93q40 0 56 -33q12 -25 12 -69q0 -54 -12 -123q-28 -161 -28 -202q0 -62 23.5 -80.5t23.5 -55.5z" />
    <glyph glyph-name="N" unicode="N" horiz-adv-x="718" 
d="M887 628q0 -40 -49.5 -81.5t-65.5 -57.5q-30 -31 -54 -66q-27 -40 -52 -93q-49 -106 -135 -205q-90 -104 -140 -104q-43 0 -60 32t-17 106q0 35 8 132t8 120q-25 -35 -57 -91q-41 -72 -62 -123q-8 -18 -16 -37t-8 -62q0 -27 -32 -48q-26 -17 -46 -17q-25 0 -49.5 17.5
t-24.5 38.5q0 20 34.5 97.5t45.5 101.5q38 88 88 176q45 79 92 147q15 21 41 31.5t57 10.5q50 0 69 -60q13 -41 13 -118q0 -11 -3.5 -56.5t-3.5 -67.5q0 -16 -2 -46t-2 -42v-12q2 -7 2 -10q42 60 68 98q30 45 42 68q33 65 59 108q32 53 60 82q42 47 74.5 65t63.5 18
q25 0 39.5 -14.5t14.5 -37.5z" />
    <glyph glyph-name="O" unicode="O" horiz-adv-x="545" 
d="M624 555q0 -171 -79 -311q-68 -121 -178 -194q-99 -66 -186 -66q-49 0 -83 42t-34 99q0 114 9 167q15 91 68 184q68 119 144 168q53 34 116 34q17 0 30.5 -1.5t30.5 -3.5q7 27 11 31q9 9 28 9q30 0 76.5 -60.5t46.5 -97.5zM491 473q0 33 -28.5 52.5t-81.5 19.5
q-97 0 -157 -156q-44 -114 -44 -192q0 -34 18 -57t45 -23q105 0 181 126q67 111 67 230z" />
    <glyph glyph-name="P" unicode="P" horiz-adv-x="461" 
d="M556 548q0 -75 -67 -150q-73 -81 -199 -131q-55 -25 -109 -49l-22 -144q-6 -30 -26.5 -46t-61.5 -16q-21 -2 -38.5 17.5t-17.5 46.5q11 35 25 83q18 63 28 105q17 70 50 167.5t68 195.5q6 16 73 47q77 36 132 36q48 0 102 -45q63 -52 63 -117zM415 515q0 33 -16 47
t-56 14q-44 0 -69 -35q-14 -20 -36 -80q-18 -47 -25.5 -72t-12.5 -50q27 10 52.5 21.5t48.5 26.5q47 32 75 60q39 39 39 68z" />
    <glyph glyph-name="Q" unicode="Q" horiz-adv-x="555" 
d="M593 509q0 -73 -6.5 -120t-26 -108t-70.5 -125q-44 -55 -73 -68q17 -63 25 -95q25 -97 25 -110q0 -27 -28 -63.5t-48 -32.5q-22 4 -57 97q-23 64 -45 127q-21 -10 -53.5 -17.5t-62.5 -7.5q-87 0 -118 50q-23 37 -23 124q0 151 90 291q70 108 180 193q93 71 131 71
q102 0 137 -66q23 -43 23 -140zM461 435v38q0 45 -8 64q-12 29 -46 29q-30 0 -68 -39l-64 -86q-18 -15 -33 -15q-14 2 -22 3q-32 -83 -51 -145q-22 -73 -22 -114q0 -12 9.5 -28t18.5 -18t21 -2q34 0 61 16v42q0 77 9 108q14 48 56 48q48 0 56 -29q4 -51 13 -95q30 27 50 89
t20 134z" />
    <glyph glyph-name="R" unicode="R" horiz-adv-x="587" 
d="M632 58q0 -31 -36 -57q-31 -22 -55 -22q-22 0 -49 13q-38 18 -78 57q-28 25 -63 71q-39 53 -60 81.5t-43 58.5q-25 34 -40 62q-15 -85 -29 -170q-10 -94 -34 -122t-70 -28q-18 0 -36.5 11t-18.5 29t35 175q29 132 34 153l49 215q10 44 33.5 70.5t46.5 26.5q19 0 31 -4.5
t25 -22.5q21 25 53 45q38 24 67 24q71 0 106 -45q29 -38 29 -102q0 -104 -45 -167q-22 -31 -93 -85q49 -69 66 -92q29 -39 84 -91q14 -13 38.5 -16t34.5 -15q18 -21 18 -53zM397 545q0 18 -11 29t-23 11q-79 0 -114 -88q-1 -1 -34 -141q74 32 128 87t54 102z" />
    <glyph glyph-name="S" unicode="S" horiz-adv-x="500" 
d="M535 569q0 -29 -12.5 -51t-31.5 -22q-11 0 -61 35q-24 17 -46 17q-37 0 -63 -14.5t-26 -46.5q0 -21 49 -91q90 -129 93 -133q50 -79 50 -118q0 -62 -32.5 -100t-73.5 -38q-36 0 -76 8q-53 11 -108 36q-68 31 -116 77t-48 80q0 31 14.5 59t32.5 28q34 0 44 -3
q22 -7 22 -32q3 -38 70 -86q62 -45 93 -45q49 0 49 37q0 14 -46 78q-68 95 -87 126q-47 79 -47 124q0 66 61 122t139 56q39 0 94 -30q63 -34 63 -73z" />
    <glyph glyph-name="T" unicode="T" horiz-adv-x="441" 
d="M608 632q0 -34 -31 -64t-60 -30q-12 0 -30 20t-38 20h-75q-33 -117 -56 -201.5t-37 -142.5q-5 -22 -6.5 -43t-1.5 -32v-23.5t1 -22.5q0 -17 -4 -44t-25 -47t-46 -20q-29 0 -54.5 25.5t-25.5 56.5q0 28 36 139q60 185 72 226l37 117q-28 -9 -97 -20.5t-101 -11.5
q-23 0 -41.5 12t-18.5 34q0 60 55 73q23 6 35 8q30 6 75 13q146 24 200 32q115 18 130 18q50 0 78.5 -22.5t28.5 -69.5z" />
    <glyph glyph-name="U" unicode="U" horiz-adv-x="670" 
d="M640 92q-3 -30 -31 -54t-49 -24q-47 0 -76 54.5t-37 146.5q0 14 1.5 38t1.5 30q-56 -54 -111 -107q-85 -80 -141 -123q-79 -60 -117 -60t-50 34q-6 17 -6 57q0 19 60 208q35 109 47 155q24 84 51 127q38 60 91 60q16 0 24.5 -8t6.5 -20q-2 -15 -26 -97.5t-48 -166.5
t-24 -94v-12q0 -24 12 -24q21 2 62 44t109 127q30 40 46 61q30 40 45 61q31 83 41 103q30 58 65 58q31 0 46 -18.5t15 -42.5q0 -7 -24 -103q-12 -48 -12 -74q0 -35 -3 -67q-8 -86 -8 -94q0 -22 5.5 -54t14.5 -62t19 -59z" />
    <glyph glyph-name="V" unicode="V" horiz-adv-x="517" 
d="M581 597q0 -37 -52 -142q-44 -90 -109 -196q-47 -76 -122 -150q-90 -89 -145 -89q-47 0 -67 54q-14 39 -14 102v26.5t1 23.5v263q0 5 -4 12q-9 16 -9 21q0 43 26.5 77.5t55.5 34.5q41 0 56 -74q10 -49 10 -149v-62q0 -53 5.5 -104.5t13.5 -51.5q35 0 81 74q39 63 84 169
q26 71 29 81q15 47 15 80q4 37 37 54q23 12 49 12q44 0 56 -33q4 -11 3 -33z" />
    <glyph glyph-name="W" unicode="W" horiz-adv-x="771" 
d="M892 661q0 -31 -31 -141q-39 -138 -88 -220q-67 -112 -137 -189q-83 -91 -136 -91q-47 0 -81 70.5t-34 162.5v72q-27 -35 -53 -70q-58 -73 -112 -130q-68 -71 -95 -71q-25 0 -42 23.5t-17 53.5v366q0 54 30.5 99.5t68.5 45.5q17 0 29.5 -24.5t12.5 -76.5q0 -28 -2 -48
q-7 -71 -7 -82q0 -75 2 -107.5t13 -32.5q6 0 57 72q66 92 101 134q61 73 88 73q39 0 53 -56q10 -41 10 -127q0 -93 3.5 -129.5t24.5 -36.5q31 0 83 81.5t77 176.5q46 169 51 181q31 82 77 82q28 0 41 -12t13 -49z" />
    <glyph glyph-name="X" unicode="X" horiz-adv-x="587" 
d="M578 641q0 -23 -58 -109q-48 -71 -96 -141q59 -73 95 -136q54 -93 54 -152q0 -42 -14 -61q-17 -23 -58 -23q-34 0 -51 36q-16 48 -24 69q-12 28 -40 67q-22 30 -54 69q-52 -87 -77 -129q-47 -80 -56 -101l-16 -56q-11 -23 -60 -23q-29 0 -44.5 23t-15.5 45q0 25 81 161
q76 128 118 180q-61 68 -97 110q-67 78 -67 96q0 22 23.5 54t52.5 32q14 -2 55 -46t110 -131q50 76 96 137q62 81 80 81q16 0 39.5 -20.5t23.5 -31.5z" />
    <glyph glyph-name="Y" unicode="Y" horiz-adv-x="457" 
d="M534 658q0 -11 -39 -88q-43 -83 -86 -165q-60 -115 -83 -167q-114 -259 -117 -265q-39 -81 -99 -81q-18 0 -32 13q-17 16 -17 39q0 9 38 98q22 51 74 169q24 55 49 110q-5 17 -13.5 29t-29 34t-103.5 92q-60 50 -60 69q0 32 29 71t50 39q35 0 82 -39q20 -17 139 -148
q29 65 71 142q57 105 76 108q21 4 46 -18.5t25 -41.5z" />
    <glyph glyph-name="Z" unicode="Z" horiz-adv-x="586" 
d="M610 99q0 -37 -28.5 -70.5t-62.5 -33.5q-28 0 -43 24t-24 24q-30 0 -221 -24q-95 -12 -146 -12q-24 0 -38 13t-14 36q0 34 78 139q33 44 155 193q92 113 112 148q-25 -7 -55 -10.5t-75 -3.5q-82 0 -130 11q-62 14 -62 46q0 31 44 59t92 28q23 0 57 -2.5t53 -2.5t110 13
q42 6 71 6q23 0 44 -13t21 -26q0 -55 -66 -160q-52 -83 -135 -185q-27 -33 -111 -131q42 0 155 10q56 5 89 5q37 0 78 -20q52 -25 52 -61z" />
    <glyph glyph-name="bracketleft" unicode="[" horiz-adv-x="386" 
d="M342 26q0 -29 -27 -46q-21 -13 -46 -13q-37 0 -97 1.5t-64 1.5q-17 0 -31 11q-19 15 -19 43q0 11 3 25q17 72 47 178q21 73 42 147q16 61 48 173q36 126 52 185q5 18 24 37t41 22.5t42 4.5t46 1q13 0 24.5 -0.5t21.5 -0.5q28 -3 41 -8q25 -10 25 -35q0 -50 -88 -55
q-39 -2 -78 -3q-19 -58 -60 -198q-13 -45 -34 -118q-10 -36 -32 -123q-45 -179 -48 -190q74 0 120.5 -7.5t46.5 -32.5z" />
    <glyph glyph-name="backslash" unicode="\" horiz-adv-x="359" 
d="M393 -14q0 -22 -13.5 -35.5t-42.5 -13.5q-15 0 -68 153t-105 305q-13 36 -103 236q-28 62 -28 80q0 15 6 29q10 23 30 23q25 0 61 -59q30 -49 68 -139q31 -74 64 -165q42 -116 81 -236q50 -152 50 -178z" />
    <glyph glyph-name="bracketright" unicode="]" horiz-adv-x="386" 
d="M166 732q0 29 25 41.5t50 12.5q37 0 95.5 1.5t63.5 1.5q18 0 31 -11q19 -16 19 -44q0 -11 -3 -25q-17 -72 -47 -178q-21 -74 -42 -147q-16 -61 -48 -173q-27 -93 -53 -185q-4 -18 -23.5 -37.5t-39.5 -21.5q-26 0 -61.5 -1t-74.5 -3q-26 0 -40 6q-25 10 -25 36q0 50 88 55
q39 1 78 3q20 61 60 198q12 40 34 118q14 53 43 169q35 141 36 145q-77 0 -110 5q-56 9 -56 34z" />
    <glyph glyph-name="asciicircum" unicode="^" horiz-adv-x="543" 
d="M604 730q0 -28 -22 -50t-53 -22t-62 32q-10 10 -48 63q-14 -13 -61 -66q-65 -74 -94 -74q-19 0 -32.5 18.5t-13.5 35.5q0 15 58 81q52 60 115 120t76 60q24 0 50 -39q25 -45 31 -56q16 -21 33 -42q23 -29 23 -61z" />
    <glyph glyph-name="underscore" unicode="_" horiz-adv-x="674" 
d="M580 -197q-11 0 -51 -2q-118 -6 -166.5 -7.5t-105.5 -1.5h-39q-84 0 -113 5q-47 8 -47 35q0 25 12.5 40.5t41.5 15.5q15 0 136.5 4.5t175.5 4.5q100 0 147 -6.5t47 -30.5q0 -57 -38 -57z" />
    <glyph glyph-name="grave" unicode="`" horiz-adv-x="386" 
d="M445 756q0 -25 -22.5 -53.5t-43.5 -28.5q-23 0 -115 66q-99 71 -99 105q0 14 31 51t47 39q19 0 110.5 -78.5t91.5 -100.5z" />
    <glyph glyph-name="a" unicode="a" horiz-adv-x="706" 
d="M742 190q0 -35 -29 -64q-62 -58 -175 -107q-93 -40 -119 -40q-28 0 -46 21.5t-18 47.5q0 30 0.5 62t7.5 69l-88 -77q-118 -98 -179 -98q-37 0 -65 26t-28 55q0 42 71 151t157 193q100 98 162 98q12 0 28 -15.5t25 -33.5q12 18 17 27q11 17 26 17q17 0 41.5 -14.5
t24.5 -34.5q0 -35 -18 -99t-36 -127q-8 -31 -13 -57.5t-5 -43.5q0 -18 7 -18q15 0 98.5 48.5t112.5 48.5q41 0 41 -35zM321 284q4 8 4 22q0 25 -15 25q-39 0 -82 -50q-31 -36 -86 -129q85 39 129 73q35 27 50 59z" />
    <glyph glyph-name="b" unicode="b" horiz-adv-x="531" 
d="M151 143q23 -12 50 -24.5t49 -12.5q63 0 107 51t44 123q0 29 -9 41t-37 12q-23 0 -54.5 -17.5t-61.5 -47.5q-16 -15 -43 -56q-23 -35 -45 -69zM67 110q-16 18 -16 34q15 50 31 101q44 140 68 212q43 126 69 184q15 51 26 76q34 76 74 76q20 0 36 -15t16 -34
q0 -6 -52 -143q-55 -144 -80 -199q47 40 94 58.5t95 18.5q39 0 68 -35q38 -46 38 -130q0 -61 -27 -130q-36 -91 -99 -143q-82 -67 -202 -67q-54 0 -113.5 31t-59.5 56q0 10 12 25q16 17 22 24z" />
    <glyph glyph-name="c" unicode="c" horiz-adv-x="431" 
d="M441 194q0 -42 -89 -110q-108 -83 -234 -83q-51 0 -74 33.5t-23 88.5q0 27 15 77q20 65 51 111q59 87 127 144q82 69 149 69q29 0 52 -15.5t23 -42.5q0 -38 -42 -46t-54 -11q-60 -16 -119.5 -95.5t-59.5 -148.5q0 -26 23 -26q30 0 88 30q63 33 127 67q22 0 31 -12.5
t9 -29.5z" />
    <glyph glyph-name="d" unicode="d" horiz-adv-x="571" 
d="M625 765q0 -11 -39 -154q-52 -190 -76 -286q-44 -175 -51.5 -241.5t-9.5 -74.5q-13 -42 -52 -42q-40 0 -56.5 15.5t-16.5 41.5q0 11 2 25t17 69q5 19 16 56q-57 -59 -117 -102q-82 -59 -132 -59q-41 0 -72 36q-26 30 -26 55q0 50 46 141q51 101 117 160q48 43 106 70
q41 20 152 51q38 112 58 162q48 119 71 119q29 0 46 -13.5t17 -28.5zM377 367q-43 -8 -75 -23t-54 -35q-28 -27 -62 -72.5t-34 -62.5t12 -17q20 0 46 20q11 8 40 36q25 23 59 62q46 53 68 92z" />
    <glyph glyph-name="e" unicode="e" horiz-adv-x="415" 
d="M408 494q0 -41 -15 -88q-19 -58 -56 -108q-30 -42 -79 -74q-60 -33 -119 -66q2 -9 3 -13q5 -13 14 -13q52 0 185 55q64 28 129 56q13 0 17 -8t7 -26q0 -43 -90 -95q-73 -43 -179 -79q-96 -33 -127 -33q-46 0 -77 55q-26 46 -26 96q0 136 112.5 275t218.5 139q82 0 82 -73
zM285 440q-16 0 -38 -16q-18 -13 -40.5 -35.5t-38.5 -52.5q-12 -22 -25 -56q34 17 62 38q23 17 38 34q26 27 36 41q15 21 15 40q-7 7 -9 7z" />
    <glyph glyph-name="f" unicode="f" horiz-adv-x="369" 
d="M402 384q-34 0 -86 -6q-19 -2 -90 -12q-5 -10 -11.5 -42.5t-26.5 -142.5q-8 -41 -36 -275q-9 -78 -17 -96q-15 -31 -25 -41q-22 -22 -60 -22q-30 0 -42 13t-12 50q0 70 37 258.5t68 284.5q-14 -6 -29 -6h-10q-7 2 -11 2q-22 0 -29.5 6t-7.5 29q0 32 47 61q35 22 86 37
q24 67 37 104q44 122 81 158t94 48q30 6 83 6q30 0 44.5 -10.5t14.5 -36.5q0 -43 -19.5 -67t-52.5 -36q-9 -3 -18 -3q-6 0 -24 3.5t-28 3.5q-17 0 -26 -7.5t-36 -71.5q-17 -40 -33 -79q7 0 57.5 3.5t68.5 3.5q65 0 88 -17q16 -12 16 -41q-6 -59 -92 -59z" />
    <glyph glyph-name="g" unicode="g" horiz-adv-x="548" 
d="M548 475q0 -76 -43 -251q-38 -152 -60 -206q-26 -61 -51 -123q-50 -108 -104 -169q-75 -85 -157 -85q-59 0 -126 63q-73 69 -73 143q0 14 36 44q21 17 37 20q11 2 47.5 -73.5t95.5 -75.5q45 0 81 51q27 39 56 122q24 73 48 147l28 89q-65 -84 -137 -126q-65 -38 -128 -38
q-42 0 -68 40q-19 29 -19 52q0 20 24.5 81.5t54.5 109.5q58 90 170 169q102 72 149 72q12 0 21.5 -15.5t11.5 -33.5q25 12 38 18q26 12 32 12q21 0 26 -5q10 -9 10 -32zM397 399q-58 0 -159 -102q-93 -94 -93 -119q0 -33 21 -33q58 0 138 103q61 78 93 151z" />
    <glyph glyph-name="h" unicode="h" horiz-adv-x="574" 
d="M551 129q0 -49 -30 -87t-78 -38q-21 0 -40 17q-22 20 -22 50q0 13 2 82t2 103l1 74q-13 -15 -74 -89q-39 -47 -63 -74q-84 -93 -132 -127q-34 -24 -61 -24q-22 0 -31.5 15t-12.5 37q16 56 33 112q29 98 72 245q47 159 71 238q33 106 43 121q24 35 61 35q30 0 41 -9
t11 -26q0 -37 -37 -158q-18 -58 -75 -226q-47 -137 -54 -164l44 47q62 83 125 167q87 107 132 107q29 0 37 -24.5t8 -73.5q0 -42 -7 -112t-7 -97q0 -17 20.5 -63t20.5 -58z" />
    <glyph glyph-name="i" unicode="i" horiz-adv-x="263" 
d="M326 679q0 -18 -27.5 -53t-44.5 -35q-13 0 -51 29q-44 33 -44 56q0 11 25 47q30 43 54 43q27 0 57.5 -28.5t30.5 -58.5zM236 441q0 -31 -33 -123q-11 -30 -33 -86q-1 -5 -1 -14q0 -17 8.5 -42.5t8.5 -33.5q0 -18 -15 -52q-39 -88 -101 -88q-31 0 -43 30q-8 20 -8 58
q0 27 26 123q30 109 67 189q46 99 86 99q19 0 28.5 -17t9.5 -43z" />
    <glyph glyph-name="j" unicode="j" horiz-adv-x="385" 
d="M337 442q0 -23 -40 -196q-24 -102 -31 -141q-19 -91 -37 -181q-25 -101 -56 -150q-39 -62 -99 -62q-33 0 -65 16.5t-77 51.5t-64 55q-28 28 -28 46q0 37 23 64t49 27q28 0 60 -50q25 -39 39 -53q9 -11 19 -23q8 -7 37 -7q26 0 48 89q8 33 29 156q12 77 26 161t30 141
q12 44 47 75q30 27 53 27q20 0 28.5 -9.5t8.5 -36.5zM363 655q0 -18 -27.5 -53t-45.5 -35q-12 0 -51 30q-44 34 -44 56q0 10 26 47q30 43 53 43q27 0 58 -29t31 -59z" />
    <glyph glyph-name="k" unicode="k" horiz-adv-x="589" 
d="M510 66q2 -19 -29.5 -50.5t-61.5 -31.5q-62 0 -129 64q-82 79 -82 195q48 29 84 54q40 28 40 59q1 15 1 20q0 15 -12 17q-30 6 -89 -88q-11 -18 -64 -108q-44 -90 -62 -125q-32 -60 -63 -60q-20 0 -34 13t-14 38q0 31 46 217q50 201 95 346q57 181 79 181q32 0 54.5 -8
t22.5 -20q0 -20 -25 -105.5t-49 -168.5l-57 -189q51 79 107 139q78 83 129 83q28 0 52 -16q30 -20 30 -55q0 -94 -44 -151t-121 -70q9 -36 36 -64q12 -12 92 -67q33 -19 46 -26q22 -13 22 -23z" />
    <glyph glyph-name="l" unicode="l" horiz-adv-x="317" 
d="M215 44q-72 -43 -100.5 -54t-77.5 -11q-16 0 -32 16t-16 34q0 26 28 139.5t60 219.5q61 206 81 266q54 160 76 160q20 0 45 -11t25 -24q2 -17 -66 -220q-42 -125 -55 -173q-21 -75 -31 -107q-24 -78 -47 -155q36 16 73 33q84 37 105 37q14 0 29.5 -21.5t15.5 -36.5
q-2 -17 -54 -54q-24 -17 -59 -38z" />
    <glyph glyph-name="m" unicode="m" horiz-adv-x="909" 
d="M817 -21q-44 0 -78 20t-51 55q-12 25 -16.5 63t-4.5 77v26q-56 -66 -112 -131q-92 -98 -142 -98q-32 0 -49 24q-12 17 -12 36q7 43 11 68q11 65 23 124q5 25 7 37q8 39 12 50q-7 -7 -75 -109q-73 -109 -123 -165q-77 -86 -127 -86q-31 0 -47.5 25t-16.5 53q10 46 15 74
q18 88 32 147q14 89 29 179q23 95 91 95q35 0 40 -34q2 -14 2 -48q0 -9 -31 -180q-4 -34 -7 -68q13 0 74 80q87 113 118 149q71 81 105 81q15 0 39.5 -22.5t24.5 -47.5q0 -32 -15 -122q-1 -7 -25 -139l84 108q80 102 122 149q67 75 89 75q23 0 37 -11.5t14 -37.5
q0 -11 -25 -86q-12 -36 -12 -61q-1 -21 -2 -36t-1 -40q0 -32 2.5 -58t9 -43.5t34 -39.5t27.5 -36q0 -23 -21 -57q-24 -39 -49 -39z" />
    <glyph glyph-name="n" unicode="n" horiz-adv-x="523" 
d="M491 429q0 -25 -8 -81q-18 -126 -18 -154q0 -15 2 -32t17.5 -48t13.5 -39q-2 -14 -34 -43.5t-55 -29.5q-25 0 -45 28.5t-26.5 59t-6.5 58.5q0 25 5 58t13 72q-31 -39 -61 -78q-53 -65 -94 -102q-61 -56 -88 -70.5t-55 -14.5q-18 0 -28 15.5t-10 35.5q0 56 20 149t42 157
q18 54 38 94q24 49 39 51q21 2 51.5 -14t28.5 -38q-2 -18 -25.5 -98.5t-52.5 -167.5q51 66 100 123q66 77 114 120q60 54 89 54t33 -26q1 -6 1 -39z" />
    <glyph glyph-name="o" unicode="o" horiz-adv-x="455" 
d="M631 455q-49 -11 -103 -26q-10 -3 -94 -28q9 -13 19 -25q7 -13 7 -52q0 -94 -51 -177q-40 -64 -117 -130q-34 -28 -65 -39t-84 -11t-89 25q-47 33 -47 101q0 70 30 151q23 63 52 105q67 95 112 132q32 27 59 27q14 0 27.5 -11.5t13.5 -27.5q0 -29 -42 -90t-83 -119
q-44 -71 -44 -115q0 -22 13 -37t39 -15q59 0 106 73q43 67 43 136q0 17 -7 45q-16 64 -16 82q0 50 141 82q107 24 187 24q20 0 36.5 -7t16.5 -17q0 -21 -21 -38q-17 -14 -39 -18z" />
    <glyph glyph-name="p" unicode="p" horiz-adv-x="484" 
d="M505 346q0 -98 -95 -221q-100 -130 -190 -130q-19 0 -44.5 11t-47.5 26q-10 -36 -22.5 -98.5t-15.5 -88.5t-7 -75.5t-6.5 -73t-15.5 -34.5t-52 -11q-36 0 -49 26q-9 19 -9 59q0 34 43 208q64 260 69 281q11 50 30 117t36 119q13 39 37 51q15 7 47 7q21 0 28 -9t7 -28
t-5 -42q41 35 69 53q49 31 81 31q61 0 86.5 -38t25.5 -140zM374 330q0 41 -3 52q-6 20 -25 20q-60 0 -98 -51q-24 -32 -58 -117q-11 -26 -23.5 -64.5t-16.5 -52.5q5 10 15.5 17.5t22.5 7.5q10 -1 23 -14t30 -13q41 0 87 80.5t46 134.5z" />
    <glyph glyph-name="q" unicode="q" horiz-adv-x="604" 
d="M573 426q0 -18 -33 -139t-65 -238q-35 -131 -35 -152q-1 -13 -1 -17q0 -27 21.5 -33.5t21.5 -38.5q0 -25 -45 -96q-55 -86 -109 -86q-21 0 -30.5 16t-12.5 40q-2 17 21 117q10 45 50 206q22 89 45 179q-72 -66 -165 -120q-107 -62 -169 -62q-26 0 -56 33q-23 25 -23 57
q0 41 75 139q79 104 174 180q112 90 192 90q19 0 36 -21q8 -11 17 -21q7 2 25.5 11.5t26.5 9.5q24 0 32.5 -5.5t8.5 -17.5q-2 -19 -2 -31zM345 319q0 7 -4.5 13.5t-10.5 6.5q-39 3 -90 -47q-43 -43 -74 -100q-4 -9 2.5 -17.5t15.5 -8.5q47 0 104 56t57 97z" />
    <glyph glyph-name="r" unicode="r" horiz-adv-x="395" 
d="M452 386q-37 0 -110 -48q-78 -52 -141 -123q-20 -24 -38 -81q-13 -42 -19 -85.5t-76 -43.5q-32 0 -47 29q-10 19 -10 44q30 88 54.5 160.5t24.5 124.5q0 10 -2 26t-2 24v16l4 12q10 33 30 59t41 26q19 0 35.5 -15.5t16.5 -40.5q0 -43 -4 -66q-9 -34 -16 -65
q71 67 127 110q99 77 140 77h19t20 1q31 0 47 -8.5t16 -36.5q0 -61 -27 -80q-22 -16 -83 -16z" />
    <glyph glyph-name="s" unicode="s" horiz-adv-x="409" 
d="M332 358q-10 0 -20 10t-10 19q0 5 3 13t3 12q0 10 -11 10q-18 0 -34.5 -21t-16.5 -48q0 -15 9 -29l18 -28q6 -12 43 -78q24 -42 24 -58q0 -45 -67 -111q-86 -84 -202 -84q-49 0 -68 6q-33 10 -33 42q0 44 61 65q41 14 94 14q28 0 48.5 13.5t20.5 27.5q1 9 -32.5 74
t-33.5 97q0 77 94 170q100 99 200 99q18 0 39 -17t21 -37q0 -25 -25.5 -59t-62.5 -66q-25 -22 -30 -25q-18 -12 -32 -11z" />
    <glyph glyph-name="t" unicode="t" horiz-adv-x="395" 
d="M512 572q0 -22 -29.5 -47.5t-65.5 -40.5q-50 -20 -100.5 -40t-96.5 -29q-29 -74 -46 -122q-32 -90 -32 -136q0 -25 22 -25q17 0 97 44q31 17 142 83q76 45 79 45q17 0 20 -12.5t3 -38.5q0 -31 -69 -82q-27 -20 -85 -56q-75 -45 -103 -61q-58 -33 -114 -60t-77 -27
q-16 0 -34 31q-23 40 -23 101q0 38 38 159q9 29 42 125q-7 25 -7 33q0 9 7 24q6 21 27 40q12 11 25 23l72 188q41 86 94 86q15 0 23 -20t8 -36q0 -34 -24 -90q-20 -44 -39 -88q38 6 72 16.5t70 21.5q9 3 39 13.5t41 10.5q14 0 20 -10.5t4 -22.5z" />
    <glyph glyph-name="u" unicode="u" horiz-adv-x="587" 
d="M569 66q0 -20 -28 -49t-50 -29q-31 0 -56 18.5t-42.5 47t-26.5 55t-17 71.5q-92 -105 -120 -128q-75 -64 -154 -64q-22 0 -41.5 16.5t-19.5 37.5q0 24 9 73q2 9 33 152q27 114 57 170q38 71 88 71q13 0 25.5 -11.5t12.5 -21.5q0 -25 -13 -61t-25 -68q-17 -50 -25 -77
q-15 -51 -15 -70q0 -22 2.5 -28.5t19.5 -6.5q20 0 53 30q4 4 117 127q25 93 66 135q30 31 65 31q20 0 30 -12.5t10 -34.5q0 -15 -28 -123q-14 -54 -14 -90q0 -44 27 -85z" />
    <glyph glyph-name="v" unicode="v" horiz-adv-x="565" 
d="M589 355q-7 -25 -21 -41.5t-32 -16.5q-21 0 -46 25q-13 13 -22 13q-12 -2 -58 -63l-80 -106q-91 -115 -106 -131q-55 -61 -86 -61q-34 0 -49 32q-11 24 -11 68q0 20 2 36.5t4 26.5q-1 62 -2 163t-1 106q0 66 24 103q15 23 54 39q37 0 51 -39q11 -30 11 -88
q0 -12 -0.5 -27t-0.5 -34q0 -37 -1 -93t-1 -87l90 124q75 101 125 156q69 76 98 76q62 0 62 -52q2 -6 3 -15.5t1 -29.5q0 -26 -1.5 -38.5t-6.5 -45.5z" />
    <glyph glyph-name="w" unicode="w" horiz-adv-x="803" 
d="M902 509q0 -50 -12 -86q-16 -47 -44 -47q-17 0 -28 21.5t-17 21.5q-19 0 -45 -38q-7 -10 -26 -44q-40 -69 -79 -138q-51 -86 -88 -128q-50 -57 -88 -57q-36 0 -53 65q-13 50 -13 122q0 33 1.5 76.5t1.5 47.5q-5 -11 -82 -97q-93 -104 -160 -166q-95 -88 -130 -88
q-23 0 -36 13t-13 43q0 48 45 199l34 110q30 112 41 139q36 86 89 86q15 0 23.5 -12.5t8.5 -27.5q0 -26 -24 -116q-28 -98 -55 -196q0 -11 13 -11t78 77q111 131 122 143q72 77 101 77q48 0 60 -33q7 -19 7 -86v-31q0 -39 2.5 -66t23.5 -27q14 0 40 45t53 93q64 101 83 125
q50 61 96 61q28 0 49 -23t21 -47z" />
    <glyph glyph-name="x" unicode="x" horiz-adv-x="538" 
d="M545 501q0 -38 -98 -138q-42 -43 -83 -85l48 -70q30 -42 44 -42q49 0 49 -63q0 -44 -29 -69t-64 -25q-25 0 -78 74t-60 85q-35 -35 -60 -64q-38 -45 -41 -62q-6 -45 -20 -66q-19 -29 -58 -29q-22 0 -40 15q-22 19 -22 51q0 38 79 134q26 31 102 115q-40 56 -111 122
q-40 22 -56.5 35.5t-16.5 32.5q0 18 27.5 45.5t51.5 27.5q35 0 81.5 -39.5t109.5 -122.5l94 104q70 70 106 70q17 0 31 -12t14 -24z" />
    <glyph glyph-name="y" unicode="y" horiz-adv-x="557" 
d="M490 150q-31 -113 -84 -218q-66 -131 -144 -206q-95 -91 -200 -91q-61 0 -110 26q-42 22 -42 39q0 13 35.5 60.5t49.5 49.5q8 1 26 -8q42 -22 74 -22q58 0 113 47q65 56 110 164q20 49 28 73q3 9 29 121q-64 -61 -151 -115q-99 -61 -156 -61q-15 0 -27.5 30t-12.5 60
q0 113 56.5 252.5t96.5 146.5q19 4 32.5 -12.5t13.5 -37.5q0 -2 -29.5 -108.5t-32.5 -121.5q-1 -9 5.5 -23t13.5 -14q20 0 79 50q54 46 100 94q21 22 43 68q32 66 84 66q26 0 35 -13.5t9 -35.5q0 -11 -1 -20.5t-2 -17.5q0 -26 -13 -98.5t-28 -123.5z" />
    <glyph glyph-name="z" unicode="z" horiz-adv-x="552" 
d="M541 57q0 -34 -30 -62q-25 -23 -42 -23q-44 18 -81 31t-72 13q-38 0 -118 -16t-163 -33q-16 0 -24.5 16t-8.5 38q0 16 80 115q75 91 150 183q82 102 82 119q0 14 -8 17.5t-25 3.5q-11 0 -74.5 -19.5t-89.5 -19.5q-13 0 -21.5 8.5t-8.5 21.5q0 36 72.5 70.5t151.5 34.5
q59 0 98 -13q59 -20 59 -67q0 -39 -66 -119q-38 -45 -131 -140q-79 -80 -91 -99q65 10 97 14q57 8 99 8q55 0 110 -26.5t55 -55.5z" />
    <glyph glyph-name="braceleft" unicode="{" horiz-adv-x="355" 
d="M278 -14q19 0 33 -10.5t14 -38.5q0 -24 -30 -32t-77 -8q-81 0 -111 6q-59 12 -59 49q0 24 21.5 101t44 159t22.5 116q0 13 -30.5 23t-30.5 35q0 22 12.5 34.5t27.5 12.5q25 0 31 1q27 4 37 25q16 33 42 120q23 77 47.5 159t37.5 110t50.5 42t78.5 14q16 0 23 -1
q54 -5 58 -6q43 -7 40 -39q0 -28 -25 -42q-20 -11 -53 -11h-17t-18 1q-23 0 -36 -5t-17 -19q-12 -45 -29 -108q-55 -199 -61 -225t-45 -39q-29 -9 -58 -17q29 -14 31 -16q19 -14 19 -35q0 -8 -3 -19q-24 -69 -53.5 -180.5t-29.5 -134.5q0 -13 24 -17.5t58 -4.5h31z" />
    <glyph glyph-name="bar" unicode="|" horiz-adv-x="417" 
d="M240 915q26 0 33 -20.5t7 -67.5q0 -139 0.5 -299.5t1.5 -380.5t1 -223q1 -15 1 -24q0 -39 -10 -57q-16 -30 -59 -30q-10 0 -19 8q-12 11 -12 32v368v368.5t1 293.5q0 20 15.5 26t39.5 6z" />
    <glyph glyph-name="braceright" unicode="}" horiz-adv-x="405" 
d="M206 807q-20 0 -31 9q-16 13 -16 40q0 25 28.5 32.5t79.5 7.5q80 0 110 -6q59 -12 59 -49q0 -22 -21.5 -100t-43.5 -160.5t-22 -114.5q0 -14 30 -24t30 -35q0 -21 -12 -33t-27 -14q-30 0 -44.5 -4t-23.5 -21q-17 -36 -41.5 -117.5t-47.5 -158.5q-26 -86 -39 -114
t-50.5 -42t-78.5 -14q-16 0 -23 1q-56 6 -58 6q-43 7 -40 40q0 28 23 40t55 12q22 -1 33 -1q24 0 38 5t17 20q12 48 29 108q55 199 61.5 224.5t45.5 38.5q28 8 57 17q-29 14 -31 16q-19 14 -19 35q0 8 3 19q24 69 53.5 180.5t29.5 134.5q1 13 -23 17.5t-58 4.5h-32z" />
    <glyph glyph-name="asciitilde" unicode="~" 
d="M515 831q0 -49 -51 -88q-47 -36 -99 -36q-48 0 -88 18q-26 12 -54 34q-12 -14 -23 -27q-19 -19 -58 -19q-21 0 -37.5 13t-16.5 33q0 27 55 91q61 71 110 71q10 0 58.5 -34.5t116.5 -34.5q14 0 28 7t21 7q16 0 27 -8.5t11 -26.5z" />
    <glyph glyph-name="c128" horiz-adv-x="552" 
d="M309 687q120 16 175.5 21.5t91.5 5.5q52 0 75 -17t23 -61q0 -32 -44 -62.5t-78 -30.5t-46 16.5t-38 16.5t-56 -4q-75 -10 -80 -10q-11 -34 -25 -74q-18 -51 -30 -76q27 15 72 26t86 11q52 0 91.5 -43t39.5 -109q0 -140 -87 -247.5t-203 -107.5q-74 0 -104 33
q-24 27 -24 83q0 13 13.5 26.5t29.5 16.5q19 -2 31.5 -3t25 -13.5t18.5 -17.5q11 -9 34 -9q79 0 118 67q29 49 29 111t-18 85t-66 23q-69 0 -125 -47q-8 -48 -15.5 -79t-22.5 -62q-8 -20 -14 -31q-11 -20 -24 -31q-21 -18 -27 -21q-14 -7 -39 -7q-21 2 -32 21t-11 48
q0 35 34 115q23 51 31 71q26 60 50 121q19 49 39 99q-110 -22 -177 -22q-23 0 -41.5 12t-18.5 34q0 60 55 73q35 8 113 22q94 17 171 27z" />
    <glyph glyph-name="c129" horiz-adv-x="399" 
d="M13 63q0 47 19 117q7 26 45 141q17 52 34 93q27 63 55 127q-28 10 -56 21q-20 10 -20 27q0 36 35 61q47 34 148 43q25 0 99 8t111 8q67 0 87.5 -14t20.5 -61q0 -32 -44 -62.5t-78 -30.5t-46 16t-38 16q-34 0 -60.5 -6t-42.5 -10q-25 -63 -41 -112q-22 -66 -39.5 -138
t-25.5 -117q-11 -61 -11 -106q0 -38 -19 -63q-23 -30 -65 -30q-24 0 -46 22t-22 50zM608 912q0 -36 -16 -69q-22 -45 -61 -45q-35 0 -102 -26.5t-135 -53.5q-10 0 -26 18t-16 27q0 46 119.5 110.5t176.5 64.5q60 0 60 -26z" />
    <glyph glyph-name="c141" horiz-adv-x="620" 
d="M730 596q0 -40 -25.5 -62.5t-69.5 -28.5q-30 -3 -114 -53q-66 -39 -117 -76q41 -55 82 -109q66 -83 95 -97q23 -10 30 -26.5t7 -45.5q0 -34 -28.5 -56.5t-67.5 -22.5q-7 1 -11 1q-41 4 -123 130q-7 11 -99 166q-17 -11 -26 -16t-34 -15q-18 -33 -27 -50q-15 -29 -27 -56
q-6 -15 -6 -32q0 -10 1 -23.5t3 -29.5q0 -9 -1 -13q-6 -32 -36 -50.5t-65 -18.5q-27 -3 -46.5 18.5t-19.5 51.5q0 15 22 72q72 187 85 227q53 171 95 242q38 64 80 64q16 0 30 -15t14 -33q0 -28 -26 -102q-21 -59 -41 -117q1 0 102 70q110 75 170 111q98 58 131 58
q63 0 63 -63zM755 891q0 -36 -16 -69q-22 -45 -61 -45q-35 0 -102 -26.5t-135 -53.5q-10 0 -26 18t-16 27q0 46 119.5 110.5t176.5 64.5q60 0 60 -26z" />
    <glyph glyph-name="c142" horiz-adv-x="605" 
d="M513 165q-2 -12 0 -31q6 -67 6 -71q0 -38 -11 -52q-16 -20 -67 -20q-26 2 -46 23.5t-20 45.5q0 21 14 67q35 114 37 131.5t2 25.5q0 29 -13 43q-16 17 -52 17q-69 0 -125 -47q-8 -53 -16 -105q-11 -64 -25 -93q-8 -20 -14 -31q-11 -20 -24 -31q-21 -18 -27 -21
q-14 -7 -39 -7q-21 2 -32 21t-11 48q0 34 25 119q22 74 43 124q26 60 50 121q19 49 39 99q-110 -22 -177 -22q-23 0 -41.5 12t-18.5 34q0 60 55 73q35 8 113 22q94 17 171 27q120 16 175.5 21.5t91.5 5.5q52 0 75 -17t23 -61q0 -32 -44 -62.5t-78 -30.5t-46 16.5t-38 16.5
t-56 -4q-75 -10 -80 -10q-11 -34 -25 -74q-18 -51 -30 -76q25 14 72.5 21.5t94.5 7.5q54 0 79 -37q21 -31 21 -85v-19q-1 -8 -1 -12q-3 -38 -15.5 -74t-14.5 -49z" />
    <glyph glyph-name="c143" horiz-adv-x="630" 
d="M280 -88q-15 -30 -29 -60q-21 -34 -51 -34q-26 0 -36 18q-4 8 -10 39q-3 13 15 56q26 63 27 67h-40t-37 -1q-46 0 -60 3q-38 8 -38 49q0 30 44 169q25 79 51 158l66 214q40 104 94 104q15 0 31 -16t16 -35q0 -37 -50 -191q-35 -105 -51 -155q-19 -61 -37 -121
q-12 -35 -18 -41q10 -1 23.5 -1.5t28.5 -0.5q30 0 70.5 1t86.5 3q26 75 43 124q30 85 38 111q18 55 37 125.5t30 101.5q38 102 96 102q23 0 33 -16.5t10 -52.5q0 -40 -53 -203q-49 -149 -97 -297q-12 -43 -24 -85q-18 -44 -54 -44q-29 0 -58.5 -0.5t-60.5 -0.5
q-11 -33 -16 -45.5t-20 -44.5z" />
    <glyph glyph-name="c144" horiz-adv-x="574" 
d="M292 581q-23 -71 -83 -248q-24 -70 -31 -97l44 47q62 83 125 167q87 107 132 107q21 0 32 -28.5t11 -99.5q0 -79 -43 -249q-37 -147 -62 -206t-50 -121q-50 -108 -104 -169q-75 -85 -157 -85q-59 0 -126 63q-73 69 -73 143q0 14 36 44q21 17 37 20q11 2 47.5 -73.5
t95.5 -75.5q51 0 90 61q4 6 99 240q22 53 39 126q12 52 24 105q6 26 8.5 40t2.5 38q-13 -15 -74 -89q-39 -47 -63 -74q-84 -93 -132 -127q-34 -24 -61 -24q-22 0 -31.5 15t-12.5 37l145 492q-39 -5 -49 -4q-22 0 -29.5 6t-7.5 29q0 27 35 51.5t88 40.5q14 51 21 68
q28 68 77 68q30 0 41 -9t11 -26q0 -12 -4 -31.5t-11 -49.5q35 0 60.5 1.5t57.5 3.5q65 0 88 -17q16 -12 16 -41q-6 -59 -92 -59q-27 0 -69 -2.5t-98 -7.5z" />
    <glyph glyph-name="c157" horiz-adv-x="521" 
d="M350 264q12 -45 54 -80q53 -36 75 -51q22 -13 44.5 -26t22.5 -23q3 -18 -29 -50t-62 -32q-46 0 -106 51.5t-92 109.5q-50 -57 -93 -94q-64 -56 -100 -56q-19 0 -28.5 16t-9.5 35q0 56 20 149t42 157q18 54 38 94q24 49 39 51q21 2 51.5 -14t28.5 -38q-2 -18 -25.5 -98.5
t-52.5 -167.5q51 66 100 123q66 77 114 120q60 54 89 54q24 0 29 -14t5 -51q0 -48 -32 -71q-33 -21 -54.5 -34t-42.5 -34q-1 -1 -25 -26zM659 755q0 -36 -16 -69q-22 -45 -61 -45q-35 0 -102 -26.5t-135 -53.5q-10 0 -26 18t-16 27q0 46 119.5 110.5t176.5 64.5q60 0 60 -26
z" />
    <glyph glyph-name="c158" horiz-adv-x="574" 
d="M249 167q-84 -93 -132 -127q-34 -24 -61 -24q-22 0 -31.5 15t-12.5 37l145 492q-39 -5 -49 -4q-22 0 -29.5 6t-7.5 29q0 27 35 51.5t88 40.5q14 51 21 68q28 68 77 68q30 0 41 -9t11 -26q0 -12 -4 -31.5t-11 -49.5q35 0 60.5 1.5t57.5 3.5q65 0 88 -17q16 -12 16 -41
q-6 -59 -92 -59q-27 0 -69 -2.5t-98 -7.5q-23 -71 -83 -248q-24 -70 -31 -97l44 47q62 83 125 167q87 107 132 107q29 0 37 -24.5t8 -73.5q0 -42 -7 -112t-7 -97q0 -17 20.5 -63t20.5 -58q0 -49 -30 -87t-78 -38q-21 0 -40 17q-22 20 -22 50q0 13 2 82t2 103l1 74
q-14 -17 -75 -90q-42 -51 -62 -73z" />
    <glyph glyph-name="nonbreakingspace" unicode="&#xa0;" horiz-adv-x="441" 
d="M441 817q0 -36 -15 -56q-18 -24 -55 -24q-64 0 -64 54q0 19 31 63q20 28 35 28q24 0 46 -22t22 -43zM239 819q0 -31 -22 -54t-53 -23q-33 0 -49 13.5t-16 31.5q0 13 37 62q21 28 31 28q27 0 51 -23q21 -20 21 -35z" />
    <glyph glyph-name="exclamdown" unicode="&#xa1;" 
d="M242 243q-8 13 -49 98q-37 77 -64 118q-29 30 -43 47q-25 31 -25 74q0 39 22 64t60 25q53 0 120 -149q39 -95 54 -129q36 84 72 169q64 133 106 133q22 0 41.5 -15t19.5 -32q0 -20 -25 -80q-20 -48 -61 -134t-80 -168q-66 -134 -90 -172q-28 -44 -58 -72q-35 -33 -71 -45
q-27 -9 -67 -9q-25 0 -44 39t-19 76q0 26 50 41q23 6 46 13q43 14 61 37q24 39 44 71zM556 820q0 -39 -81.5 -90.5t-162.5 -51.5q-70 0 -107 48q-31 40 -31 94q0 25 15 40t50 15q32 0 50 -10q13 -7 23 -24q10 -24 15 -33q9 -16 27 -16q40 0 74 9q44 12 86 40q12 7 20 7
q22 0 22 -28z" />
    <glyph glyph-name="cent" unicode="&#xa2;" horiz-adv-x="489" 
d="M350 211q-14 -13 -88 -89q-63 -65 -96 -90q-54 -41 -92 -41q-28 0 -43 27t-15 60q0 120 56 265.5t105 145.5q19 0 31.5 -15.5t12.5 -34.5q0 -1 -40.5 -122.5t-40.5 -138.5q0 -18 4 -29.5t19 -11.5q23 0 108.5 106t129.5 196q9 20 29.5 33.5t38.5 13.5t24 -4q11 -8 11 -34
q0 -77 -44 -251q-30 -119 -59 -206q-22 -70 -43 -141q-43 -124 -95 -198q-70 -101 -152 -101q-59 0 -126 63q-73 69 -73 143q0 10 26 35.5t47 28.5q11 2 47.5 -73.5t95.5 -75.5q45 0 81 68q25 47 52 150q20 77 40 153q10 40 19.5 74t29.5 94zM586 694q0 -39 -81.5 -90.5
t-162.5 -51.5q-70 0 -107 48q-31 40 -31 94q0 25 15 40t50 15q32 0 50 -10q13 -7 23 -24q10 -24 15 -33q9 -16 27 -16q40 0 74 9q44 12 86 40q12 7 20 7q22 0 22 -28z" />
    <glyph glyph-name="sterling" unicode="&#xa3;" horiz-adv-x="581" 
d="M701 589q0 -39 -23 -66t-56 -27q-21 0 -36 4q-38 10 -48 10q-19 -31 -32 -62q-16 -39 -29 -98q-21 -101 -40 -165q-26 -88 -52 -134q-31 -55 -66 -55q-15 0 -94 23q-107 31 -172 70q-93 55 -93 119q0 17 27 45q34 35 80 35q29 0 41 -8.5t12 -20.5q0 -10 -5 -21
q-1 -3 -6 -9q0 -17 61 -42q51 -21 122 -35q23 45 41.5 119.5t38 141t29.5 85.5q-26 -5 -48.5 -8t-44.5 -3q-44 0 -66 9q-30 12 -30 42q0 48 56.5 70.5t149.5 22.5q25 0 119 10q31 3 89 10q23 0 49 -19.5t26 -42.5z" />
    <glyph glyph-name="yen" unicode="&#xa5;" horiz-adv-x="434" 
d="M485 579q-20 -8 -40 -8q-12 0 -30 1.5t-19 1.5q-11 0 -18 -1q-53 -6 -96 -16q-25 -63 -41 -112q-22 -66 -39.5 -138t-25.5 -117q-11 -61 -11 -106q0 -38 -19 -63q-23 -30 -65 -30q-24 0 -46 22t-22 50q0 47 19 117q7 26 45 141q17 52 34 93q27 63 55 127q-28 10 -56 21
q-20 10 -20 27q0 36 35 61q47 34 148 43q27 0 66 4q87 9 109 9q7 17 7 28q0 8 -2 13q-16 23 -26 39.5t-10 27.5q0 15 34 52t49 37q32 0 55 -35.5t23 -85.5q0 -96 -28 -146q-22 -39 -65 -57z" />
    <glyph glyph-name="brokenbar" unicode="&#xa6;" horiz-adv-x="417" 
d="M281 264q0 -80 0.5 -165t1.5 -175q1 -15 1 -24q0 -39 -10 -57q-16 -30 -59 -30q-10 0 -19 8q-12 11 -12 32q0 62 -2 135q-7 254 -7 274q0 16 19 36t40 18q20 -3 33.5 -18.5t13.5 -33.5zM234 370q-21 -2 -38.5 17.5t-17.5 36.5q0 80 2.5 219.5t4.5 239.5q0 21 15.5 33.5
t35.5 12.5q27 0 36 -14.5t9 -43.5q0 -11 -0.5 -22t-0.5 -22l1 -401q0 -17 -14 -36.5t-33 -19.5z" />
    <glyph glyph-name="section" unicode="&#xa7;" horiz-adv-x="403" 
d="M527 628q0 -29 -16 -54t-36 -25t-36 10t-18 24q2 13 2 26q0 9 -19 9q-38 0 -73 -22q-41 -26 -41 -61q0 -22 11 -48t32 -55q36 -49 50 -81q18 -41 18 -86t-28.5 -74.5t-88.5 -44.5q-12 -2 -31 -2q-24 0 -36 1q-15 3 -21 3q25 -31 47 -69q29 -50 29 -75q0 -61 -61 -95
q-49 -27 -103 -27q-76 0 -111 49q-26 36 -20 75q9 30 18 41q13 14 30 13q25 -3 40 -15q10 -7 19 -24t12 -21q9 -12 24 -12q18 0 31 6t16 19.5t3 18.5q0 12 -4.5 22t-17.5 25q-50 55 -74 97q-37 65 -37 134q0 68 70 106q51 28 94 28q30 0 42 -14q9 -10 9 -32q0 -14 -2 -30
t-19 -23t-48 -7q-24 0 -37 -7.5t-19 -35.5q-1 -3 -1 -6.5v-4.5q0 -26 21.5 -46t60.5 -20q32 0 56.5 15t29.5 40q1 5 1 16q0 38 -48 126t-48 117q0 56 46 119q58 80 146 80q78 0 111 -34q25 -25 25 -69z" />
    <glyph glyph-name="dieresis" unicode="&#xa8;" horiz-adv-x="482" 
d="M647 658q0 -53 -52 -73q-37 -14 -118 -14q-51 0 -116 -9l-76 -12q-23 -76 -45 -152q12 0 92.5 11.5t108.5 11.5q27 0 44 -3.5t17 -29.5q0 -67 -151 -98q-46 -10 -143 -20l-49 -142q26 7 123 23.5t116 16.5q52 0 69 -9q24 -13 24 -54q0 -45 -24 -65q-18 -15 -48 -15
q-14 0 -23.5 1.5t-15.5 3.5q-59 0 -145.5 -17t-170.5 -35q-23 0 -39.5 16.5t-16.5 34.5q2 14 60 209q41 137 50.5 170t23 65.5t31.5 64.5q-22 0 -35 8q-19 11 -15 33q8 43 118 74t271 31h77q58 -2 58 -26zM581 857q0 -36 -15 -56q-18 -24 -55 -24q-64 0 -64 54q0 19 31 63
q20 28 35 28q24 0 46 -22t22 -43zM379 859q0 -31 -22 -54t-53 -23q-33 0 -49 13.5t-16 31.5q0 13 37 62q21 28 31 28q27 0 51 -23q21 -20 21 -35z" />
    <glyph glyph-name="copyright" unicode="&#xa9;" horiz-adv-x="753" 
d="M794 453q0 -84 -20.5 -153t-70.5 -146q-65 -102 -139 -153q-85 -59 -193 -59q-115 0 -191 113q-68 101 -68 229q0 162 143 304q138 137 283 137q103 0 179.5 -80t76.5 -192zM697 440q0 91 -41.5 143.5t-112.5 52.5q-116 0 -224 -106t-108 -216q0 -117 35 -190
q45 -94 140 -94q85 0 149 53q51 42 105 132q34 56 45.5 106.5t11.5 118.5zM606 445q0 -19 -9.5 -33t-27.5 -14q-15 0 -30 8q-35 18 -52 18q-29 0 -62.5 -55.5t-33.5 -97.5q0 -12 3.5 -16.5t19.5 -4.5q17 0 56 21l92 50q39 0 39 -32q0 -21 -36 -51q-31 -26 -83 -54
q-29 -16 -54.5 -21.5t-57.5 -5.5q-31 0 -53 33.5t-22 71.5q0 81 52 161q62 96 154 96q45 0 75 -23t30 -51z" />
    <glyph glyph-name="ordfeminine" unicode="&#xaa;" horiz-adv-x="472" 
d="M553 607q0 -32 -27 -60t-55 -28q-5 0 -29 15.5t-43 15.5q-84 0 -146 -100q-80 -129 -80 -230q3 -20 5 -29q9 -30 23 -30q27 0 141 48t126 48q21 0 30.5 -13.5t9.5 -53.5q0 -38 -92 -89q-71 -39 -178 -77q-94 -33 -115 -33q-41 0 -68 48.5t-27 118.5q0 72 46 190
q54 139 132 225q98 109 212 109q25 0 80 -28t55 -47zM211 342q0 30 18.5 46.5t45.5 16.5q15 0 46 -2t42 -2q36 0 64 8q9 2 21 8q28 0 47 -10.5t19 -31.5q0 -50 -74 -78q-59 -22 -137 -22q-47 0 -64 9q-28 15 -28 58z" />
    <glyph glyph-name="guillemotleft" unicode="&#xab;" horiz-adv-x="736" 
d="M422 445q0 -28 -80 -88q-54 -39 -75 -54q60 -93 76 -122q22 -41 22 -58q0 -36 -27 -69.5t-60 -33.5q-42 0 -108 116q-62 108 -62 145q0 33 68 85q50 36 73 52q61 42 76 51q41 24 69 24q14 0 21 -13.5t7 -34.5zM666 452q0 -24 -56 -69q-19 -16 -100 -73q45 -68 63 -98
q35 -59 35 -82q0 -35 -27 -69t-59 -34q-41 0 -108 116q-63 109 -63 145q0 34 68 85q50 36 74 52q59 42 75 51q41 24 70 24q14 0 21 -13.5t7 -34.5z" />
    <glyph glyph-name="logicalnot" unicode="&#xac;" horiz-adv-x="639" 
d="M557 288q0 -58 -15 -103q-25 -73 -81 -73q-28 0 -42 23.5t-14 91.5v22l-289 -47q-29 0 -47.5 11t-18.5 32q0 61 179 98q134 28 243 28q54 0 69.5 -16.5t15.5 -66.5z" />
    <glyph glyph-name="minus" unicode="&#xad;" horiz-adv-x="639" 
d="M591 284q0 -30 -23.5 -46.5t-58.5 -16.5q-23 6 -36 9q-41 9 -66 9q-37 0 -148 -23q-37 -7 -106 -24q-28 0 -46.5 10.5t-18.5 31.5q0 62 177 102q136 31 240 31q55 0 70.5 -16.5t15.5 -66.5z" />
    <glyph glyph-name="registered" unicode="&#xae;" horiz-adv-x="787" 
d="M794 453q0 -84 -20.5 -153t-70.5 -146q-65 -102 -139 -153q-85 -59 -193 -59q-115 0 -191 113q-68 101 -68 229q0 162 143 304q138 137 283 137q103 0 179.5 -80t76.5 -192zM697 440q0 91 -41.5 143.5t-112.5 52.5q-116 0 -224 -106t-108 -216q0 -117 35 -190
q45 -94 140 -94q85 0 149 53q51 42 105 132q34 56 45.5 106.5t11.5 118.5zM618 498q0 -33 -44 -80q-36 -38 -83 -67l46 -56q13 -20 27 -40q13 -22 8 -35q-5 -18 -22 -29t-31 -11q-16 0 -51 36q-30 31 -78 93q-18 -69 -18 -70q-5 -15 -10 -25q-8 -18 -18.5 -28.5t-27.5 -10.5
q-18 0 -32 15.5t-14 48.5q0 24 19.5 104.5t40.5 139t81 65.5t133 7q29 0 53 -22q21 -19 21 -35zM509 484q-9 1 -20 1.5t-29 0.5h-15q-9 -2 -13 -2q-9 -28 -14 -44q-10 -32 -14 -50q15 3 29 12t28 19q15 8 31 21q21 18 23 30t-6 12z" />
    <glyph glyph-name="macron" unicode="&#xaf;" horiz-adv-x="335" 
d="M307 592q0 -53 -20 -128q-38 -144 -39 -147q-21 -100 -21 -199q0 -39 -28 -60q-26 -17 -41.5 -26.5t-34.5 -9.5q-23 0 -40 12.5t-17 36.5q12 63 19 102q23 117 45.5 204.5t44.5 173.5q36 109 85 109q25 0 36 -21t11 -47zM456 787q0 -36 -15 -56q-18 -24 -55 -24
q-64 0 -64 54q0 19 31 63q20 28 35 28q24 0 46 -22t22 -43zM254 789q0 -31 -22 -54t-53 -23q-33 0 -49 13.5t-16 31.5q0 13 37 62q21 28 31 28q27 0 51 -23q21 -20 21 -35z" />
    <glyph glyph-name="degree" unicode="&#xb0;" 
d="M542 713q0 -43 -78 -121q-94 -94 -201 -94q-56 0 -82.5 26.5t-26.5 75.5q0 42 79.5 127t122.5 85q66 0 117 -20q69 -27 69 -79zM341 688q-11 0 -17.5 -10.5t-6.5 -26.5q0 -8 6 -14q10 -10 27 -10q13 0 20.5 10.5t7.5 22.5q0 14 -11 21t-26 7z" />
    <glyph glyph-name="plusminus" unicode="&#xb1;" horiz-adv-x="883" 
d="M848 455q0 -37 -19 -58t-57 -21q-4 0 -38 -2t-57 -2q-32 0 -66 -4t-66 -8q-11 -69 -12 -78q-5 -41 -5 -88q0 -62 -12 -80q-21 -32 -97 -32q-21 0 -30 19t-9 45q0 29 16 115q5 29 17 82q-55 -12 -86 -18q-98 -19 -134 -19q-10 0 -14 1q-21 0 -38 10.5t-17 28.5
q0 65 181 106q69 16 140 23q0 67 25 124q32 74 89 74q17 0 24 -10.5t7 -29.5q0 -16 -9 -76q-5 -33 -5 -50q74 0 112.5 1t77.5 3q31 0 56.5 -14.5t25.5 -41.5zM734 -84q-9 0 -111 -5.5t-191.5 -9t-140.5 -3.5q-22 0 -96 -5q-29 -2 -51 -2q-26 0 -39.5 4.5t-13.5 16.5
q0 26 19 61q23 41 48 41q29 0 91 3q165 8 211 8q28 0 135 5t149 5q34 0 41.5 -6.5t7.5 -28.5q0 -24 -21 -54t-38 -30z" />
    <glyph glyph-name="twosuperior" unicode="&#xb2;" horiz-adv-x="335" 
d="M307 592q0 -53 -20 -128q-38 -144 -39 -147q-21 -100 -21 -199q0 -39 -28 -60q-26 -17 -41.5 -26.5t-34.5 -9.5q-23 0 -40 12.5t-17 36.5q12 63 19 102q23 117 45.5 204.5t44.5 173.5q36 109 85 109q25 0 36 -21t11 -47z" />
    <glyph glyph-name="threesuperior" unicode="&#xb3;" horiz-adv-x="263" 
d="M326 679q0 -18 -27.5 -53t-44.5 -35q-13 0 -51 29q-44 33 -44 56q0 11 25 47q30 43 54 43q27 0 57.5 -28.5t30.5 -58.5zM236 441q0 -31 -33 -123q-11 -30 -33 -86q-1 -5 -1 -14q0 -17 8.5 -42.5t8.5 -33.5q0 -18 -15 -52q-39 -88 -101 -88q-31 0 -43 30q-8 20 -8 58
q0 27 26 123q30 109 67 189q46 99 86 99q19 0 28.5 -17t9.5 -43z" />
    <glyph glyph-name="acute" unicode="&#xb4;" horiz-adv-x="453" 
d="M555 495q-23 -67 -69.5 -98t-116.5 -31q-46 0 -82 7.5t-62 13.5q-23 -101 -39 -182t-22.5 -129.5t-33.5 -61.5q-18 -9 -62 -9q-32 0 -47 29q-10 19 -10 44q30 88 54.5 160.5t24.5 124.5q0 10 -2 26t-2 24v16l4 12q10 33 30 59t41 26q41 -15 86.5 -27.5t79.5 -12.5
q52 0 90 18q20 9 28 35t8 52q0 2 -24 42q-12 20 -12 31q0 15 34 52t49 37q32 0 55 -35.5t23 -85.5q0 -41 -4.5 -69t-18.5 -68z" />
    <glyph glyph-name="paragraph" unicode="&#xb6;" horiz-adv-x="752" 
d="M282 125q-8 -40 -8 -72q0 -9 1 -26.5t1 -26.5q0 -16 -4 -41.5t-25.5 -45t-46.5 -19.5q-28 0 -53.5 24.5t-25.5 56.5q0 23 23.5 103t54.5 179q53 168 58 185t17.5 54.5t23.5 63.5q-12 -1 -111 -24q-44 -10 -50 -10q-23 0 -41.5 12t-18.5 35q0 60 55 73q31 7 208 41
q101 19 120 22q146 24 200 32q115 18 130 18q50 0 78.5 -22.5t28.5 -69.5q0 -34 -31 -64t-60 -30q-12 0 -30 20t-38 20h-75q-44 -154 -75 -267t-46 -175q-5 -22 -6.5 -43t-1.5 -32v-23.5t1 -22.5q0 -17 -4 -44t-25 -47t-46 -20q-29 0 -54.5 25.5t-25.5 56.5q0 24 24 105
l56 176q37 117 56 182l37 117q-8 -2 -65 -11.5t-82 -13.5q-9 -39 -33 -122.5t-49 -170.5q-32 -113 -42 -158z" />
    <glyph glyph-name="periodcentered" unicode="&#xb7;" horiz-adv-x="502" 
d="M358 326q3 -25 -31.5 -73.5t-52.5 -48.5q-34 0 -66.5 18t-32.5 41q0 18 33 65t52 51q22 4 60 -15.5t38 -37.5z" />
    <glyph glyph-name="periodcentered" unicode="&#x2219;" horiz-adv-x="502" 
d="M358 326q3 -25 -31.5 -73.5t-52.5 -48.5q-34 0 -66.5 18t-32.5 41q0 18 33 65t52 51q22 4 60 -15.5t38 -37.5z" />
    <glyph glyph-name="cedilla" unicode="&#xb8;" horiz-adv-x="411" 
d="M417 438q0 -45 -6 -66q-10 -37 -47 -85q-30 -43 -79 -75q-60 -33 -119 -66q2 -12 5.5 -18.5t11.5 -6.5q43 0 113 19t140 40q13 0 18.5 -9t5.5 -25q0 -35 -125 -93t-210 -58q-46 0 -77 53q-26 45 -26 94q0 136 99.5 258.5t206.5 122.5q40 0 64.5 -23.5t24.5 -61.5z
M289 407q-16 0 -26 -5.5t-31 -25.5q-20 -21 -44 -70q-13 -27 -31 -73q33 17 69 46q25 20 44 40q23 24 24 25q15 18 15 40q-3 8 -5 11q-7 12 -15 12zM461 687q0 -36 -15 -56q-18 -24 -55 -24q-64 0 -64 54q0 19 31 63q20 28 35 28q24 0 46 -22t22 -43zM259 689q0 -31 -22 -54
t-53 -23q-33 0 -49 13.5t-16 31.5q0 13 37 62q21 28 31 28q27 0 51 -23q21 -20 21 -35z" />
    <glyph glyph-name="onesuperior" unicode="&#xb9;" horiz-adv-x="1076" 
d="M1057 592q0 -91 -62 -203q-77 -140 -185 -140q-40 0 -71 37.5t-31 96.5q0 85 65 188q78 123 181 123q42 0 75 -40q28 -34 28 -62zM948 144q0 -35 -43 -48q-27 -8 -84 -8q-70 0 -102 8q-63 16 -63 62q0 29 27 40.5t69 11.5q21 0 39 -1t35 -2q53 0 82 -11q40 -15 40 -52z
M703 581q0 -31 -25 -58q-20 -21 -50.5 -35t-84.5 -131q-94 -203 -97 -208q-58 -109 -97 -109q-47 0 -53 101q-1 16 -1 114q0 75 -5.5 107t-16.5 50q-55 -175 -96 -280q-44 -112 -94 -112q-17 0 -36 20t-19 37q0 38 39 168q58 192 66 225q13 86 20 118q12 54 47 54
q26 0 53 -21q14 20 28 41q12 15 19 15q57 0 91 -114q21 -87 42 -173q22 20 64 120q67 158 73 171q42 87 68 87q28 0 48 -26q17 -22 17 -44v-117zM921 473q0 9 -8 15t-20 9q-19 5 -32.5 -13t-16 -36t-2.5 -22q0 -25 24 -25q16 0 33.5 25t21.5 47z" />
    <glyph glyph-name="ordmasculine" unicode="&#xba;" horiz-adv-x="419" 
d="M176 220q-7 -17 -10 -33.5t-3 -33.5q0 -23 10 -30t35 -7q32 0 90 30l128 68q17 0 27.5 -10.5t10.5 -25.5q0 -41 -101 -109q-118 -80 -245 -80q-51 0 -74 33.5t-23 88.5q0 27 15 77q20 65 51 112q60 86 127 143q82 69 149 69q29 0 52 -15.5t23 -42.5q0 -34 -26 -42
q-41 -6 -69 -13.5t-58 -31t-55 -55.5q16 0 26.5 2.5t28.5 2.5q45 0 71 9q4 1 11 5q30 0 47.5 -10t17.5 -32q0 -48 -70 -67q-45 -12 -133 -12h-27q-12 0 -14 1q-6 5 -12 9z" />
    <glyph glyph-name="guillemotright" unicode="&#xbb;" horiz-adv-x="736" 
d="M345 83q0 24 56 69q19 16 100 73l-48 72q-51 80 -51 108q0 34 27.5 68.5t59.5 34.5q41 0 108 -116q63 -109 63 -145q0 -33 -69 -85q-17 -13 -74.5 -53.5t-73.5 -49.5q-41 -24 -70 -24q-14 0 -21 13.5t-7 34.5zM102 76q0 18 33 49q14 13 122 93q-60 93 -76 122
q-22 41 -22 58q0 35 27 69t60 34q41 0 108 -116q63 -109 63 -145q0 -33 -69 -85q-17 -13 -75.5 -53.5t-73.5 -49.5q-41 -24 -69 -24q-14 0 -21 13.5t-7 34.5z" />
    <glyph glyph-name="onequarter" unicode="&#xbc;" horiz-adv-x="385" 
d="M337 442q0 -23 -40 -196q-24 -102 -31 -141q-19 -91 -37 -181q-25 -101 -56 -150q-39 -62 -99 -62q-33 0 -65 16.5t-77 51.5t-64 55q-28 28 -28 46q0 37 23 64t49 27q28 0 60 -50q25 -39 39 -53q9 -11 19 -23q8 -7 37 -7q26 0 48 89q8 33 29 156q12 77 26 161t30 141
q12 44 47 75q30 27 53 27q20 0 28.5 -9.5t8.5 -36.5zM363 655q0 -18 -27.5 -53t-45.5 -35q-12 0 -51 30q-44 34 -44 56q0 10 26 47q30 43 53 43q27 0 58 -29t31 -59z" />
    <glyph glyph-name="onehalf" unicode="&#xbd;" horiz-adv-x="500" 
d="M535 569q0 -29 -12.5 -51t-31.5 -22q-11 0 -61 35q-24 17 -46 17q-37 0 -63 -14.5t-26 -46.5q0 -21 49 -91q90 -129 93 -133q50 -79 50 -118q0 -62 -32.5 -100t-73.5 -38q-36 0 -76 8q-53 11 -108 36q-68 31 -116 77t-48 80q0 31 14.5 59t32.5 28q34 0 44 -3
q22 -7 22 -32q3 -38 70 -86q62 -45 93 -45q49 0 49 37q0 14 -46 78q-68 95 -87 126q-47 79 -47 124q0 66 61 122t139 56q39 0 94 -30q63 -34 63 -73z" />
    <glyph glyph-name="threequarters" unicode="&#xbe;" horiz-adv-x="409" 
d="M332 358q-10 0 -20 10t-10 19q0 5 3 13t3 12q0 10 -11 10q-18 0 -34.5 -21t-16.5 -48q0 -15 9 -29l18 -28q6 -12 43 -78q24 -42 24 -58q0 -45 -67 -111q-86 -84 -202 -84q-49 0 -68 6q-33 10 -33 42q0 44 61 65q41 14 94 14q28 0 48.5 13.5t20.5 27.5q1 9 -32.5 74
t-33.5 97q0 77 94 170q100 99 200 99q18 0 39 -17t21 -37q0 -25 -25.5 -59t-62.5 -66q-25 -22 -30 -25q-18 -12 -32 -11z" />
    <glyph glyph-name="questiondown" unicode="&#xbf;" horiz-adv-x="263" 
d="M211 674q0 -18 -27.5 -53t-44.5 -35q-13 0 -51 29q-44 33 -44 56q0 11 25 47q30 43 54 43q27 0 57.5 -28.5t30.5 -58.5zM236 441q0 -31 -33 -123q-11 -30 -33 -86q-1 -5 -1 -14q0 -17 8.5 -42.5t8.5 -33.5q0 -18 -15 -52q-39 -88 -101 -88q-31 0 -43 30q-8 20 -8 58
q0 27 26 123q30 109 67 189q46 99 86 99q19 0 28.5 -17t9.5 -43zM416 679q0 -18 -27.5 -53t-44.5 -35q-13 0 -51 29q-44 33 -44 56q0 11 25 47q30 43 54 43q27 0 57.5 -28.5t30.5 -58.5z" />
    <glyph glyph-name="Agrave" unicode="&#xc0;" horiz-adv-x="555" 
d="M624 353q0 -50 -48 -70q-59 -15 -79 -22l-1 -61q0 -13 18 -36t18 -46q0 -26 -15 -63q-40 -99 -118 -99q-38 0 -50 30q-7 17 -7 54q0 22 10 82t10 116q-50 -20 -79.5 -33t-48.5 -24q-37 -22 -55 -40t-39 -54q-41 -74 -45 -80q-25 -34 -60 -34q-16 11 -24 17q-24 20 -24 36
q21 45 40 83q53 102 152 268q129 213 180 275q37 45 70 45t50.5 -21t17.5 -87v-36l-1 -166q28 5 54 5q35 0 55.5 -9t18.5 -30zM267 328q7 3 37 10q57 13 60 14q0 16 1 43t1 32q0 22 -1 37t-5 26z" />
    <glyph glyph-name="Agrave" unicode="&#x410;" horiz-adv-x="555" 
d="M624 353q0 -50 -48 -70q-59 -15 -79 -22l-1 -61q0 -13 18 -36t18 -46q0 -26 -15 -63q-40 -99 -118 -99q-38 0 -50 30q-7 17 -7 54q0 22 10 82t10 116q-50 -20 -79.5 -33t-48.5 -24q-37 -22 -55 -40t-39 -54q-41 -74 -45 -80q-25 -34 -60 -34q-16 11 -24 17q-24 20 -24 36
q21 45 40 83q53 102 152 268q129 213 180 275q37 45 70 45t50.5 -21t17.5 -87v-36l-1 -166q28 5 54 5q35 0 55.5 -9t18.5 -30zM267 328q7 3 37 10q57 13 60 14q0 16 1 43t1 32q0 22 -1 37t-5 26z" />
    <glyph glyph-name="Aacute" unicode="&#xc1;" horiz-adv-x="552" 
d="M447 236q0 62 -18 85t-66 23q-69 0 -125 -47q-8 -52 -14.5 -76t-22.5 -57q-11 -25 -13 -28q-9 -12 -32 -24q26 -14 49.5 -18.5t71.5 -4.5q82 0 130 51q40 43 40 96zM435 449q52 0 91.5 -43t39.5 -109q0 -138 -102 -236t-242 -98q-82 0 -148 34.5t-66 82.5q0 14 16.5 28.5
t32.5 14.5q-5 9 -5 24q0 30 24 84l42 90q26 60 50 121q19 49 39 99q-28 10 -56 21q-20 10 -20 27q0 36 35 61q47 34 148 43q25 0 120 9t132 9q67 0 87.5 -14t20.5 -61q0 -32 -44 -62.5t-78 -30.5t-46 16.5t-38 16.5t-56 -4q-75 -10 -80 -10q-11 -34 -25 -74q-18 -51 -30 -76
q27 15 72 26t86 11z" />
    <glyph glyph-name="Aacute" unicode="&#x411;" horiz-adv-x="552" 
d="M447 236q0 62 -18 85t-66 23q-69 0 -125 -47q-8 -52 -14.5 -76t-22.5 -57q-11 -25 -13 -28q-9 -12 -32 -24q26 -14 49.5 -18.5t71.5 -4.5q82 0 130 51q40 43 40 96zM435 449q52 0 91.5 -43t39.5 -109q0 -138 -102 -236t-242 -98q-82 0 -148 34.5t-66 82.5q0 14 16.5 28.5
t32.5 14.5q-5 9 -5 24q0 30 24 84l42 90q26 60 50 121q19 49 39 99q-28 10 -56 21q-20 10 -20 27q0 36 35 61q47 34 148 43q25 0 120 9t132 9q67 0 87.5 -14t20.5 -61q0 -32 -44 -62.5t-78 -30.5t-46 16.5t-38 16.5t-56 -4q-75 -10 -80 -10q-11 -34 -25 -74q-18 -51 -30 -76
q27 15 72 26t86 11z" />
    <glyph glyph-name="Acircumflex" unicode="&#xc2;" horiz-adv-x="572" 
d="M594 603q0 -71 -36 -128q-45 -56 -60 -76q38 -17 53 -34q27 -31 27 -91q0 -135 -108 -225q-103 -86 -248 -86q-82 0 -148 34.5t-66 82.5q0 14 16.5 28.5t32.5 14.5q-5 9 -5 24q0 30 24 84l42 90q26 60 50 121q19 49 39 99q-28 10 -56 21q-20 10 -20 27q0 37 48 71
q60 43 159 43q101 0 146 -9q110 -22 110 -91zM449 543q2 11 -12 17t-36 6q-17 0 -28.5 -2t-36.5 -7q-27 -65 -54 -129q100 26 105 28q52 24 62 87zM452 197q1 6 1 13v10q0 44 -28 67q-23 19 -74 27q-35 4 -91 4h-15q-15 -93 -44 -154q-11 -25 -13 -28q-9 -12 -32 -24
q26 -14 49.5 -18.5t71.5 -4.5q81 0 130 38q39 31 45 70z" />
    <glyph glyph-name="Acircumflex" unicode="&#x412;" horiz-adv-x="572" 
d="M594 603q0 -71 -36 -128q-45 -56 -60 -76q38 -17 53 -34q27 -31 27 -91q0 -135 -108 -225q-103 -86 -248 -86q-82 0 -148 34.5t-66 82.5q0 14 16.5 28.5t32.5 14.5q-5 9 -5 24q0 30 24 84l42 90q26 60 50 121q19 49 39 99q-28 10 -56 21q-20 10 -20 27q0 37 48 71
q60 43 159 43q101 0 146 -9q110 -22 110 -91zM449 543q2 11 -12 17t-36 6q-17 0 -28.5 -2t-36.5 -7q-27 -65 -54 -129q100 26 105 28q52 24 62 87zM452 197q1 6 1 13v10q0 44 -28 67q-23 19 -74 27q-35 4 -91 4h-15q-15 -93 -44 -154q-11 -25 -13 -28q-9 -12 -32 -24
q26 -14 49.5 -18.5t71.5 -4.5q81 0 130 38q39 31 45 70z" />
    <glyph glyph-name="Atilde" unicode="&#xc3;" horiz-adv-x="399" 
d="M13 63q0 47 19 117q7 26 45 141q17 52 34 93q27 63 55 127q-28 10 -56 21q-20 10 -20 27q0 36 35 61q47 34 148 43q25 0 99 8t111 8q67 0 87.5 -14t20.5 -61q0 -32 -44 -62.5t-78 -30.5t-46 16t-38 16q-34 0 -60.5 -6t-42.5 -10q-25 -63 -41 -112q-22 -66 -39.5 -138
t-25.5 -117q-11 -61 -11 -106q0 -38 -19 -63q-23 -30 -65 -30q-24 0 -46 22t-22 50z" />
    <glyph glyph-name="Atilde" unicode="&#x413;" horiz-adv-x="399" 
d="M13 63q0 47 19 117q7 26 45 141q17 52 34 93q27 63 55 127q-28 10 -56 21q-20 10 -20 27q0 36 35 61q47 34 148 43q25 0 99 8t111 8q67 0 87.5 -14t20.5 -61q0 -32 -44 -62.5t-78 -30.5t-46 16t-38 16q-34 0 -60.5 -6t-42.5 -10q-25 -63 -41 -112q-22 -66 -39.5 -138
t-25.5 -117q-11 -61 -11 -106q0 -38 -19 -63q-23 -30 -65 -30q-24 0 -46 22t-22 50z" />
    <glyph glyph-name="Adieresis" unicode="&#xc4;" horiz-adv-x="642" 
d="M412 294q9 94 13 137.5t10 93.5q-21 -33 -51 -81t-40 -65q-25 -42 -56 -106q-69 -139 -77 -154q17 0 89 3t98 3q2 21 4.5 64t9.5 105zM615 51q0 -29 -38 -116q-24 -52 -31 -68q-17 -41 -31 -58t-34 -17q-55 0 -55 42q0 18 13 65t27 94h-204h-182q-14 -25 -33 -70
q-22 -53 -24 -56q-11 -26 -21 -53q-13 -22 -46 -22q-31 0 -40 16q-5 9 -5 35q0 18 17 73.5t46 134.5q15 41 44.5 60.5t60.5 19.5q9 0 13 -1q23 38 73 130q35 64 91 168q70 128 79 144q45 79 79 116q43 48 80 48q43 0 58 -25q10 -16 10 -52v-20q0 -27 -4 -62
q-12 -105 -12 -136q0 -46 -5 -94.5t-11 -103.5v-113q32 -4 56 -22q29 -22 29 -57z" />
    <glyph glyph-name="Adieresis" unicode="&#x414;" horiz-adv-x="642" 
d="M412 294q9 94 13 137.5t10 93.5q-21 -33 -51 -81t-40 -65q-25 -42 -56 -106q-69 -139 -77 -154q17 0 89 3t98 3q2 21 4.5 64t9.5 105zM615 51q0 -29 -38 -116q-24 -52 -31 -68q-17 -41 -31 -58t-34 -17q-55 0 -55 42q0 18 13 65t27 94h-204h-182q-14 -25 -33 -70
q-22 -53 -24 -56q-11 -26 -21 -53q-13 -22 -46 -22q-31 0 -40 16q-5 9 -5 35q0 18 17 73.5t46 134.5q15 41 44.5 60.5t60.5 19.5q9 0 13 -1q23 38 73 130q35 64 91 168q70 128 79 144q45 79 79 116q43 48 80 48q43 0 58 -25q10 -16 10 -52v-20q0 -27 -4 -62
q-12 -105 -12 -136q0 -46 -5 -94.5t-11 -103.5v-113q32 -4 56 -22q29 -22 29 -57z" />
    <glyph glyph-name="Aring" unicode="&#xc5;" horiz-adv-x="482" 
d="M647 658q0 -53 -52 -73q-37 -14 -118 -14q-51 0 -116 -9l-76 -12q-23 -76 -45 -152q12 0 92.5 11.5t108.5 11.5q27 0 44 -3.5t17 -29.5q0 -67 -151 -98q-46 -10 -143 -20l-49 -142q26 7 123 23.5t116 16.5q52 0 69 -9q24 -13 24 -54q0 -45 -24 -65q-18 -15 -48 -15
q-14 0 -23.5 1.5t-15.5 3.5q-59 0 -145.5 -17t-170.5 -35q-23 0 -39.5 16.5t-16.5 34.5q2 14 60 209q41 137 50.5 170t23 65.5t31.5 64.5q-22 0 -35 8q-19 11 -15 33q8 43 118 74t271 31h77q58 -2 58 -26z" />
    <glyph glyph-name="Aring" unicode="&#x415;" horiz-adv-x="482" 
d="M647 658q0 -53 -52 -73q-37 -14 -118 -14q-51 0 -116 -9l-76 -12q-23 -76 -45 -152q12 0 92.5 11.5t108.5 11.5q27 0 44 -3.5t17 -29.5q0 -67 -151 -98q-46 -10 -143 -20l-49 -142q26 7 123 23.5t116 16.5q52 0 69 -9q24 -13 24 -54q0 -45 -24 -65q-18 -15 -48 -15
q-14 0 -23.5 1.5t-15.5 3.5q-59 0 -145.5 -17t-170.5 -35q-23 0 -39.5 16.5t-16.5 34.5q2 14 60 209q41 137 50.5 170t23 65.5t31.5 64.5q-22 0 -35 8q-19 11 -15 33q8 43 118 74t271 31h77q58 -2 58 -26z" />
    <glyph glyph-name="AE" unicode="&#xc6;" horiz-adv-x="870" 
d="M357 308q-114 -143 -185 -219q-75 -81 -108 -81q-43 0 -61.5 16.5t-18.5 57.5q0 33 17.5 63.5t46 37t79.5 50.5q42 36 92 88q34 36 69 72q-42 69 -46 75q-27 38 -61 56t-43 34.5t-9 61.5q0 29 23 51t55 22q35 0 97 -85q64 -101 129 -201q51 175 53 181q41 127 94 127
q17 0 32 -17t15 -35q0 -28 -28 -123q-21 -70 -42 -139q118 119 169 165q121 108 169 108q63 0 63 -63q0 -42 -23 -66t-76 -40q-30 -9 -93 -56q-54 -40 -108 -89q36 -63 75 -116q58 -79 90 -94q22 -10 29 -27t7 -45q0 -34 -28.5 -56.5t-67.5 -22.5q-7 1 -11 1q-29 3 -75 64
q-34 45 -79 124l-54 96q-6 -5 -13 -8.5t-12 -5.5q-7 -16 -15.5 -47.5t-17.5 -54.5q-5 -12 -7 -38q-5 -60 -5 -62q-7 -32 -36 -50.5t-65 -18.5q-27 0 -46.5 20.5t-19.5 49.5q0 13 39 108q25 60 42 107q-10 7 -16.5 12t-14.5 12z" />
    <glyph glyph-name="AE" unicode="&#x416;" horiz-adv-x="870" 
d="M357 308q-114 -143 -185 -219q-75 -81 -108 -81q-43 0 -61.5 16.5t-18.5 57.5q0 33 17.5 63.5t46 37t79.5 50.5q42 36 92 88q34 36 69 72q-42 69 -46 75q-27 38 -61 56t-43 34.5t-9 61.5q0 29 23 51t55 22q35 0 97 -85q64 -101 129 -201q51 175 53 181q41 127 94 127
q17 0 32 -17t15 -35q0 -28 -28 -123q-21 -70 -42 -139q118 119 169 165q121 108 169 108q63 0 63 -63q0 -42 -23 -66t-76 -40q-30 -9 -93 -56q-54 -40 -108 -89q36 -63 75 -116q58 -79 90 -94q22 -10 29 -27t7 -45q0 -34 -28.5 -56.5t-67.5 -22.5q-7 1 -11 1q-29 3 -75 64
q-34 45 -79 124l-54 96q-6 -5 -13 -8.5t-12 -5.5q-7 -16 -15.5 -47.5t-17.5 -54.5q-5 -12 -7 -38q-5 -60 -5 -62q-7 -32 -36 -50.5t-65 -18.5q-27 0 -46.5 20.5t-19.5 49.5q0 13 39 108q25 60 42 107q-10 7 -16.5 12t-14.5 12z" />
    <glyph glyph-name="Ccedilla" unicode="&#xc7;" horiz-adv-x="480" 
d="M519 249q0 -102 -98 -179q-90 -71 -185 -71q-113 0 -180 51q-51 39 -51 73q0 38 16.5 60.5t45.5 22.5q27 0 67.5 -41.5t115.5 -41.5q51 0 93 38t42 88q0 42 -21 60q-16 14 -48 14q-10 0 -43 -7q-19 -4 -26 -4q-42 0 -42 61q0 15 16.5 35t39.5 26q48 14 85 36q52 32 52 68
q0 30 -20 40q-12 6 -39 6q-39 0 -98 -43q-28 -20 -51 -20q-20 0 -29 17.5t-9 45.5q0 32 42 65q61 48 172 48q74 0 116 -42q37 -37 37 -88q0 -75 -37 -117q-20 -23 -75 -51q39 -10 71 -46q41 -46 41 -104z" />
    <glyph glyph-name="Ccedilla" unicode="&#x417;" horiz-adv-x="480" 
d="M519 249q0 -102 -98 -179q-90 -71 -185 -71q-113 0 -180 51q-51 39 -51 73q0 38 16.5 60.5t45.5 22.5q27 0 67.5 -41.5t115.5 -41.5q51 0 93 38t42 88q0 42 -21 60q-16 14 -48 14q-10 0 -43 -7q-19 -4 -26 -4q-42 0 -42 61q0 15 16.5 35t39.5 26q48 14 85 36q52 32 52 68
q0 30 -20 40q-12 6 -39 6q-39 0 -98 -43q-28 -20 -51 -20q-20 0 -29 17.5t-9 45.5q0 32 42 65q61 48 172 48q74 0 116 -42q37 -37 37 -88q0 -75 -37 -117q-20 -23 -75 -51q39 -10 71 -46q41 -46 41 -104z" />
    <glyph glyph-name="Egrave" unicode="&#xc8;" horiz-adv-x="598" 
d="M501 409q-18 -18 -132 -146q-104 -117 -171 -182q-92 -90 -125 -90q-28 0 -49.5 18.5t-21.5 43.5q0 19 29 100q25 71 51 142q9 25 49 168q28 101 52 148q32 64 70 64q14 0 30.5 -15.5t16.5 -34.5q0 -32 -50 -188q-14 -45 -53 -159l-26 -72q55 59 111 119q74 80 164 179.5
t109 127.5q14 22 26.5 28t30.5 6h17q26 0 36 -24q7 -17 7 -45q0 -26 -33 -124.5t-65 -191.5q-35 -103 -35 -121q0 -14 13 -40q7 -14 7 -23q0 -34 -26 -59q-34 -33 -99 -33q-26 0 -44 16t-18 39q0 29 41 137q35 92 88 212z" />
    <glyph glyph-name="Egrave" unicode="&#x418;" horiz-adv-x="598" 
d="M501 409q-18 -18 -132 -146q-104 -117 -171 -182q-92 -90 -125 -90q-28 0 -49.5 18.5t-21.5 43.5q0 19 29 100q25 71 51 142q9 25 49 168q28 101 52 148q32 64 70 64q14 0 30.5 -15.5t16.5 -34.5q0 -32 -50 -188q-14 -45 -53 -159l-26 -72q55 59 111 119q74 80 164 179.5
t109 127.5q14 22 26.5 28t30.5 6h17q26 0 36 -24q7 -17 7 -45q0 -26 -33 -124.5t-65 -191.5q-35 -103 -35 -121q0 -14 13 -40q7 -14 7 -23q0 -34 -26 -59q-34 -33 -99 -33q-26 0 -44 16t-18 39q0 29 41 137q35 92 88 212z" />
    <glyph glyph-name="Eacute" unicode="&#xc9;" horiz-adv-x="653" 
d="M501 409q-18 -18 -132 -146q-104 -117 -171 -182q-92 -90 -125 -90q-28 0 -49.5 18.5t-21.5 43.5q0 19 29 100q25 71 51 142q9 25 49 168q28 101 52 148q32 64 70 64q14 0 30.5 -15.5t16.5 -34.5q0 -32 -50 -188q-14 -45 -53 -159l-26 -72q55 59 111 119q74 80 164 179.5
t109 127.5q14 22 26.5 28t30.5 6h17q26 0 36 -24q7 -17 7 -45q0 -26 -33 -124.5t-65 -191.5q-35 -103 -35 -121q0 -14 13 -40q7 -14 7 -23q0 -34 -26 -59q-34 -33 -99 -33q-26 0 -44 16t-18 39q0 29 41 137q35 92 88 212zM703 826q0 -39 -81.5 -90.5t-162.5 -51.5
q-70 0 -107 48q-31 40 -31 94q0 25 15 40t50 15q32 0 50 -10q13 -7 23 -24q10 -24 15 -33q9 -16 27 -16q40 0 74 9q44 12 86 40q12 7 20 7q22 0 22 -28z" />
    <glyph glyph-name="Eacute" unicode="&#x419;" horiz-adv-x="653" 
d="M501 409q-18 -18 -132 -146q-104 -117 -171 -182q-92 -90 -125 -90q-28 0 -49.5 18.5t-21.5 43.5q0 19 29 100q25 71 51 142q9 25 49 168q28 101 52 148q32 64 70 64q14 0 30.5 -15.5t16.5 -34.5q0 -32 -50 -188q-14 -45 -53 -159l-26 -72q55 59 111 119q74 80 164 179.5
t109 127.5q14 22 26.5 28t30.5 6h17q26 0 36 -24q7 -17 7 -45q0 -26 -33 -124.5t-65 -191.5q-35 -103 -35 -121q0 -14 13 -40q7 -14 7 -23q0 -34 -26 -59q-34 -33 -99 -33q-26 0 -44 16t-18 39q0 29 41 137q35 92 88 212zM703 826q0 -39 -81.5 -90.5t-162.5 -51.5
q-70 0 -107 48q-31 40 -31 94q0 25 15 40t50 15q32 0 50 -10q13 -7 23 -24q10 -24 15 -33q9 -16 27 -16q40 0 74 9q44 12 86 40q12 7 20 7q22 0 22 -28z" />
    <glyph glyph-name="Ecircumflex" unicode="&#xca;" horiz-adv-x="620" 
d="M730 596q0 -40 -25.5 -62.5t-69.5 -28.5q-30 -3 -114 -53q-66 -39 -117 -76q41 -55 82 -109q66 -83 95 -97q23 -10 30 -26.5t7 -45.5q0 -34 -28.5 -56.5t-67.5 -22.5q-7 1 -11 1q-41 4 -123 130q-7 11 -99 166q-17 -11 -26 -16t-34 -15q-18 -33 -27 -50q-15 -29 -27 -56
q-6 -15 -6 -32q0 -10 1 -23.5t3 -29.5q0 -9 -1 -13q-6 -32 -36 -50.5t-65 -18.5q-27 -3 -46.5 18.5t-19.5 51.5q0 15 22 72q72 187 85 227q53 171 95 242q38 64 80 64q16 0 30 -15t14 -33q0 -28 -26 -102q-21 -59 -41 -117q1 0 102 70q110 75 170 111q98 58 131 58
q63 0 63 -63z" />
    <glyph glyph-name="Ecircumflex" unicode="&#x41a;" horiz-adv-x="620" 
d="M730 596q0 -40 -25.5 -62.5t-69.5 -28.5q-30 -3 -114 -53q-66 -39 -117 -76q41 -55 82 -109q66 -83 95 -97q23 -10 30 -26.5t7 -45.5q0 -34 -28.5 -56.5t-67.5 -22.5q-7 1 -11 1q-41 4 -123 130q-7 11 -99 166q-17 -11 -26 -16t-34 -15q-18 -33 -27 -50q-15 -29 -27 -56
q-6 -15 -6 -32q0 -10 1 -23.5t3 -29.5q0 -9 -1 -13q-6 -32 -36 -50.5t-65 -18.5q-27 -3 -46.5 18.5t-19.5 51.5q0 15 22 72q72 187 85 227q53 171 95 242q38 64 80 64q16 0 30 -15t14 -33q0 -28 -26 -102q-21 -59 -41 -117q1 0 102 70q110 75 170 111q98 58 131 58
q63 0 63 -63z" />
    <glyph glyph-name="Edieresis" unicode="&#xcb;" horiz-adv-x="550" 
d="M137 29q-33 -34 -64 -45q-20 -7 -53 -7q-26 0 -38.5 30.5t-12.5 69.5q0 25 30 35q17 5 35 11q44 15 96 87q38 53 84 142q60 121 121 242q70 123 125 123q44 0 59 -26q10 -17 10 -53v-17q0 -22 -5 -65q-12 -104 -12 -148q0 -51 -3.5 -108.5t-5.5 -101.5q0 -14 24 -49
t24 -58q0 -50 -38 -85q-32 -29 -83 -29q-38 0 -50 30q-7 17 -7 54q0 40 0.5 79t8.5 119q1 12 19 198q7 76 9 90q-9 -14 -63 -127q-35 -74 -48 -102q-111 -236 -162 -289z" />
    <glyph glyph-name="Edieresis" unicode="&#x41b;" horiz-adv-x="550" 
d="M137 29q-33 -34 -64 -45q-20 -7 -53 -7q-26 0 -38.5 30.5t-12.5 69.5q0 25 30 35q17 5 35 11q44 15 96 87q38 53 84 142q60 121 121 242q70 123 125 123q44 0 59 -26q10 -17 10 -53v-17q0 -22 -5 -65q-12 -104 -12 -148q0 -51 -3.5 -108.5t-5.5 -101.5q0 -14 24 -49
t24 -58q0 -50 -38 -85q-32 -29 -83 -29q-38 0 -50 30q-7 17 -7 54q0 40 0.5 79t8.5 119q1 12 19 198q7 76 9 90q-9 -14 -63 -127q-35 -74 -48 -102q-111 -236 -162 -289z" />
    <glyph glyph-name="Igrave" unicode="&#xcc;" horiz-adv-x="861" 
d="M236 353q34 83 59.5 160t37 111t37 54t52.5 20q47 0 63 -34q11 -24 11 -84q0 -30 -4.5 -113t-8.5 -171v-5q3 1 5 1q6 0 75 101q87 129 132 187q78 102 106 102q40 0 56 -33q12 -25 12 -69q0 -48 -17.5 -119.5t-35 -142.5t-17.5 -118q0 -33 14 -40t14 -51q0 -41 -22 -70
q-26 -34 -70 -34q-30 0 -51.5 25t-21.5 65q-1 8 -1 17v14q0 52 27 165q19 81 27 130l-80 -118q-72 -106 -116 -160q-66 -81 -91 -81q-40 0 -55 35q-9 21 -9 64q0 60 0.5 135.5t5.5 115.5q-53 -120 -91 -199q-71 -148 -108 -182.5t-72 -46.5q-27 -9 -67 -9q-26 0 -38.5 30.5
t-12.5 69.5q0 26 43 38l42 12q46 15 94 85q41 59 76 143z" />
    <glyph glyph-name="Igrave" unicode="&#x41c;" horiz-adv-x="861" 
d="M236 353q34 83 59.5 160t37 111t37 54t52.5 20q47 0 63 -34q11 -24 11 -84q0 -30 -4.5 -113t-8.5 -171v-5q3 1 5 1q6 0 75 101q87 129 132 187q78 102 106 102q40 0 56 -33q12 -25 12 -69q0 -48 -17.5 -119.5t-35 -142.5t-17.5 -118q0 -33 14 -40t14 -51q0 -41 -22 -70
q-26 -34 -70 -34q-30 0 -51.5 25t-21.5 65q-1 8 -1 17v14q0 52 27 165q19 81 27 130l-80 -118q-72 -106 -116 -160q-66 -81 -91 -81q-40 0 -55 35q-9 21 -9 64q0 60 0.5 135.5t5.5 115.5q-53 -120 -91 -199q-71 -148 -108 -182.5t-72 -46.5q-27 -9 -67 -9q-26 0 -38.5 30.5
t-12.5 69.5q0 26 43 38l42 12q46 15 94 85q41 59 76 143z" />
    <glyph glyph-name="Iacute" unicode="&#xcd;" horiz-adv-x="577" 
d="M636 600q0 -37 -36.5 -134t-71.5 -189q-38 -100 -38 -123q0 -8 10 -25t10 -30q0 -38 -26 -62q-33 -30 -99 -30q-26 0 -44 16t-18 39q0 28 41 124q29 68 42 105q-41 -4 -81 -11q-89 -15 -104 -16q-16 -40 -23 -56q-12 -28 -20 -37q17 -26 19 -32q7 -16 7 -37
q0 -29 -29 -65q-37 -46 -91 -46q-27 0 -48.5 18.5t-21.5 43.5q0 19 41 112q31 70 44 104q1 10 -9 26.5t-10 26.5q0 21 6 29q1 1 42 29q51 131 77 184q53 109 85 109q15 0 31 -16t16 -35q0 -44 -45 -146q-30 -64 -40 -88q45 4 106 12q11 1 85 12q10 20 26.5 62t28.5 78
q29 86 51 108t59 22q21 0 28 -19q4 -11 4 -23q0 -10 -2 -24t-2 -16z" />
    <glyph glyph-name="Iacute" unicode="&#x41d;" horiz-adv-x="577" 
d="M636 600q0 -37 -36.5 -134t-71.5 -189q-38 -100 -38 -123q0 -8 10 -25t10 -30q0 -38 -26 -62q-33 -30 -99 -30q-26 0 -44 16t-18 39q0 28 41 124q29 68 42 105q-41 -4 -81 -11q-89 -15 -104 -16q-16 -40 -23 -56q-12 -28 -20 -37q17 -26 19 -32q7 -16 7 -37
q0 -29 -29 -65q-37 -46 -91 -46q-27 0 -48.5 18.5t-21.5 43.5q0 19 41 112q31 70 44 104q1 10 -9 26.5t-10 26.5q0 21 6 29q1 1 42 29q51 131 77 184q53 109 85 109q15 0 31 -16t16 -35q0 -44 -45 -146q-30 -64 -40 -88q45 4 106 12q11 1 85 12q10 20 26.5 62t28.5 78
q29 86 51 108t59 22q21 0 28 -19q4 -11 4 -23q0 -10 -2 -24t-2 -16z" />
    <glyph glyph-name="Icircumflex" unicode="&#xce;" horiz-adv-x="498" 
d="M587 555q0 -171 -79 -311q-68 -121 -178 -194q-99 -66 -186 -66q-49 0 -83 42t-34 99q0 114 9 167q15 91 68 184q68 119 144 168q53 34 116 34q17 0 30.5 -1.5t30.5 -3.5q7 27 11 31q9 9 28 9q30 0 76.5 -60.5t46.5 -97.5zM454 473q0 33 -28.5 52.5t-81.5 19.5
q-97 0 -157 -156q-44 -114 -44 -192q0 -34 18 -57t45 -23q105 0 181 126q67 111 67 230z" />
    <glyph glyph-name="Icircumflex" unicode="&#x41e;" horiz-adv-x="498" 
d="M587 555q0 -171 -79 -311q-68 -121 -178 -194q-99 -66 -186 -66q-49 0 -83 42t-34 99q0 114 9 167q15 91 68 184q68 119 144 168q53 34 116 34q17 0 30.5 -1.5t30.5 -3.5q7 27 11 31q9 9 28 9q30 0 76.5 -60.5t46.5 -97.5zM454 473q0 33 -28.5 52.5t-81.5 19.5
q-97 0 -157 -156q-44 -114 -44 -192q0 -34 18 -57t45 -23q105 0 181 126q67 111 67 230z" />
    <glyph glyph-name="Idieresis" unicode="&#xcf;" horiz-adv-x="530" 
d="M467 571q-10 0 -69 -6t-69 -6q-22 -52 -43.5 -114.5t-40.5 -119.5q-22 -61 -45 -119q-15 -37 -47 -112q-20 -48 -30 -63q-22 -31 -52 -31q-56 0 -56 63q0 31 56 159q49 112 64 150l63 176q-28 -3 -45.5 11.5t-17.5 44.5q0 22 18.5 42.5t44.5 25.5q48 10 141.5 16.5
t176.5 6.5q75 0 99.5 -15t24.5 -44q0 -20 -10 -33q-13 -17 -46 -23l-54 -158q-32 -96 -56 -174q-27 -89 -27 -107q0 -8 10 -26t10 -30q0 -38 -27 -62q-33 -30 -98 -30q-26 0 -44 16t-18 39q0 29 71 218q58 152 116 305z" />
    <glyph glyph-name="Idieresis" unicode="&#x41f;" horiz-adv-x="530" 
d="M467 571q-10 0 -69 -6t-69 -6q-22 -52 -43.5 -114.5t-40.5 -119.5q-22 -61 -45 -119q-15 -37 -47 -112q-20 -48 -30 -63q-22 -31 -52 -31q-56 0 -56 63q0 31 56 159q49 112 64 150l63 176q-28 -3 -45.5 11.5t-17.5 44.5q0 22 18.5 42.5t44.5 25.5q48 10 141.5 16.5
t176.5 6.5q75 0 99.5 -15t24.5 -44q0 -20 -10 -33q-13 -17 -46 -23l-54 -158q-32 -96 -56 -174q-27 -89 -27 -107q0 -8 10 -26t10 -30q0 -38 -27 -62q-33 -30 -98 -30q-26 0 -44 16t-18 39q0 29 71 218q58 152 116 305z" />
    <glyph glyph-name="Eth" unicode="&#xd0;" horiz-adv-x="461" 
d="M556 548q0 -75 -67 -150q-73 -81 -199 -131q-55 -25 -109 -49l-25 -169q-6 -28 -25.5 -43t-62.5 -19q-22 0 -39 19t-17 45q12 44 27 100q21 78 29 113q17 70 50 167.5t68 195.5q6 16 73 47q77 36 132 36q48 0 102 -45q63 -52 63 -117zM415 515q0 33 -15.5 48.5
t-55.5 15.5q-51 0 -80 -55q-10 -19 -27 -64.5t-24.5 -70.5t-12.5 -50q27 10 52.5 21.5t48.5 26.5q47 32 75 60q39 39 39 68z" />
    <glyph glyph-name="Eth" unicode="&#x420;" horiz-adv-x="461" 
d="M556 548q0 -75 -67 -150q-73 -81 -199 -131q-55 -25 -109 -49l-25 -169q-6 -28 -25.5 -43t-62.5 -19q-22 0 -39 19t-17 45q12 44 27 100q21 78 29 113q17 70 50 167.5t68 195.5q6 16 73 47q77 36 132 36q48 0 102 -45q63 -52 63 -117zM415 515q0 33 -15.5 48.5
t-55.5 15.5q-51 0 -80 -55q-10 -19 -27 -64.5t-24.5 -70.5t-12.5 -50q27 10 52.5 21.5t48.5 26.5q47 32 75 60q39 39 39 68z" />
    <glyph glyph-name="Ntilde" unicode="&#xd1;" horiz-adv-x="472" 
d="M553 607q0 -32 -27 -60t-55 -28q-5 0 -29 15.5t-43 15.5q-84 0 -146 -100q-80 -129 -80 -230q3 -20 5 -29q9 -30 23 -30q27 0 141 48t126 48q21 0 30.5 -13.5t9.5 -53.5q0 -38 -92 -89q-71 -39 -178 -77q-94 -33 -115 -33q-41 0 -68 48.5t-27 118.5q0 72 46 190
q54 139 132 225q98 109 212 109q25 0 80 -28t55 -47z" />
    <glyph glyph-name="Ntilde" unicode="&#x421;" horiz-adv-x="472" 
d="M553 607q0 -32 -27 -60t-55 -28q-5 0 -29 15.5t-43 15.5q-84 0 -146 -100q-80 -129 -80 -230q3 -20 5 -29q9 -30 23 -30q27 0 141 48t126 48q21 0 30.5 -13.5t9.5 -53.5q0 -38 -92 -89q-71 -39 -178 -77q-94 -33 -115 -33q-41 0 -68 48.5t-27 118.5q0 72 46 190
q54 139 132 225q98 109 212 109q25 0 80 -28t55 -47z" />
    <glyph glyph-name="Ograve" unicode="&#xd2;" horiz-adv-x="468" 
d="M608 620q0 -34 -31 -64t-60 -30q-12 0 -30 20t-38 20h-75q-33 -116 -56 -199.5t-37 -144.5q-5 -21 -6.5 -42.5t-1.5 -31.5v-23.5t1 -23.5q0 -17 -4 -43.5t-25 -46.5t-46 -20q-29 0 -54.5 24.5t-25.5 57.5q0 27 36 138q58 180 72 227l37 117q-30 -10 -98 -21.5t-100 -11.5
q-23 0 -41.5 12t-18.5 35q0 31 13.5 48.5t39 23.5t37.5 8q30 6 69.5 12t205.5 33q119 19 130 19q51 0 79 -22.5t28 -70.5z" />
    <glyph glyph-name="Ograve" unicode="&#x422;" horiz-adv-x="468" 
d="M608 620q0 -34 -31 -64t-60 -30q-12 0 -30 20t-38 20h-75q-33 -116 -56 -199.5t-37 -144.5q-5 -21 -6.5 -42.5t-1.5 -31.5v-23.5t1 -23.5q0 -17 -4 -43.5t-25 -46.5t-46 -20q-29 0 -54.5 24.5t-25.5 57.5q0 27 36 138q58 180 72 227l37 117q-30 -10 -98 -21.5t-100 -11.5
q-23 0 -41.5 12t-18.5 35q0 31 13.5 48.5t39 23.5t37.5 8q30 6 69.5 12t205.5 33q119 19 130 19q51 0 79 -22.5t28 -70.5z" />
    <glyph glyph-name="Oacute" unicode="&#xd3;" 
d="M242 243q-8 13 -49 98q-37 77 -64 118q-29 30 -43 47q-25 31 -25 74q0 39 22 64t60 25q53 0 120 -149q39 -95 54 -129q36 84 72 169q64 133 106 133q22 0 41.5 -15t19.5 -32q0 -20 -25 -80q-20 -48 -61 -134t-80 -168q-66 -134 -90 -172q-28 -44 -58 -72q-35 -33 -71 -45
q-27 -9 -67 -9q-25 0 -44 39t-19 76q0 26 50 41q23 6 46 13q43 14 61 37q24 39 44 71z" />
    <glyph glyph-name="Oacute" unicode="&#x423;" 
d="M242 243q-8 13 -49 98q-37 77 -64 118q-29 30 -43 47q-25 31 -25 74q0 39 22 64t60 25q53 0 120 -149q39 -95 54 -129q36 84 72 169q64 133 106 133q22 0 41.5 -15t19.5 -32q0 -20 -25 -80q-20 -48 -61 -134t-80 -168q-66 -134 -90 -172q-28 -44 -58 -72q-35 -33 -71 -45
q-27 -9 -67 -9q-25 0 -44 39t-19 76q0 26 50 41q23 6 46 13q43 14 61 37q24 39 44 71z" />
    <glyph glyph-name="Ocircumflex" unicode="&#xd4;" horiz-adv-x="690" 
d="M652 379q0 52 -9 76.5t-37 35t-46.5 15t-49.5 4.5q-6 -25 -18 -63q-33 -102 -33 -103q-18 -66 -22 -80q-10 -35 -24 -77q84 0 164 70q75 66 75 122zM255 473q-40 -24 -72 -75.5t-32 -100.5q0 -42 57 -72q46 -24 83 -24q18 64 45.5 155.5t48.5 151.5q-51 -8 -77.5 -14
t-52.5 -21zM16 283q0 59 28.5 122.5t67.5 97.5q50 45 136 80q94 39 173 39q9 25 12.5 43.5t8.5 36.5q10 38 22 56q17 26 41 26q5 0 13 -2q30 -9 39 -15q15 -11 15 -32q0 -20 -7.5 -49t-20.5 -64q89 -9 154 -32q40 -15 61 -45q27 -39 27 -103q0 -135 -114 -242
q-119 -111 -282 -111q-5 -14 -21 -76q-23 -88 -47 -88q-30 0 -60 12q-36 15 -36 35q0 25 2.5 46.5t13.5 72.5q-92 13 -154 59q-72 54 -72 133z" />
    <glyph glyph-name="Ocircumflex" unicode="&#x424;" horiz-adv-x="690" 
d="M652 379q0 52 -9 76.5t-37 35t-46.5 15t-49.5 4.5q-6 -25 -18 -63q-33 -102 -33 -103q-18 -66 -22 -80q-10 -35 -24 -77q84 0 164 70q75 66 75 122zM255 473q-40 -24 -72 -75.5t-32 -100.5q0 -42 57 -72q46 -24 83 -24q18 64 45.5 155.5t48.5 151.5q-51 -8 -77.5 -14
t-52.5 -21zM16 283q0 59 28.5 122.5t67.5 97.5q50 45 136 80q94 39 173 39q9 25 12.5 43.5t8.5 36.5q10 38 22 56q17 26 41 26q5 0 13 -2q30 -9 39 -15q15 -11 15 -32q0 -20 -7.5 -49t-20.5 -64q89 -9 154 -32q40 -15 61 -45q27 -39 27 -103q0 -135 -114 -242
q-119 -111 -282 -111q-5 -14 -21 -76q-23 -88 -47 -88q-30 0 -60 12q-36 15 -36 35q0 25 2.5 46.5t13.5 72.5q-92 13 -154 59q-72 54 -72 133z" />
    <glyph glyph-name="Otilde" unicode="&#xd5;" horiz-adv-x="538" 
d="M581 646q-4 -23 -109 -149q-63 -76 -84 -106q47 -84 80 -159q46 -105 46 -157q0 -41 -18.5 -62.5t-60.5 -21.5q-32 0 -47 36q-13 48 -21 69q-11 38 -31 81q-24 53 -47 83q-25 -37 -66 -90q-84 -109 -91 -123q-13 -27 -26 -53q-16 -20 -67 -20q-30 0 -43.5 22.5
t-11.5 45.5q0 16 51 85q30 41 105 131q64 77 86 102q-16 33 -54 93q-73 117 -73 132q3 24 26 53q28 35 56 32q18 0 68 -70q43 -61 70 -113q46 64 115 138q76 82 96 82q17 0 36 -21.5t15 -39.5z" />
    <glyph glyph-name="Otilde" unicode="&#x425;" horiz-adv-x="538" 
d="M581 646q-4 -23 -109 -149q-63 -76 -84 -106q47 -84 80 -159q46 -105 46 -157q0 -41 -18.5 -62.5t-60.5 -21.5q-32 0 -47 36q-13 48 -21 69q-11 38 -31 81q-24 53 -47 83q-25 -37 -66 -90q-84 -109 -91 -123q-13 -27 -26 -53q-16 -20 -67 -20q-30 0 -43.5 22.5
t-11.5 45.5q0 16 51 85q30 41 105 131q64 77 86 102q-16 33 -54 93q-73 117 -73 132q3 24 26 53q28 35 56 32q18 0 68 -70q43 -61 70 -113q46 64 115 138q76 82 96 82q17 0 36 -21.5t15 -39.5z" />
    <glyph glyph-name="Odieresis" unicode="&#xd6;" horiz-adv-x="654" 
d="M493 494q20 74 31 105q38 102 96 102q23 0 33 -16.5t10 -52.5q0 -30 -35 -130.5t-70 -199.5q-41 -118 -48 -166q49 -5 63 -20.5t14 -49.5q0 -24 -16 -73q-11 -33 -29.5 -77t-32.5 -60.5t-34 -16.5q-55 0 -63 42q-2 13 15 73q11 37 13 48q-37 0 -85.5 -0.5t-108.5 -1.5
q-43 0 -75.5 -1t-62.5 -2q-48 0 -67.5 10t-19.5 42q0 30 44 169q25 79 51 158l66 214q40 104 94 104q15 0 31 -16t16 -35q0 -37 -50 -191q-35 -105 -51 -155q-19 -61 -37 -121q-12 -35 -18 -41q10 -1 23.5 -1.5t28.5 -0.5q30 0 70.5 1t86.5 3q26 75 43 124q30 85 38 111
q18 55 36 122z" />
    <glyph glyph-name="Odieresis" unicode="&#x426;" horiz-adv-x="654" 
d="M493 494q20 74 31 105q38 102 96 102q23 0 33 -16.5t10 -52.5q0 -30 -35 -130.5t-70 -199.5q-41 -118 -48 -166q49 -5 63 -20.5t14 -49.5q0 -24 -16 -73q-11 -33 -29.5 -77t-32.5 -60.5t-34 -16.5q-55 0 -63 42q-2 13 15 73q11 37 13 48q-37 0 -85.5 -0.5t-108.5 -1.5
q-43 0 -75.5 -1t-62.5 -2q-48 0 -67.5 10t-19.5 42q0 30 44 169q25 79 51 158l66 214q40 104 94 104q15 0 31 -16t16 -35q0 -37 -50 -191q-35 -105 -51 -155q-19 -61 -37 -121q-12 -35 -18 -41q10 -1 23.5 -1.5t28.5 -0.5q30 0 70.5 1t86.5 3q26 75 43 124q30 85 38 111
q18 55 36 122z" />
    <glyph glyph-name="multiply" unicode="&#xd7;" horiz-adv-x="483" 
d="M572 625q-47 -141 -92.5 -277t-45.5 -177q0 -12 9.5 -28t9.5 -26q0 -41 -24 -71q-32 -39 -96 -39q-25 0 -43.5 16.5t-18.5 38.5q0 33 21 99q17 55 52 142q-56 -37 -90 -50.5t-86 -13.5q-46 0 -74 21q-32 24 -32 66q0 51 15 127t39 137q16 41 43.5 63t53.5 22
q13 0 24.5 -22.5t8.5 -41.5q-25 -79 -40.5 -133t-15.5 -78q0 -25 10 -38t36 -13q27 0 81 31q19 11 62 39q27 72 55 145q25 58 46.5 78.5t62.5 20.5q18 0 25 -13q4 -8 4 -25z" />
    <glyph glyph-name="multiply" unicode="&#x427;" horiz-adv-x="483" 
d="M572 625q-47 -141 -92.5 -277t-45.5 -177q0 -12 9.5 -28t9.5 -26q0 -41 -24 -71q-32 -39 -96 -39q-25 0 -43.5 16.5t-18.5 38.5q0 33 21 99q17 55 52 142q-56 -37 -90 -50.5t-86 -13.5q-46 0 -74 21q-32 24 -32 66q0 51 15 127t39 137q16 41 43.5 63t53.5 22
q13 0 24.5 -22.5t8.5 -41.5q-25 -79 -40.5 -133t-15.5 -78q0 -25 10 -38t36 -13q27 0 81 31q19 11 62 39q27 72 55 145q25 58 46.5 78.5t62.5 20.5q18 0 25 -13q4 -8 4 -25z" />
    <glyph glyph-name="Oslash" unicode="&#xd8;" horiz-adv-x="924" 
d="M500 101h188q38 111 65.5 197.5t55 188.5t32.5 112q22 48 70 48q23 0 33.5 -17t10.5 -52q-3 -33 -50 -204q-42 -154 -73 -252q-13 -43 -26 -85q-23 -44 -81 -44h-259q-102 0 -183.5 -11t-160.5 -24q-46 0 -70.5 10t-24.5 37q0 29 44 168q34 104 51 158l66 214
q40 104 94 104q14 0 30.5 -15.5t16.5 -34.5q0 -38 -50 -191q-26 -78 -51 -155q-18 -55 -34 -102q-20 -56 -28 -70q49 6 100 13t96 7q82 219 85 228q22 66 42 139q31 111 58.5 145t66.5 34q23 0 33.5 -17t10.5 -52q0 -17 -36 -114l-72 -194q-42 -120 -50 -169z" />
    <glyph glyph-name="Oslash" unicode="&#x428;" horiz-adv-x="924" 
d="M500 101h188q38 111 65.5 197.5t55 188.5t32.5 112q22 48 70 48q23 0 33.5 -17t10.5 -52q-3 -33 -50 -204q-42 -154 -73 -252q-13 -43 -26 -85q-23 -44 -81 -44h-259q-102 0 -183.5 -11t-160.5 -24q-46 0 -70.5 10t-24.5 37q0 29 44 168q34 104 51 158l66 214
q40 104 94 104q14 0 30.5 -15.5t16.5 -34.5q0 -38 -50 -191q-26 -78 -51 -155q-18 -55 -34 -102q-20 -56 -28 -70q49 6 100 13t96 7q82 219 85 228q22 66 42 139q31 111 58.5 145t66.5 34q23 0 33.5 -17t10.5 -52q0 -17 -36 -114l-72 -194q-42 -120 -50 -169z" />
    <glyph glyph-name="Ugrave" unicode="&#xd9;" horiz-adv-x="883" 
d="M462 112h198q20 65 40 131q7 24 36 123q23 80 36 128q29 107 34 117q22 48 70 48q23 0 33.5 -17t10.5 -52q-2 -19 -29.5 -116t-54.5 -194q-32 -115 -42 -168q39 0 55 -9q25 -14 25 -59q0 -29 -23 -93q-8 -21 -24 -59q-32 -75 -65 -75q-56 0 -64 43q-2 13 10 55
q9 33 19 66q-46 5 -116.5 8.5t-146.5 3.5q-84 0 -189.5 -8.5t-205.5 -17.5q-40 0 -54 6q-23 10 -23 43q0 18 18 81q9 33 77 246l66 214q40 104 94 104q14 0 30.5 -15.5t16.5 -34.5q0 -38 -50 -191q-26 -78 -51 -156q-16 -52 -33 -97q-22 -57 -27 -70q7 0 108 10q51 5 85 5
l128 368q31 111 58.5 145t66.5 34q23 0 33 -16.5t10 -52.5q0 -16 -32.5 -112t-70.5 -202q-48 -134 -57 -164z" />
    <glyph glyph-name="Ugrave" unicode="&#x429;" horiz-adv-x="883" 
d="M462 112h198q20 65 40 131q7 24 36 123q23 80 36 128q29 107 34 117q22 48 70 48q23 0 33.5 -17t10.5 -52q-2 -19 -29.5 -116t-54.5 -194q-32 -115 -42 -168q39 0 55 -9q25 -14 25 -59q0 -29 -23 -93q-8 -21 -24 -59q-32 -75 -65 -75q-56 0 -64 43q-2 13 10 55
q9 33 19 66q-46 5 -116.5 8.5t-146.5 3.5q-84 0 -189.5 -8.5t-205.5 -17.5q-40 0 -54 6q-23 10 -23 43q0 18 18 81q9 33 77 246l66 214q40 104 94 104q14 0 30.5 -15.5t16.5 -34.5q0 -38 -50 -191q-26 -78 -51 -156q-16 -52 -33 -97q-22 -57 -27 -70q7 0 108 10q51 5 85 5
l128 368q31 111 58.5 145t66.5 34q23 0 33 -16.5t10 -52.5q0 -16 -32.5 -112t-70.5 -202q-48 -134 -57 -164z" />
    <glyph glyph-name="Uacute" unicode="&#xda;" horiz-adv-x="559" 
d="M452 197q0 7 1 15.5t1 12.5q0 44 -20 69t-57 25q-11 0 -20 -1t-18.5 -1.5t-16.5 -0.5q-11 0 -37 1t-40 1q-15 -93 -44 -154q-11 -25 -13 -28q-9 -12 -32 -24q26 -14 49.5 -18.5t71.5 -4.5q81 0 130 38q39 31 45 70zM435 435q55 0 99 -47t44 -114q0 -135 -108 -225
q-103 -86 -248 -86q-82 0 -148 34.5t-66 82.5q0 14 16.5 28.5t32.5 14.5q-5 9 -5 24q0 30 24 84l42 90q26 60 50 121q19 49 39 99q-46 0 -69 9q-31 12 -26 40q7 39 47 66q55 37 155 37q37 0 46.5 -5t9.5 -21q-1 -11 -1 -18q0 -27 -50 -141q-13 -29 -37 -80q38 0 86 3.5
t67 3.5z" />
    <glyph glyph-name="Uacute" unicode="&#x42a;" horiz-adv-x="559" 
d="M452 197q0 7 1 15.5t1 12.5q0 44 -20 69t-57 25q-11 0 -20 -1t-18.5 -1.5t-16.5 -0.5q-11 0 -37 1t-40 1q-15 -93 -44 -154q-11 -25 -13 -28q-9 -12 -32 -24q26 -14 49.5 -18.5t71.5 -4.5q81 0 130 38q39 31 45 70zM435 435q55 0 99 -47t44 -114q0 -135 -108 -225
q-103 -86 -248 -86q-82 0 -148 34.5t-66 82.5q0 14 16.5 28.5t32.5 14.5q-5 9 -5 24q0 30 24 84l42 90q26 60 50 121q19 49 39 99q-46 0 -69 9q-31 12 -26 40q7 39 47 66q55 37 155 37q37 0 46.5 -5t9.5 -21q-1 -11 -1 -18q0 -27 -50 -141q-13 -29 -37 -80q38 0 86 3.5
t67 3.5z" />
    <glyph glyph-name="Ucircumflex" unicode="&#xdb;" horiz-adv-x="750" 
d="M425 197q0 7 1 15.5t1 12.5q0 44 -20 69t-57 25q-11 0 -20 -1t-18.5 -1.5t-15.5 -0.5q-12 0 -38 1t-40 1q-15 -93 -44 -154q-11 -25 -13 -28q-9 -12 -32 -24q26 -14 49.5 -18.5t71.5 -4.5q81 0 130 38q39 31 45 70zM408 435q55 0 99 -47t44 -114q0 -136 -107 -225
q-103 -86 -249 -86q-82 0 -148 34.5t-66 82.5q0 14 16.5 28.5t32.5 14.5q-5 9 -5 24q0 30 24 84l42 90q47 118 95 237q59 135 101 135q22 0 38.5 -11t16.5 -33q0 -27 -50 -141q-13 -29 -37 -80q38 0 86 3.5t67 3.5zM858 632q0 -15 -26 -88q-53 -148 -55 -154
q-34 -101 -46 -165q-2 -10 -3 -33t-1 -37v-47q0 -36 -32.5 -67.5t-70.5 -40.5q-25 -6 -43 22.5t-18 61.5q0 40 30.5 148.5t72.5 202.5l70 162q42 86 72 86q26 0 38 -14t12 -37z" />
    <glyph glyph-name="Ucircumflex" unicode="&#x42b;" horiz-adv-x="750" 
d="M425 197q0 7 1 15.5t1 12.5q0 44 -20 69t-57 25q-11 0 -20 -1t-18.5 -1.5t-15.5 -0.5q-12 0 -38 1t-40 1q-15 -93 -44 -154q-11 -25 -13 -28q-9 -12 -32 -24q26 -14 49.5 -18.5t71.5 -4.5q81 0 130 38q39 31 45 70zM408 435q55 0 99 -47t44 -114q0 -136 -107 -225
q-103 -86 -249 -86q-82 0 -148 34.5t-66 82.5q0 14 16.5 28.5t32.5 14.5q-5 9 -5 24q0 30 24 84l42 90q47 118 95 237q59 135 101 135q22 0 38.5 -11t16.5 -33q0 -27 -50 -141q-13 -29 -37 -80q38 0 86 3.5t67 3.5zM858 632q0 -15 -26 -88q-53 -148 -55 -154
q-34 -101 -46 -165q-2 -10 -3 -33t-1 -37v-47q0 -36 -32.5 -67.5t-70.5 -40.5q-25 -6 -43 22.5t-18 61.5q0 40 30.5 148.5t72.5 202.5l70 162q42 86 72 86q26 0 38 -14t12 -37z" />
    <glyph glyph-name="Udieresis" unicode="&#xdc;" horiz-adv-x="538" 
d="M432 197q0 7 1 15.5t1 12.5q0 44 -20 69t-57 25q-11 0 -20 -1t-18.5 -1.5t-15.5 -0.5q-12 0 -38 1t-40 1q-15 -93 -44 -154q-11 -25 -13 -28q-9 -12 -32 -24q26 -14 49.5 -18.5t71.5 -4.5q81 0 130 38q39 31 45 70zM415 435q55 0 99 -47t44 -114q0 -136 -107 -225
q-103 -86 -249 -86q-82 0 -148 34.5t-66 82.5q0 14 16.5 28.5t32.5 14.5q-5 9 -5 24q0 30 24 84l42 90q47 118 95 237q59 135 101 135q22 0 38.5 -11t16.5 -33q0 -27 -50 -141q-13 -29 -37 -80q38 0 86 3.5t67 3.5z" />
    <glyph glyph-name="Udieresis" unicode="&#x42c;" horiz-adv-x="538" 
d="M432 197q0 7 1 15.5t1 12.5q0 44 -20 69t-57 25q-11 0 -20 -1t-18.5 -1.5t-15.5 -0.5q-12 0 -38 1t-40 1q-15 -93 -44 -154q-11 -25 -13 -28q-9 -12 -32 -24q26 -14 49.5 -18.5t71.5 -4.5q81 0 130 38q39 31 45 70zM415 435q55 0 99 -47t44 -114q0 -136 -107 -225
q-103 -86 -249 -86q-82 0 -148 34.5t-66 82.5q0 14 16.5 28.5t32.5 14.5q-5 9 -5 24q0 30 24 84l42 90q47 118 95 237q59 135 101 135q22 0 38.5 -11t16.5 -33q0 -27 -50 -141q-13 -29 -37 -80q38 0 86 3.5t67 3.5z" />
    <glyph glyph-name="Yacute" unicode="&#xdd;" horiz-adv-x="507" 
d="M150 -4q-89 0 -135.5 22t-46.5 50q0 24 32.5 65.5t52.5 41.5q11 0 71 -28q30 -14 49 -14q77 0 162 84q98 97 98 225q0 57 -9 82q-15 42 -58 42q-19 0 -46.5 -16.5t-72.5 -61.5q-17 -17 -28 -26q-24 -20 -42 -20q-16 0 -41 23q-29 27 -32 59q0 43 120 117t168 74
q80 0 120 -40q47 -47 47 -170q0 -133 -60 -251q-45 -89 -123 -166q-54 -53 -104 -72.5t-122 -19.5zM402 344q0 -30 -18.5 -46.5t-45.5 -16.5q-15 0 -46 2t-42 2q-36 0 -64 -8q-9 -2 -21 -8q-28 0 -47 10.5t-19 31.5q0 50 74 78q59 22 137 22q47 0 64 -9q28 -15 28 -58z" />
    <glyph glyph-name="Yacute" unicode="&#x42d;" horiz-adv-x="507" 
d="M150 -4q-89 0 -135.5 22t-46.5 50q0 24 32.5 65.5t52.5 41.5q11 0 71 -28q30 -14 49 -14q77 0 162 84q98 97 98 225q0 57 -9 82q-15 42 -58 42q-19 0 -46.5 -16.5t-72.5 -61.5q-17 -17 -28 -26q-24 -20 -42 -20q-16 0 -41 23q-29 27 -32 59q0 43 120 117t168 74
q80 0 120 -40q47 -47 47 -170q0 -133 -60 -251q-45 -89 -123 -166q-54 -53 -104 -72.5t-122 -19.5zM402 344q0 -30 -18.5 -46.5t-45.5 -16.5q-15 0 -46 2t-42 2q-36 0 -64 -8q-9 -2 -21 -8q-28 0 -47 10.5t-19 31.5q0 50 74 78q59 22 137 22q47 0 64 -9q28 -15 28 -58z" />
    <glyph glyph-name="Thorn" unicode="&#xde;" horiz-adv-x="820" 
d="M764 459q0 33 -28.5 52.5t-81.5 19.5q-97 0 -157 -156q-44 -114 -44 -192q0 -34 18 -57t45 -23q105 0 181 126q67 111 67 230zM215 264q-16 -40 -23 -56q-12 -28 -20 -37q17 -26 19 -32q7 -16 7 -37q0 -29 -29 -65q-37 -46 -91 -46q-27 0 -48.5 18.5t-21.5 43.5
q0 20 41 112q35 78 45 104q0 8 -6 19q-14 25 -14 34q0 21 20 42q17 17 30 40q23 103 60 183q41 88 75 88q13 0 29.5 -17.5t16.5 -32.5q-8 -30 -13 -48q-36 -127 -43 -156q42 9 84 18.5t81 22.5q68 119 144 168q53 34 116 34q17 0 30.5 -1.5t30.5 -3.5q6 21 8 25q9 14 32 14
q29 0 75.5 -60.5t46.5 -96.5q0 -171 -79 -311q-68 -121 -178 -194q-99 -66 -186 -66q-49 0 -83 42t-34 99q0 67 2.5 112t12.5 89q-26 -8 -57 -19q-8 -3 -80 -29z" />
    <glyph glyph-name="Thorn" unicode="&#x42e;" horiz-adv-x="820" 
d="M764 459q0 33 -28.5 52.5t-81.5 19.5q-97 0 -157 -156q-44 -114 -44 -192q0 -34 18 -57t45 -23q105 0 181 126q67 111 67 230zM215 264q-16 -40 -23 -56q-12 -28 -20 -37q17 -26 19 -32q7 -16 7 -37q0 -29 -29 -65q-37 -46 -91 -46q-27 0 -48.5 18.5t-21.5 43.5
q0 20 41 112q35 78 45 104q0 8 -6 19q-14 25 -14 34q0 21 20 42q17 17 30 40q23 103 60 183q41 88 75 88q13 0 29.5 -17.5t16.5 -32.5q-8 -30 -13 -48q-36 -127 -43 -156q42 9 84 18.5t81 22.5q68 119 144 168q53 34 116 34q17 0 30.5 -1.5t30.5 -3.5q6 21 8 25q9 14 32 14
q29 0 75.5 -60.5t46.5 -96.5q0 -171 -79 -311q-68 -121 -178 -194q-99 -66 -186 -66q-49 0 -83 42t-34 99q0 67 2.5 112t12.5 89q-26 -8 -57 -19q-8 -3 -80 -29z" />
    <glyph glyph-name="germandbls" unicode="&#xdf;" horiz-adv-x="559" 
d="M232 488q-2 -18 -2 -24q0 -44 28 -62q24 -15 72 -15h113l67 157q-41 23 -122 23q-82 0 -120 -24q-31 -19 -36 -55zM105 411q0 134 99 211q92 72 239 72q83 0 149 -34.5t66 -82.5q0 -15 -16 -29t-34 -14q3 -9 3 -17q0 -20 -18 -59q-12 -26 -24 -51q-27 -62 -51 -125
q-31 -81 -41 -131q-2 -12 -2 -16q0 -12 18 -40q9 -14 9 -36q0 -29 -51 -51q-45 -19 -82 -19q-29 0 -41.5 20t-12.5 47q0 21 39 107q5 11 54 114h-78q-39 -61 -89 -120q-58 -68 -110 -106q-38 -26 -50 -34q-31 -19 -67 -19q-25 0 -41 34t-16 71q0 22 26 34q25 9 51 19
q52 24 91 53q47 35 77 76q-39 9 -66 40q-31 36 -31 86z" />
    <glyph glyph-name="germandbls" unicode="&#x42f;" horiz-adv-x="559" 
d="M232 488q-2 -18 -2 -24q0 -44 28 -62q24 -15 72 -15h113l67 157q-41 23 -122 23q-82 0 -120 -24q-31 -19 -36 -55zM105 411q0 134 99 211q92 72 239 72q83 0 149 -34.5t66 -82.5q0 -15 -16 -29t-34 -14q3 -9 3 -17q0 -20 -18 -59q-12 -26 -24 -51q-27 -62 -51 -125
q-31 -81 -41 -131q-2 -12 -2 -16q0 -12 18 -40q9 -14 9 -36q0 -29 -51 -51q-45 -19 -82 -19q-29 0 -41.5 20t-12.5 47q0 21 39 107q5 11 54 114h-78q-39 -61 -89 -120q-58 -68 -110 -106q-38 -26 -50 -34q-31 -19 -67 -19q-25 0 -41 34t-16 71q0 22 26 34q25 9 51 19
q52 24 91 53q47 35 77 76q-39 9 -66 40q-31 36 -31 86z" />
    <glyph glyph-name="agrave" unicode="&#xe0;" horiz-adv-x="607" 
d="M606 88q-4 -2 -128 -65q-69 -35 -87 -35q-30 0 -50 18t-20 42q0 31 7 71t10 59q-57 -53 -113 -106q-80 -67 -131 -67q-38 0 -66.5 26.5t-28.5 56.5q0 41 57 142q61 108 133 184q86 91 149 91q21 0 42 -12q29 -17 29 -44q13 18 26 37q17 19 35 19q23 0 38.5 -5.5
t15.5 -26.5q0 -34 -18 -99t-36 -128q-5 -19 -11 -51.5t-6 -48.5q0 -18 7 -18q12 0 85 29.5t83 29.5q22 0 30.5 -8.5t8.5 -26.5q0 -14 -20 -33.5t-41 -30.5zM321 392q-41 0 -115.5 -107.5t-74.5 -156.5q84 58 141 116q66 67 66 105q2 15 2 23q0 20 -19 20z" />
    <glyph glyph-name="agrave" unicode="&#x430;" horiz-adv-x="607" 
d="M606 88q-4 -2 -128 -65q-69 -35 -87 -35q-30 0 -50 18t-20 42q0 31 7 71t10 59q-57 -53 -113 -106q-80 -67 -131 -67q-38 0 -66.5 26.5t-28.5 56.5q0 41 57 142q61 108 133 184q86 91 149 91q21 0 42 -12q29 -17 29 -44q13 18 26 37q17 19 35 19q23 0 38.5 -5.5
t15.5 -26.5q0 -34 -18 -99t-36 -128q-5 -19 -11 -51.5t-6 -48.5q0 -18 7 -18q12 0 85 29.5t83 29.5q22 0 30.5 -8.5t8.5 -26.5q0 -14 -20 -33.5t-41 -30.5zM321 392q-41 0 -115.5 -107.5t-74.5 -156.5q84 58 141 116q66 67 66 105q2 15 2 23q0 20 -19 20z" />
    <glyph glyph-name="aacute" unicode="&#xe1;" horiz-adv-x="428" 
d="M332 328q0 57 -2.5 90.5t-10 77.5t-21.5 92q-10 33 -19.5 57.5t-16 43t-6.5 33.5q0 45 149 82q120 30 194 30q29 0 38 -5q16 -9 16 -38q0 -35 -43 -49q-56 -12 -82 -20l-136 -40q8 -21 19 -71.5t18 -102.5q14 -87 14 -165q0 -160 -83 -255t-216 -95q-50 0 -84 23
q-45 31 -45 96q0 66 29 144q22 60 50 100q63 90 106 126q31 26 56 26q14 0 26.5 -11.5t12.5 -26.5q0 -28 -40 -86t-78 -113q-42 -68 -42 -110q0 -21 12 -35t37 -14q56 0 104 78q44 72 44 138z" />
    <glyph glyph-name="aacute" unicode="&#x431;" horiz-adv-x="428" 
d="M332 328q0 57 -2.5 90.5t-10 77.5t-21.5 92q-10 33 -19.5 57.5t-16 43t-6.5 33.5q0 45 149 82q120 30 194 30q29 0 38 -5q16 -9 16 -38q0 -35 -43 -49q-56 -12 -82 -20l-136 -40q8 -21 19 -71.5t18 -102.5q14 -87 14 -165q0 -160 -83 -255t-216 -95q-50 0 -84 23
q-45 31 -45 96q0 66 29 144q22 60 50 100q63 90 106 126q31 26 56 26q14 0 26.5 -11.5t12.5 -26.5q0 -28 -40 -86t-78 -113q-42 -68 -42 -110q0 -21 12 -35t37 -14q56 0 104 78q44 72 44 138z" />
    <glyph glyph-name="acircumflex" unicode="&#xe2;" horiz-adv-x="497" 
d="M260 453q71 67 121 121q75 80 77 93.5t2 23.5q0 15 -11 15q-40 0 -104 -100q-24 -38 -85 -153zM402 411q29 0 50.5 -24.5t21.5 -65.5q0 -90 -46 -160q-31 -48 -109 -114q-33 -27 -60.5 -37t-79.5 -10q-49 0 -84 21q-45 27 -45 77q0 99 61.5 264.5t159.5 321.5
q52 82 124 130.5t146 48.5q52 0 71 -34q13 -24 13 -74q0 -45 -90 -154q-68 -82 -186 -200q-78 -76 -155 -152q-2 -8 -17 -42q-10 -24 -10 -39q0 -20 12.5 -34.5t36.5 -14.5q57 0 99 61q38 56 38 120q0 18 -4 30q-10 30 -10 37q0 21 19.5 32.5t43.5 11.5z" />
    <glyph glyph-name="acircumflex" unicode="&#x432;" horiz-adv-x="497" 
d="M260 453q71 67 121 121q75 80 77 93.5t2 23.5q0 15 -11 15q-40 0 -104 -100q-24 -38 -85 -153zM402 411q29 0 50.5 -24.5t21.5 -65.5q0 -90 -46 -160q-31 -48 -109 -114q-33 -27 -60.5 -37t-79.5 -10q-49 0 -84 21q-45 27 -45 77q0 99 61.5 264.5t159.5 321.5
q52 82 124 130.5t146 48.5q52 0 71 -34q13 -24 13 -74q0 -45 -90 -154q-68 -82 -186 -200q-78 -76 -155 -152q-2 -8 -17 -42q-10 -24 -10 -39q0 -20 12.5 -34.5t36.5 -14.5q57 0 99 61q38 56 38 120q0 18 -4 30q-10 30 -10 37q0 21 19.5 32.5t43.5 11.5z" />
    <glyph glyph-name="atilde" unicode="&#xe3;" horiz-adv-x="326" 
d="M97 323q-16 0 -36 25q-13 17 -13 32q0 41 71 93t123 52q43 0 75.5 -21t32.5 -57q0 -80 -40 -132q-18 -23 -70 -72l-66 -60q-29 -29 -29 -50q0 -12 15 -12q42 0 95.5 30t108.5 62q14 0 22 -10t8 -24q0 -46 -93.5 -115.5t-158.5 -69.5q-55 0 -96 31q-45 34 -45 84
q0 44 74 110q20 18 70 57q59 47 73 66q10 13 10 38q0 7 -12 7q-26 0 -60 -32t-59 -32z" />
    <glyph glyph-name="atilde" unicode="&#x433;" horiz-adv-x="326" 
d="M97 323q-16 0 -36 25q-13 17 -13 32q0 41 71 93t123 52q43 0 75.5 -21t32.5 -57q0 -80 -40 -132q-18 -23 -70 -72l-66 -60q-29 -29 -29 -50q0 -12 15 -12q42 0 95.5 30t108.5 62q14 0 22 -10t8 -24q0 -46 -93.5 -115.5t-158.5 -69.5q-55 0 -96 31q-45 34 -45 84
q0 44 74 110q20 18 70 57q59 47 73 66q10 13 10 38q0 7 -12 7q-26 0 -60 -32t-59 -32z" />
    <glyph glyph-name="adieresis" unicode="&#xe4;" horiz-adv-x="404" 
d="M439 337q-19 -93 -58 -166.5t-101 -126.5q-32 -26 -62.5 -36t-80.5 -10q-45 0 -81 35q-41 40 -47 107q0 65 26 132q17 43 45 87q45 69 91 109q56 49 99 49q13 0 25 -11t12 -28q0 -25 -55 -74q-33 -29 -45 -46q-38 -54 -58 -98.5t-20 -80.5q0 -22 13.5 -43t36.5 -21
q52 0 90 59q12 19 47 99q11 25 22.5 90t11.5 104q0 67 -24 104q-12 18 -63 62q-18 16 -120 66q-43 21 -58 38q-7 8 -7 24q0 22 14 41t36 19q18 0 72.5 -24t97.5 -53q62 -44 102 -111q46 -78 46 -167v-19.5t1 -22.5q0 -31 -1.5 -44.5t-6.5 -42.5z" />
    <glyph glyph-name="adieresis" unicode="&#x434;" horiz-adv-x="404" 
d="M439 337q-19 -93 -58 -166.5t-101 -126.5q-32 -26 -62.5 -36t-80.5 -10q-45 0 -81 35q-41 40 -47 107q0 65 26 132q17 43 45 87q45 69 91 109q56 49 99 49q13 0 25 -11t12 -28q0 -25 -55 -74q-33 -29 -45 -46q-38 -54 -58 -98.5t-20 -80.5q0 -22 13.5 -43t36.5 -21
q52 0 90 59q12 19 47 99q11 25 22.5 90t11.5 104q0 67 -24 104q-12 18 -63 62q-18 16 -120 66q-43 21 -58 38q-7 8 -7 24q0 22 14 41t36 19q18 0 72.5 -24t97.5 -53q62 -44 102 -111q46 -78 46 -167v-19.5t1 -22.5q0 -31 -1.5 -44.5t-6.5 -42.5z" />
    <glyph glyph-name="aring" unicode="&#xe5;" horiz-adv-x="411" 
d="M417 438q0 -45 -6 -66q-10 -37 -47 -85q-30 -43 -79 -75q-60 -33 -119 -66q2 -12 5.5 -18.5t11.5 -6.5q43 0 113 19t140 40q13 0 18.5 -9t5.5 -25q0 -35 -125 -93t-210 -58q-46 0 -77 53q-26 45 -26 94q0 136 99.5 258.5t206.5 122.5q40 0 64.5 -23.5t24.5 -61.5z
M289 407q-16 0 -26 -5.5t-31 -25.5q-20 -21 -44 -70q-13 -27 -31 -73q33 17 69 46q25 20 44 40q23 24 24 25q15 18 15 40q-3 8 -5 11q-7 12 -15 12z" />
    <glyph glyph-name="aring" unicode="&#x435;" horiz-adv-x="411" 
d="M417 438q0 -45 -6 -66q-10 -37 -47 -85q-30 -43 -79 -75q-60 -33 -119 -66q2 -12 5.5 -18.5t11.5 -6.5q43 0 113 19t140 40q13 0 18.5 -9t5.5 -25q0 -35 -125 -93t-210 -58q-46 0 -77 53q-26 45 -26 94q0 136 99.5 258.5t206.5 122.5q40 0 64.5 -23.5t24.5 -61.5z
M289 407q-16 0 -26 -5.5t-31 -25.5q-20 -21 -44 -70q-13 -27 -31 -73q33 17 69 46q25 20 44 40q23 24 24 25q15 18 15 40q-3 8 -5 11q-7 12 -15 12z" />
    <glyph glyph-name="ae" unicode="&#xe6;" horiz-adv-x="980" 
d="M282 147q-43 -66 -106.5 -104.5t-131.5 -38.5q-17 0 -33.5 31.5t-16.5 59.5q0 21 26.5 32.5t80 20.5t96.5 65.5t43 125.5q0 13 -2 20q-6 22 -25 22q-37 0 -64 -19q-27 -22 -53 -44q-20 0 -30 13t-10 29q0 37 56 90q65 62 137 62q48 0 77.5 -34.5t29.5 -86.5
q0 -21 -6.5 -45t-7.5 -28q29 22 50 42q46 42 48 44q19 17 50 59q56 78 67 78q30 0 40 -25q6 -15 6 -49q0 -20 -24.5 -106t-44.5 -145q31 33 94 91q78 72 129 111q39 34 84.5 56t85.5 22q26 0 47 -15.5t24 -42.5q0 -38 -20 -49q-15 -8 -62 -8q-49 0 -103 -70t-54 -139
q0 -15 11.5 -28t32.5 -13q55 0 118 20l118 44q18 0 22 -11.5t4 -23.5q0 -28 -98 -85q-109 -63 -203 -63q-48 0 -80 34t-32 85q0 7 4 48t7 66q-92 -115 -147 -176q-58 -65 -76 -65q-28 0 -45 10q-21 13 -21 39q0 28 37 128q32 86 61 149q-25 -21 -83 -79q-69 -69 -107 -104z
" />
    <glyph glyph-name="ae" unicode="&#x436;" horiz-adv-x="980" 
d="M282 147q-43 -66 -106.5 -104.5t-131.5 -38.5q-17 0 -33.5 31.5t-16.5 59.5q0 21 26.5 32.5t80 20.5t96.5 65.5t43 125.5q0 13 -2 20q-6 22 -25 22q-37 0 -64 -19q-27 -22 -53 -44q-20 0 -30 13t-10 29q0 37 56 90q65 62 137 62q48 0 77.5 -34.5t29.5 -86.5
q0 -21 -6.5 -45t-7.5 -28q29 22 50 42q46 42 48 44q19 17 50 59q56 78 67 78q30 0 40 -25q6 -15 6 -49q0 -20 -24.5 -106t-44.5 -145q31 33 94 91q78 72 129 111q39 34 84.5 56t85.5 22q26 0 47 -15.5t24 -42.5q0 -38 -20 -49q-15 -8 -62 -8q-49 0 -103 -70t-54 -139
q0 -15 11.5 -28t32.5 -13q55 0 118 20l118 44q18 0 22 -11.5t4 -23.5q0 -28 -98 -85q-109 -63 -203 -63q-48 0 -80 34t-32 85q0 7 4 48t7 66q-92 -115 -147 -176q-58 -65 -76 -65q-28 0 -45 10q-21 13 -21 39q0 28 37 128q32 86 61 149q-25 -21 -83 -79q-69 -69 -107 -104z
" />
    <glyph glyph-name="ccedilla" unicode="&#xe7;" horiz-adv-x="391" 
d="M128 128q-26 3 -34 15.5t-8 38.5q0 30 7 44t31 20q156 41 156 106q0 23 -9 41q-13 26 -38 26q-44 0 -81 -23q-38 -26 -76 -51q-15 0 -22 7q-10 10 -10 32q0 61 66 108t147 47q78 0 121 -53q36 -45 36 -104q0 -89 -75 -141q-52 -36 -131 -49q89 -24 124 -76
q30 -45 30 -118q0 -156 -113 -291t-239 -135q-73 0 -134 69t-61 149q0 12 30.5 42.5t51.5 30.5q19 0 52 -86t83 -86q23 0 69 33q58 42 93 101q46 78 46 173q0 68 -33 99q-25 24 -79 31z" />
    <glyph glyph-name="ccedilla" unicode="&#x437;" horiz-adv-x="391" 
d="M128 128q-26 3 -34 15.5t-8 38.5q0 30 7 44t31 20q156 41 156 106q0 23 -9 41q-13 26 -38 26q-44 0 -81 -23q-38 -26 -76 -51q-15 0 -22 7q-10 10 -10 32q0 61 66 108t147 47q78 0 121 -53q36 -45 36 -104q0 -89 -75 -141q-52 -36 -131 -49q89 -24 124 -76
q30 -45 30 -118q0 -156 -113 -291t-239 -135q-73 0 -134 69t-61 149q0 12 30.5 42.5t51.5 30.5q19 0 52 -86t83 -86q23 0 69 33q58 42 93 101q46 78 46 173q0 68 -33 99q-25 24 -79 31z" />
    <glyph glyph-name="egrave" unicode="&#xe8;" horiz-adv-x="567" 
d="M573 66q0 -20 -30 -49t-53 -29q-30 0 -54.5 19t-40 47.5t-22.5 54.5t-11 71q-83 -87 -84 -88q-50 -48 -94 -73q-55 -31 -110 -31q-23 0 -40.5 16.5t-15.5 37.5q0 34 30 134q22 74 27 91q35 113 69 170q43 71 94 71q13 0 24 -12t11 -21q-3 -26 -18 -61.5t-28.5 -66
t-31.5 -80.5t-20 -68v-15q0 -20 19 -20q29 0 103 75q39 41 79 82q31 93 75 135q32 31 67 31q19 0 28 -13t9 -34q0 -16 -38 -122q-19 -53 -19 -88q-1 -12 -1 -16q0 -38 24 -77q26 -36 52 -71z" />
    <glyph glyph-name="egrave" unicode="&#x438;" horiz-adv-x="567" 
d="M573 66q0 -20 -30 -49t-53 -29q-30 0 -54.5 19t-40 47.5t-22.5 54.5t-11 71q-83 -87 -84 -88q-50 -48 -94 -73q-55 -31 -110 -31q-23 0 -40.5 16.5t-15.5 37.5q0 34 30 134q22 74 27 91q35 113 69 170q43 71 94 71q13 0 24 -12t11 -21q-3 -26 -18 -61.5t-28.5 -66
t-31.5 -80.5t-20 -68v-15q0 -20 19 -20q29 0 103 75q39 41 79 82q31 93 75 135q32 31 67 31q19 0 28 -13t9 -34q0 -16 -38 -122q-19 -53 -19 -88q-1 -12 -1 -16q0 -38 24 -77q26 -36 52 -71z" />
    <glyph glyph-name="eacute" unicode="&#xe9;" horiz-adv-x="570" 
d="M573 66q0 -20 -30 -49t-53 -29q-30 0 -54.5 19t-40 47.5t-22.5 54.5t-11 71q-83 -87 -84 -88q-50 -48 -94 -73q-55 -31 -110 -31q-23 0 -40.5 16.5t-15.5 37.5q0 34 30 134q22 74 27 91q35 113 69 170q43 71 94 71q13 0 24 -12t11 -21q-3 -26 -18 -61.5t-28.5 -66
t-31.5 -80.5t-20 -68v-15q0 -20 19 -20q29 0 103 75q39 41 79 82q31 93 75 135q32 31 67 31q19 0 28 -13t9 -34q0 -16 -38 -122q-19 -53 -19 -88q-1 -12 -1 -16q0 -38 24 -77q26 -36 52 -71zM667 731q0 -35 -74.5 -81.5t-147.5 -46.5q-65 0 -99 43q-28 35 -28 85q3 23 17 37
q18 17 50 17q35 0 60 -41t37 -41q33 0 70 11t76 36q9 6 19 6q20 0 20 -25z" />
    <glyph glyph-name="eacute" unicode="&#x439;" horiz-adv-x="570" 
d="M573 66q0 -20 -30 -49t-53 -29q-30 0 -54.5 19t-40 47.5t-22.5 54.5t-11 71q-83 -87 -84 -88q-50 -48 -94 -73q-55 -31 -110 -31q-23 0 -40.5 16.5t-15.5 37.5q0 34 30 134q22 74 27 91q35 113 69 170q43 71 94 71q13 0 24 -12t11 -21q-3 -26 -18 -61.5t-28.5 -66
t-31.5 -80.5t-20 -68v-15q0 -20 19 -20q29 0 103 75q39 41 79 82q31 93 75 135q32 31 67 31q19 0 28 -13t9 -34q0 -16 -38 -122q-19 -53 -19 -88q-1 -12 -1 -16q0 -38 24 -77q26 -36 52 -71zM667 731q0 -35 -74.5 -81.5t-147.5 -46.5q-65 0 -99 43q-28 35 -28 85q3 23 17 37
q18 17 50 17q35 0 60 -41t37 -41q33 0 70 11t76 36q9 6 19 6q20 0 20 -25z" />
    <glyph glyph-name="ecircumflex" unicode="&#xea;" horiz-adv-x="521" 
d="M350 264q12 -45 54 -80q53 -36 75 -51q22 -13 44.5 -26t22.5 -23q3 -18 -29 -50t-62 -32q-46 0 -106 51.5t-92 109.5q-50 -57 -93 -94q-64 -56 -100 -56q-19 0 -28.5 16t-9.5 35q0 56 20 149t42 157q18 54 38 94q24 49 39 51q21 2 51.5 -14t28.5 -38q-2 -18 -25.5 -98.5
t-52.5 -167.5q51 66 100 123q66 77 114 120q60 54 89 54q24 0 29 -14t5 -51q0 -48 -32 -71q-33 -21 -54.5 -34t-42.5 -34q-1 -1 -25 -26z" />
    <glyph glyph-name="ecircumflex" unicode="&#x43a;" horiz-adv-x="521" 
d="M350 264q12 -45 54 -80q53 -36 75 -51q22 -13 44.5 -26t22.5 -23q3 -18 -29 -50t-62 -32q-46 0 -106 51.5t-92 109.5q-50 -57 -93 -94q-64 -56 -100 -56q-19 0 -28.5 16t-9.5 35q0 56 20 149t42 157q18 54 38 94q24 49 39 51q21 2 51.5 -14t28.5 -38q-2 -18 -25.5 -98.5
t-52.5 -167.5q51 66 100 123q66 77 114 120q60 54 89 54q24 0 29 -14t5 -51q0 -48 -32 -71q-33 -21 -54.5 -34t-42.5 -34q-1 -1 -25 -26z" />
    <glyph glyph-name="edieresis" unicode="&#xeb;" horiz-adv-x="504" 
d="M242 317q24 46 48 93q27 46 53 53q60 19 97 19q22 0 27 -13.5t5 -47.5q0 -25 -14 -114t-14 -124q0 -13 2 -29.5t28.5 -49.5t25.5 -40q-3 -13 -30 -39q-31 -30 -51 -30q-23 0 -54 32t-35.5 52.5t-5.5 46.5t-1 31q0 81 15 153q-38 -76 -63 -123q-45 -86 -70 -121
q-28 -39 -58 -55t-65 -16q-28 0 -57.5 13.5t-29.5 33.5q0 26 11.5 64.5t25.5 42.5q2 1 26.5 -3.5t36.5 -4.5q7 0 15 2q26 7 76 80q38 56 56 94z" />
    <glyph glyph-name="edieresis" unicode="&#x43b;" horiz-adv-x="504" 
d="M242 317q24 46 48 93q27 46 53 53q60 19 97 19q22 0 27 -13.5t5 -47.5q0 -25 -14 -114t-14 -124q0 -13 2 -29.5t28.5 -49.5t25.5 -40q-3 -13 -30 -39q-31 -30 -51 -30q-23 0 -54 32t-35.5 52.5t-5.5 46.5t-1 31q0 81 15 153q-38 -76 -63 -123q-45 -86 -70 -121
q-28 -39 -58 -55t-65 -16q-28 0 -57.5 13.5t-29.5 33.5q0 26 11.5 64.5t25.5 42.5q2 1 26.5 -3.5t36.5 -4.5q7 0 15 2q26 7 76 80q38 56 56 94z" />
    <glyph glyph-name="igrave" unicode="&#xec;" horiz-adv-x="810" 
d="M455 496q13 0 26.5 -20t13.5 -45q0 -38 -21 -156q-15 -74 -19 -100q96 149 158 232q66 89 90 89q20 0 33 -11.5t13 -35.5q0 -17 -6 -63t-6 -75q0 -11 -1 -42t-1 -38v-37q2 -30 9 -49t31.5 -40t24.5 -34q0 -20 -19 -53q-22 -38 -44 -38q-39 0 -69.5 19t-46.5 52
q-12 27 -16 60.5t-4 79.5v18q-50 -63 -100 -125q-83 -93 -129 -93q-22 0 -36 14q-18 18 -18 44l29 183q3 11 9 41.5t10 40.5q-36 -72 -67 -126q-46 -82 -75 -121.5t-58.5 -55.5t-64.5 -16q-29 0 -59 14q-35 17 -35 40q0 29 8 58q12 42 35 42q4 0 29.5 -4t33.5 -4q6 0 16 2
q26 7 76 80q37 55 57 94q36 67 64 109q43 63 63 68.5t31 5.5q6 0 17 -2t18 -2z" />
    <glyph glyph-name="igrave" unicode="&#x43c;" horiz-adv-x="810" 
d="M455 496q13 0 26.5 -20t13.5 -45q0 -38 -21 -156q-15 -74 -19 -100q96 149 158 232q66 89 90 89q20 0 33 -11.5t13 -35.5q0 -17 -6 -63t-6 -75q0 -11 -1 -42t-1 -38v-37q2 -30 9 -49t31.5 -40t24.5 -34q0 -20 -19 -53q-22 -38 -44 -38q-39 0 -69.5 19t-46.5 52
q-12 27 -16 60.5t-4 79.5v18q-50 -63 -100 -125q-83 -93 -129 -93q-22 0 -36 14q-18 18 -18 44l29 183q3 11 9 41.5t10 40.5q-36 -72 -67 -126q-46 -82 -75 -121.5t-58.5 -55.5t-64.5 -16q-29 0 -59 14q-35 17 -35 40q0 29 8 58q12 42 35 42q4 0 29.5 -4t33.5 -4q6 0 16 2
q26 7 76 80q37 55 57 94q36 67 64 109q43 63 63 68.5t31 5.5q6 0 17 -2t18 -2z" />
    <glyph glyph-name="iacute" unicode="&#xed;" horiz-adv-x="536" 
d="M84 278q16 53 32 92q23 55 45 94q28 49 43 51q21 2 50 -14t26 -38q-2 -8 -27 -73q-19 -48 -28 -74q50 9 96.5 15t75.5 6q22 69 49 126q11 24 37 39t45 15q18 0 23.5 -9t5.5 -28v-27q-22 -85 -43 -169t-21 -111q0 -29 13.5 -59.5t11.5 -38.5q-2 -14 -35.5 -43.5
t-57.5 -29.5q-25 0 -43.5 27.5t-23.5 61.5q-1 7 -1 22q0 36 10 89q-27 6 -56 6q-24 0 -73 -9q-10 -2 -58 -12q-6 -22 -13 -79q-2 -19 -7.5 -48t-38.5 -48q-28 -16 -57 -16q-18 0 -26.5 17t-8.5 35q3 29 7.5 52.5t13.5 60.5q-27 0 -43 10.5t-16 32.5q0 21 26 40.5t67 33.5z
" />
    <glyph glyph-name="iacute" unicode="&#x43d;" horiz-adv-x="536" 
d="M84 278q16 53 32 92q23 55 45 94q28 49 43 51q21 2 50 -14t26 -38q-2 -8 -27 -73q-19 -48 -28 -74q50 9 96.5 15t75.5 6q22 69 49 126q11 24 37 39t45 15q18 0 23.5 -9t5.5 -28v-27q-22 -85 -43 -169t-21 -111q0 -29 13.5 -59.5t11.5 -38.5q-2 -14 -35.5 -43.5
t-57.5 -29.5q-25 0 -43.5 27.5t-23.5 61.5q-1 7 -1 22q0 36 10 89q-27 6 -56 6q-24 0 -73 -9q-10 -2 -58 -12q-6 -22 -13 -79q-2 -19 -7.5 -48t-38.5 -48q-28 -16 -57 -16q-18 0 -26.5 17t-8.5 35q3 29 7.5 52.5t13.5 60.5q-27 0 -43 10.5t-16 32.5q0 21 26 40.5t67 33.5z
" />
    <glyph glyph-name="icircumflex" unicode="&#xee;" horiz-adv-x="448" 
d="M519 424q-26 -4 -64 -15q-28 -8 -42 -8q13 -18 17 -25q8 -12 8 -48q0 -89 -49 -169q-38 -62 -111 -124q-32 -27 -61 -37t-81 -10q-51 0 -84 23q-45 31 -45 97t29 144q22 61 49 99q64 91 106 126q31 26 57 26q12 0 25.5 -11.5t13.5 -25.5q0 -28 -40 -86t-79 -114
q-42 -68 -42 -109q0 -20 12.5 -34.5t36.5 -14.5q56 0 101 70q41 64 41 129q0 18 -11 59t-11 62q0 48 90 66q54 11 134 11q20 0 35 -6.5t15 -16.5q0 -20 -16 -38t-34 -20z" />
    <glyph glyph-name="icircumflex" unicode="&#x43e;" horiz-adv-x="448" 
d="M519 424q-26 -4 -64 -15q-28 -8 -42 -8q13 -18 17 -25q8 -12 8 -48q0 -89 -49 -169q-38 -62 -111 -124q-32 -27 -61 -37t-81 -10q-51 0 -84 23q-45 31 -45 97t29 144q22 61 49 99q64 91 106 126q31 26 57 26q12 0 25.5 -11.5t13.5 -25.5q0 -28 -40 -86t-79 -114
q-42 -68 -42 -109q0 -20 12.5 -34.5t36.5 -14.5q56 0 101 70q41 64 41 129q0 18 -11 59t-11 62q0 48 90 66q54 11 134 11q20 0 35 -6.5t15 -16.5q0 -20 -16 -38t-34 -20z" />
    <glyph glyph-name="idieresis" unicode="&#xef;" horiz-adv-x="514" 
d="M501 426q0 -29 -13.5 -119t-13.5 -122q0 -14 2 -31t25 -62q9 -18 8 -28q-4 -14 -36 -43.5t-55 -29.5q-26 0 -46.5 29t-27 60t-6.5 59q0 26 5 59t13 75q-36 -50 -85 -107q-41 -47 -73 -77q-59 -54 -71 -62q-37 -26 -74 -26q-19 0 -29.5 17t-10.5 36q0 59 20 151t42 156
t40 101q24 50 41 52q20 2 51.5 -15t28.5 -38q-1 -15 -27 -104t-51 -169q47 62 102 126q67 78 116 122q61 55 91 55q24 0 29 -14t5 -51z" />
    <glyph glyph-name="idieresis" unicode="&#x43f;" horiz-adv-x="514" 
d="M501 426q0 -29 -13.5 -119t-13.5 -122q0 -14 2 -31t25 -62q9 -18 8 -28q-4 -14 -36 -43.5t-55 -29.5q-26 0 -46.5 29t-27 60t-6.5 59q0 26 5 59t13 75q-36 -50 -85 -107q-41 -47 -73 -77q-59 -54 -71 -62q-37 -26 -74 -26q-19 0 -29.5 17t-10.5 36q0 59 20 151t42 156
t40 101q24 50 41 52q20 2 51.5 -15t28.5 -38q-1 -15 -27 -104t-51 -169q47 62 102 126q67 78 116 122q61 55 91 55q24 0 29 -14t5 -51z" />
    <glyph glyph-name="eth" unicode="&#xf0;" horiz-adv-x="480" 
d="M505 346q0 -98 -95 -221q-100 -130 -190 -130q-19 0 -44.5 11t-47.5 26q-10 -36 -22.5 -98.5t-15.5 -88.5t-7 -75.5t-6.5 -73t-15.5 -34.5t-52 -11q-36 0 -49 26q-9 19 -9 59q0 34 43 208q64 260 69 281q11 50 30 117t36 119q13 39 37 51q15 7 47 7q21 0 28 -9t7 -28
t-5 -42q41 35 69 53q49 31 81 31q61 0 86.5 -38t25.5 -140zM374 330q0 41 -3 52q-6 20 -25 20q-60 0 -98 -51q-24 -32 -58 -117q-11 -26 -23.5 -64.5t-16.5 -52.5q5 10 15.5 17.5t22.5 7.5q10 -1 23 -14t30 -13q41 0 87 80.5t46 134.5z" />
    <glyph glyph-name="eth" unicode="&#x440;" horiz-adv-x="480" 
d="M505 346q0 -98 -95 -221q-100 -130 -190 -130q-19 0 -44.5 11t-47.5 26q-10 -36 -22.5 -98.5t-15.5 -88.5t-7 -75.5t-6.5 -73t-15.5 -34.5t-52 -11q-36 0 -49 26q-9 19 -9 59q0 34 43 208q64 260 69 281q11 50 30 117t36 119q13 39 37 51q15 7 47 7q21 0 28 -9t7 -28
t-5 -42q41 35 69 53q49 31 81 31q61 0 86.5 -38t25.5 -140zM374 330q0 41 -3 52q-6 20 -25 20q-60 0 -98 -51q-24 -32 -58 -117q-11 -26 -23.5 -64.5t-16.5 -52.5q5 10 15.5 17.5t22.5 7.5q10 -1 23 -14t30 -13q41 0 87 80.5t46 134.5z" />
    <glyph glyph-name="ntilde" unicode="&#xf1;" horiz-adv-x="402" 
d="M441 183q0 -42 -89 -111q-108 -83 -234 -83q-51 0 -74 33.5t-23 88.5q0 27 15 77q20 65 51 112q60 86 127 143q82 69 149 69q29 0 52 -15.5t23 -42.5q0 -34 -26 -42q-41 -6 -70 -14q-60 -16 -119.5 -96t-59.5 -149q0 -25 23 -25q30 0 88 30q63 33 127 67q22 0 31 -12.5
t9 -29.5z" />
    <glyph glyph-name="ntilde" unicode="&#x441;" horiz-adv-x="402" 
d="M441 183q0 -42 -89 -111q-108 -83 -234 -83q-51 0 -74 33.5t-23 88.5q0 27 15 77q20 65 51 112q60 86 127 143q82 69 149 69q29 0 52 -15.5t23 -42.5q0 -34 -26 -42q-41 -6 -70 -14q-60 -16 -119.5 -96t-59.5 -149q0 -25 23 -25q30 0 88 30q63 33 127 67q22 0 31 -12.5
t9 -29.5z" />
    <glyph glyph-name="ograve" unicode="&#xf2;" horiz-adv-x="796" 
d="M723 -14q-38 0 -66.5 18.5t-42.5 50.5q-6 15 -8 33t-2 41q0 15 1 42.5t1 37.5l-106 -122q-88 -92 -133 -92q-28 0 -41 24q-9 16 -9 34l43 179q3 8 10 39.5t11 39.5q-7 -7 -73 -101q-69 -98 -119 -153q-73 -80 -116 -80q-28 0 -40.5 22t-12.5 50q10 43 17 69q15 57 38 137
q18 83 37 167q26 88 86 88q19 0 26.5 -9.5t7.5 -29.5q0 -8 -1.5 -21.5t-1.5 -16.5q0 -18 -28 -128q-10 -51 -20 -101q11 0 70 74q86 108 113 138q68 75 99 75q13 0 31 -19q22 -23 22 -46q-3 -29 -30 -147q-20 -84 -22 -95q40 50 81 101q69 86 117 138q64 70 83 70
t31.5 -11.5t12.5 -34.5q0 -16 -12 -45q-29 -70 -32 -93.5t-6 -57.5t-3 -58q0 -27 5.5 -46t27.5 -39t22 -33q0 -20 -21 -52q-24 -37 -47 -37z" />
    <glyph glyph-name="ograve" unicode="&#x442;" horiz-adv-x="796" 
d="M723 -14q-38 0 -66.5 18.5t-42.5 50.5q-6 15 -8 33t-2 41q0 15 1 42.5t1 37.5l-106 -122q-88 -92 -133 -92q-28 0 -41 24q-9 16 -9 34l43 179q3 8 10 39.5t11 39.5q-7 -7 -73 -101q-69 -98 -119 -153q-73 -80 -116 -80q-28 0 -40.5 22t-12.5 50q10 43 17 69q15 57 38 137
q18 83 37 167q26 88 86 88q19 0 26.5 -9.5t7.5 -29.5q0 -8 -1.5 -21.5t-1.5 -16.5q0 -18 -28 -128q-10 -51 -20 -101q11 0 70 74q86 108 113 138q68 75 99 75q13 0 31 -19q22 -23 22 -46q-3 -29 -30 -147q-20 -84 -22 -95q40 50 81 101q69 86 117 138q64 70 83 70
t31.5 -11.5t12.5 -34.5q0 -16 -12 -45q-29 -70 -32 -93.5t-6 -57.5t-3 -58q0 -27 5.5 -46t27.5 -39t22 -33q0 -20 -21 -52q-24 -37 -47 -37z" />
    <glyph glyph-name="oacute" unicode="&#xf3;" horiz-adv-x="489" 
d="M350 211q-14 -13 -88 -89q-63 -65 -96 -90q-54 -41 -92 -41q-28 0 -43 27t-15 60q0 120 56 265.5t105 145.5q19 0 31.5 -15.5t12.5 -34.5q0 -1 -40.5 -122.5t-40.5 -138.5q0 -18 4 -29.5t19 -11.5q23 0 108.5 106t129.5 196q9 20 29.5 33.5t38.5 13.5t24 -4q11 -8 11 -34
q0 -77 -44 -251q-30 -119 -59 -206q-22 -70 -43 -141q-43 -124 -95 -198q-70 -101 -152 -101q-59 0 -126 63q-73 69 -73 143q0 10 26 35.5t47 28.5q11 2 47.5 -73.5t95.5 -75.5q45 0 81 68q25 47 52 150q20 77 40 153q10 40 19.5 74t29.5 94z" />
    <glyph glyph-name="oacute" unicode="&#x443;" horiz-adv-x="489" 
d="M350 211q-14 -13 -88 -89q-63 -65 -96 -90q-54 -41 -92 -41q-28 0 -43 27t-15 60q0 120 56 265.5t105 145.5q19 0 31.5 -15.5t12.5 -34.5q0 -1 -40.5 -122.5t-40.5 -138.5q0 -18 4 -29.5t19 -11.5q23 0 108.5 106t129.5 196q9 20 29.5 33.5t38.5 13.5t24 -4q11 -8 11 -34
q0 -77 -44 -251q-30 -119 -59 -206q-22 -70 -43 -141q-43 -124 -95 -198q-70 -101 -152 -101q-59 0 -126 63q-73 69 -73 143q0 10 26 35.5t47 28.5q11 2 47.5 -73.5t95.5 -75.5q45 0 81 68q25 47 52 150q20 77 40 153q10 40 19.5 74t29.5 94z" />
    <glyph glyph-name="ocircumflex" unicode="&#xf4;" horiz-adv-x="737" 
d="M639 330q0 34 -5.5 44t-26.5 10q-37 0 -82 -43.5t-71 -106.5q-9 -22 -22 -62q-9 -28 -18 -55q6 10 16 17.5t23 7.5q9 -1 22 -14t30 -13q42 0 88 80t46 135zM366 384q-13 -13 -27 -14q-13 -2 -26.5 6t-17.5 8q-41 0 -108 -72q-72 -78 -72 -141q0 -30 22 -44q16 -10 34 -10
q31 0 110 73q14 13 48 45q8 36 15 66t22 83zM386 450q12 40 34.5 110.5t26.5 82.5q13 40 38 52q14 7 46 7q16 0 22 -7t6 -19q0 -4 -2 -17.5t-27 -96.5q-21 -72 -36 -117q53 31 85 44q40 16 75 16q48 0 80 -40q36 -45 36 -119q0 -98 -95 -221q-100 -130 -191 -130
q-22 0 -63 21q-12 6 -37 21q-12 -43 -30 -123q-21 -90 -23 -107.5t-2 -27.5q0 -13 4 -33t4 -33q0 -30 -23.5 -56.5t-60.5 -26.5q-28 0 -42 15q-17 19 -17 70q0 24 39 155q58 196 67 229q-45 -48 -80 -72q-46 -32 -87 -32q-55 0 -94.5 35.5t-39.5 86.5v26q0 45 7.5 80
t35.5 77q59 85 129 140q83 65 159 65q24 0 39 -19q10 -12 17 -36z" />
    <glyph glyph-name="ocircumflex" unicode="&#x444;" horiz-adv-x="737" 
d="M639 330q0 34 -5.5 44t-26.5 10q-37 0 -82 -43.5t-71 -106.5q-9 -22 -22 -62q-9 -28 -18 -55q6 10 16 17.5t23 7.5q9 -1 22 -14t30 -13q42 0 88 80t46 135zM366 384q-13 -13 -27 -14q-13 -2 -26.5 6t-17.5 8q-41 0 -108 -72q-72 -78 -72 -141q0 -30 22 -44q16 -10 34 -10
q31 0 110 73q14 13 48 45q8 36 15 66t22 83zM386 450q12 40 34.5 110.5t26.5 82.5q13 40 38 52q14 7 46 7q16 0 22 -7t6 -19q0 -4 -2 -17.5t-27 -96.5q-21 -72 -36 -117q53 31 85 44q40 16 75 16q48 0 80 -40q36 -45 36 -119q0 -98 -95 -221q-100 -130 -191 -130
q-22 0 -63 21q-12 6 -37 21q-12 -43 -30 -123q-21 -90 -23 -107.5t-2 -27.5q0 -13 4 -33t4 -33q0 -30 -23.5 -56.5t-60.5 -26.5q-28 0 -42 15q-17 19 -17 70q0 24 39 155q58 196 67 229q-45 -48 -80 -72q-46 -32 -87 -32q-55 0 -94.5 35.5t-39.5 86.5v26q0 45 7.5 80
t35.5 77q59 85 129 140q83 65 159 65q24 0 39 -19q10 -12 17 -36z" />
    <glyph glyph-name="otilde" unicode="&#xf5;" horiz-adv-x="484" 
d="M543 489q0 -33 -75 -107q-61 -58 -122 -115q21 -36 43 -71q27 -42 42 -42q45 5 45 -51q-1 -8 -1 -12q0 -44 -33 -70q-29 -23 -66 -23q-25 0 -73 74t-55 85q-47 -46 -65 -65q-41 -44 -44 -62q-9 -45 -24 -65q-21 -29 -61 -29q-22 0 -38 15q-20 18 -20 50q0 39 86 134
q19 21 113 115q-39 58 -103 122q-4 4 -42 29q-25 16 -25 39q0 16 30 45t54 29q35 0 78 -39t101 -124q104 109 131 131q52 43 81 43q17 0 30 -12t13 -24z" />
    <glyph glyph-name="otilde" unicode="&#x445;" horiz-adv-x="484" 
d="M543 489q0 -33 -75 -107q-61 -58 -122 -115q21 -36 43 -71q27 -42 42 -42q45 5 45 -51q-1 -8 -1 -12q0 -44 -33 -70q-29 -23 -66 -23q-25 0 -73 74t-55 85q-47 -46 -65 -65q-41 -44 -44 -62q-9 -45 -24 -65q-21 -29 -61 -29q-22 0 -38 15q-20 18 -20 50q0 39 86 134
q19 21 113 115q-39 58 -103 122q-4 4 -42 29q-25 16 -25 39q0 16 30 45t54 29q35 0 78 -39t101 -124q104 109 131 131q52 43 81 43q17 0 30 -12t13 -24z" />
    <glyph glyph-name="odieresis" unicode="&#xf6;" horiz-adv-x="559" 
d="M569 47q-23 -65 -35.5 -106.5t-12.5 -64.5q-1 -4 -1 -8v-6q0 -11 4 -30t2 -30q-3 -32 -22 -55q-22 -27 -57 -27q-36 0 -48 25q-8 16 -8 55q0 30 19 95.5t45 119.5q-17 -10 -42.5 -17.5t-48.5 -7.5q-8 1 -11 1q-27 4 -41 14q-18 14 -18 42q0 29 9 65q9 30 13 48
q-90 -103 -107 -117q-63 -54 -138 -54q-21 0 -39.5 15.5t-18.5 35.5q0 31 14 98q9 43 27 116q24 105 53 160q36 68 84 68q13 0 24.5 -10.5t11.5 -19.5q0 -31 -18 -78q-9 -23 -18 -45q-19 -57 -24 -74q-14 -48 -14 -67v-13q0 -19 20 -19q30 0 104 75q28 28 74 78
q24 88 55 125q24 28 54 28q17 0 27.5 -12.5t10.5 -31.5q0 -32 -13 -81q-2 -8 -28 -92q-8 -28 -16.5 -58.5t-8.5 -50.5q-1 -5 -1 -13q0 -27 16 -27q5 0 32 6.5t42 6.5q22 0 36 -15t14 -35q0 -4 -2 -12z" />
    <glyph glyph-name="odieresis" unicode="&#x446;" horiz-adv-x="559" 
d="M569 47q-23 -65 -35.5 -106.5t-12.5 -64.5q-1 -4 -1 -8v-6q0 -11 4 -30t2 -30q-3 -32 -22 -55q-22 -27 -57 -27q-36 0 -48 25q-8 16 -8 55q0 30 19 95.5t45 119.5q-17 -10 -42.5 -17.5t-48.5 -7.5q-8 1 -11 1q-27 4 -41 14q-18 14 -18 42q0 29 9 65q9 30 13 48
q-90 -103 -107 -117q-63 -54 -138 -54q-21 0 -39.5 15.5t-18.5 35.5q0 31 14 98q9 43 27 116q24 105 53 160q36 68 84 68q13 0 24.5 -10.5t11.5 -19.5q0 -31 -18 -78q-9 -23 -18 -45q-19 -57 -24 -74q-14 -48 -14 -67v-13q0 -19 20 -19q30 0 104 75q28 28 74 78
q24 88 55 125q24 28 54 28q17 0 27.5 -12.5t10.5 -31.5q0 -32 -13 -81q-2 -8 -28 -92q-8 -28 -16.5 -58.5t-8.5 -50.5q-1 -5 -1 -13q0 -27 16 -27q5 0 32 6.5t42 6.5q22 0 36 -15t14 -35q0 -4 -2 -12z" />
    <glyph glyph-name="divide" unicode="&#xf7;" horiz-adv-x="431" 
d="M36 325q9 55 42.5 117.5t51.5 62.5t36 -16t18 -37q0 -14 -21 -66t-21 -77q-2 -19 8 -32t34 -13q32 0 63 20q7 5 50 41q10 32 24 66q10 23 28 61q12 24 38.5 38.5t45.5 14.5q18 0 23.5 -8.5t5.5 -26.5q-1 -18 -1 -29q-31 -96 -51 -170q-23 -82 -23 -110q0 -27 12 -58
t10 -40q-4 -13 -39 -42.5t-58 -29.5q-25 0 -44 29t-19 62q-1 9 -1 15q0 19 4 43t10 51q-46 -26 -77 -36t-55 -10q-32 0 -63 29t-31 52q0 15 -1.5 38t-1.5 24q0 17 3 37z" />
    <glyph glyph-name="divide" unicode="&#x447;" horiz-adv-x="431" 
d="M36 325q9 55 42.5 117.5t51.5 62.5t36 -16t18 -37q0 -14 -21 -66t-21 -77q-2 -19 8 -32t34 -13q32 0 63 20q7 5 50 41q10 32 24 66q10 23 28 61q12 24 38.5 38.5t45.5 14.5q18 0 23.5 -8.5t5.5 -26.5q-1 -18 -1 -29q-31 -96 -51 -170q-23 -82 -23 -110q0 -27 12 -58
t10 -40q-4 -13 -39 -42.5t-58 -29.5q-25 0 -44 29t-19 62q-1 9 -1 15q0 19 4 43t10 51q-46 -26 -77 -36t-55 -10q-32 0 -63 29t-31 52q0 15 -1.5 38t-1.5 24q0 17 3 37z" />
    <glyph glyph-name="oslash" unicode="&#xf8;" horiz-adv-x="841" 
d="M331 171q-87 -99 -114 -122q-71 -60 -146 -60q-21 0 -39.5 15.5t-18.5 35.5q0 31 14 98q9 43 27 116q24 105 53 160q36 68 84 68q13 0 24.5 -10.5t11.5 -19.5q0 -31 -18 -78q-9 -23 -18 -45q-19 -57 -24 -74q-14 -48 -14 -67v-13q0 -19 20 -19q25 0 89 61q31 29 104 109
q23 73 50 110q32 44 71 44q13 0 24 -11t11 -20q0 -27 -18 -77q-9 -23 -17 -46q-18 -52 -24 -73q-14 -47 -14 -66v-14q0 -10 4 -15t16 -5q27 0 93 72q35 38 70 77q23 88 62 128q29 30 62 30q17 0 27 -13t10 -32q0 -15 -26 -116q-14 -54 -14 -86q0 -41 25 -80q28 -37 57 -73
q0 -20 -25.5 -46.5t-46.5 -26.5q-30 0 -54 17.5t-41 44.5t-25.5 52.5t-15.5 66.5q-55 -61 -75 -82q-47 -47 -85 -69q-49 -28 -102 -28q-21 0 -38.5 14.5t-17.5 33.5q0 20 4 45q1 4 18 89z" />
    <glyph glyph-name="oslash" unicode="&#x448;" horiz-adv-x="841" 
d="M331 171q-87 -99 -114 -122q-71 -60 -146 -60q-21 0 -39.5 15.5t-18.5 35.5q0 31 14 98q9 43 27 116q24 105 53 160q36 68 84 68q13 0 24.5 -10.5t11.5 -19.5q0 -31 -18 -78q-9 -23 -18 -45q-19 -57 -24 -74q-14 -48 -14 -67v-13q0 -19 20 -19q25 0 89 61q31 29 104 109
q23 73 50 110q32 44 71 44q13 0 24 -11t11 -20q0 -27 -18 -77q-9 -23 -17 -46q-18 -52 -24 -73q-14 -47 -14 -66v-14q0 -10 4 -15t16 -5q27 0 93 72q35 38 70 77q23 88 62 128q29 30 62 30q17 0 27 -13t10 -32q0 -15 -26 -116q-14 -54 -14 -86q0 -41 25 -80q28 -37 57 -73
q0 -20 -25.5 -46.5t-46.5 -26.5q-30 0 -54 17.5t-41 44.5t-25.5 52.5t-15.5 66.5q-55 -61 -75 -82q-47 -47 -85 -69q-49 -28 -102 -28q-21 0 -38.5 14.5t-17.5 33.5q0 20 4 45q1 4 18 89z" />
    <glyph glyph-name="ugrave" unicode="&#xf9;" horiz-adv-x="825" 
d="M627 0q-26 0 -43.5 13t-17.5 42q0 19 4 40q0 1 19 73q-87 -98 -107 -115q-64 -55 -138 -55q-21 0 -39 15t-18 36q0 17 6 52.5t14 66.5q-92 -102 -107 -115q-64 -55 -138 -55q-21 0 -39 15t-18 36q0 25 8 69q2 9 31 144q26 106 55 161q37 68 84 68q13 0 24 -11t11 -20
q0 -28 -18 -77q-9 -23 -17 -45q-14 -35 -25 -73q-14 -48 -14 -67q0 -21 2.5 -27t18.5 -6q25 0 79 51q16 15 99 102q20 76 49 121q34 52 72 52q13 0 24.5 -10.5t11.5 -20.5q0 -30 -18 -77q-9 -23 -18 -45q-22 -71 -23 -73q-14 -49 -14 -67v-13q0 -10 4 -15t16 -5q29 0 104 75
q13 13 74 78q23 89 54 126q24 28 55 28q17 0 27 -13t10 -32q0 -27 -7 -59q-1 -5 -33 -114q-8 -28 -15 -55q-10 -36 -12 -55q-1 -16 3.5 -28t13.5 -12q8 0 29 7t43 7t36.5 -14.5t14.5 -34.5q0 -4 -2 -14q-21 -65 -34 -108.5t-15 -62.5q0 -17 4 -36t4 -26t-2 -25t-21 -41
q-22 -27 -57 -27q-36 0 -48 24q-8 16 -8 56q0 28 17 84.5t47 131.5q-21 -12 -47.5 -18.5t-54.5 -6.5z" />
    <glyph glyph-name="ugrave" unicode="&#x449;" horiz-adv-x="825" 
d="M627 0q-26 0 -43.5 13t-17.5 42q0 19 4 40q0 1 19 73q-87 -98 -107 -115q-64 -55 -138 -55q-21 0 -39 15t-18 36q0 17 6 52.5t14 66.5q-92 -102 -107 -115q-64 -55 -138 -55q-21 0 -39 15t-18 36q0 25 8 69q2 9 31 144q26 106 55 161q37 68 84 68q13 0 24 -11t11 -20
q0 -28 -18 -77q-9 -23 -17 -45q-14 -35 -25 -73q-14 -48 -14 -67q0 -21 2.5 -27t18.5 -6q25 0 79 51q16 15 99 102q20 76 49 121q34 52 72 52q13 0 24.5 -10.5t11.5 -20.5q0 -30 -18 -77q-9 -23 -18 -45q-22 -71 -23 -73q-14 -49 -14 -67v-13q0 -10 4 -15t16 -5q29 0 104 75
q13 13 74 78q23 89 54 126q24 28 55 28q17 0 27 -13t10 -32q0 -27 -7 -59q-1 -5 -33 -114q-8 -28 -15 -55q-10 -36 -12 -55q-1 -16 3.5 -28t13.5 -12q8 0 29 7t43 7t36.5 -14.5t14.5 -34.5q0 -4 -2 -14q-21 -65 -34 -108.5t-15 -62.5q0 -17 4 -36t4 -26t-2 -25t-21 -41
q-22 -27 -57 -27q-36 0 -48 24q-8 16 -8 56q0 28 17 84.5t47 131.5q-21 -12 -47.5 -18.5t-54.5 -6.5z" />
    <glyph glyph-name="uacute" unicode="&#xfa;" horiz-adv-x="518" 
d="M353 281q-18 0 -45.5 -13t-40.5 -28q-10 -28 -19 -55t-9 -41q0 -17 12.5 -28.5t43.5 -11.5q39 0 73 46q29 39 29 65q0 35 -10.5 50.5t-33.5 15.5zM435 380q40 0 63 -39q19 -32 19 -70q0 -99 -61 -170q-47 -55 -127 -89q-62 -26 -102 -26q-43 0 -82 31t-39 71q0 34 25 99
q22 56 26 70q11 38 25.5 81t19.5 61q-19 -6 -48 -12t-48 -6q-30 0 -48 8q-33 15 -33 57q-1 13 -1 21q0 21 9.5 34.5t39.5 13.5q22 0 46.5 -14.5t51.5 -14.5q14 0 62 32t64 32q19 0 30.5 -9.5t11.5 -25.5t-19 -88q-15 -55 -25 -89q33 23 67 32.5t73 9.5z" />
    <glyph glyph-name="uacute" unicode="&#x44a;" horiz-adv-x="518" 
d="M353 281q-18 0 -45.5 -13t-40.5 -28q-10 -28 -19 -55t-9 -41q0 -17 12.5 -28.5t43.5 -11.5q39 0 73 46q29 39 29 65q0 35 -10.5 50.5t-33.5 15.5zM435 380q40 0 63 -39q19 -32 19 -70q0 -99 -61 -170q-47 -55 -127 -89q-62 -26 -102 -26q-43 0 -82 31t-39 71q0 34 25 99
q22 56 26 70q11 38 25.5 81t19.5 61q-19 -6 -48 -12t-48 -6q-30 0 -48 8q-33 15 -33 57q-1 13 -1 21q0 21 9.5 34.5t39.5 13.5q22 0 46.5 -14.5t51.5 -14.5q14 0 62 32t64 32q19 0 30.5 -9.5t11.5 -25.5t-19 -88q-15 -55 -25 -89q33 23 67 32.5t73 9.5z" />
    <glyph glyph-name="ucircumflex" unicode="&#xfb;" horiz-adv-x="687" 
d="M578 454q23 22 42 33t43 11q18 0 26.5 -16t8.5 -37q0 -23 -31.5 -122.5t-31.5 -142.5q0 -20 22.5 -40.5t22.5 -38.5q0 -30 -27 -73.5t-48 -43.5q-39 0 -67 36q-31 40 -31 106q0 39 14 101q6 25 25 96q-6 -5 -71 -48q-31 -20 -47 -34q0 -32 -7.5 -62t-22.5 -67
q-24 -60 -85 -94t-150 -34q-49 0 -99.5 42.5t-50.5 85.5q0 58 18 121q6 23 67 171q20 45 48 71q33 30 73 30q13 0 22 -18.5t9 -32.5q0 -11 -11 -34q-39 -84 -49 -111q-13 -35 -24 -73q-17 -59 -17 -86q0 -24 26 -33q15 -5 44 -5q33 0 60 28q31 32 31 82q-4 -1 -11 -1
q-25 0 -41.5 21t-16.5 45q0 32 21 63q25 37 62 37q63 0 88 -42q38 14 83.5 44t82.5 65z" />
    <glyph glyph-name="ucircumflex" unicode="&#x44b;" horiz-adv-x="687" 
d="M578 454q23 22 42 33t43 11q18 0 26.5 -16t8.5 -37q0 -23 -31.5 -122.5t-31.5 -142.5q0 -20 22.5 -40.5t22.5 -38.5q0 -30 -27 -73.5t-48 -43.5q-39 0 -67 36q-31 40 -31 106q0 39 14 101q6 25 25 96q-6 -5 -71 -48q-31 -20 -47 -34q0 -32 -7.5 -62t-22.5 -67
q-24 -60 -85 -94t-150 -34q-49 0 -99.5 42.5t-50.5 85.5q0 58 18 121q6 23 67 171q20 45 48 71q33 30 73 30q13 0 22 -18.5t9 -32.5q0 -11 -11 -34q-39 -84 -49 -111q-13 -35 -24 -73q-17 -59 -17 -86q0 -24 26 -33q15 -5 44 -5q33 0 60 28q31 32 31 82q-4 -1 -11 -1
q-25 0 -41.5 21t-16.5 45q0 32 21 63q25 37 62 37q63 0 88 -42q38 14 83.5 44t82.5 65z" />
    <glyph glyph-name="udieresis" unicode="&#xfc;" horiz-adv-x="438" 
d="M264 281q-18 0 -45.5 -13t-40.5 -28q-10 -28 -19 -55t-9 -41q0 -17 12.5 -28.5t43.5 -11.5q39 0 73 46q29 39 29 65q0 35 -10.5 50.5t-33.5 15.5zM346 380q40 0 63 -39q19 -32 19 -70q0 -99 -61 -170q-47 -55 -127 -89q-62 -26 -102 -26q-43 0 -81 30.5t-38 70.5
q0 48 17 103q9 30 32 81q17 45 31 82q26 69 51 116q12 23 29 34.5t43 11.5q21 0 31.5 -6.5t10.5 -28.5q0 -11 -16 -48l-42 -94q33 23 67 32.5t73 9.5z" />
    <glyph glyph-name="udieresis" unicode="&#x44c;" horiz-adv-x="438" 
d="M264 281q-18 0 -45.5 -13t-40.5 -28q-10 -28 -19 -55t-9 -41q0 -17 12.5 -28.5t43.5 -11.5q39 0 73 46q29 39 29 65q0 35 -10.5 50.5t-33.5 15.5zM346 380q40 0 63 -39q19 -32 19 -70q0 -99 -61 -170q-47 -55 -127 -89q-62 -26 -102 -26q-43 0 -81 30.5t-38 70.5
q0 48 17 103q9 30 32 81q17 45 31 82q26 69 51 116q12 23 29 34.5t43 11.5q21 0 31.5 -6.5t10.5 -28.5q0 -11 -16 -48l-42 -94q33 23 67 32.5t73 9.5z" />
    <glyph glyph-name="yacute" unicode="&#xfd;" horiz-adv-x="466" 
d="M234 197q-45 0 -71 -9q-4 -1 -11 -5q-30 0 -47.5 10t-17.5 32q0 48 70 67q45 12 133 12q31 0 44 -9q13 -13 21 -20q5 20 7 26q8 23 5 34q0 28 -8 44q-16 33 -62 33q-30 0 -59.5 -8.5t-60.5 -17.5q-23 0 -35 13t-12 29q0 30 56 60t128 30q77 0 118 -52q31 -40 38 -100
q1 -4 1 -11v-14q0 -42 -7 -83q-10 -55 -31 -94q-43 -79 -110 -129.5t-138 -50.5q-62 0 -105 15q-55 19 -55 55q0 33 8 53q13 31 42 31q27 0 53 -15t57 -15q51 0 87 26q30 21 54 65z" />
    <glyph glyph-name="yacute" unicode="&#x44d;" horiz-adv-x="466" 
d="M234 197q-45 0 -71 -9q-4 -1 -11 -5q-30 0 -47.5 10t-17.5 32q0 48 70 67q45 12 133 12q31 0 44 -9q13 -13 21 -20q5 20 7 26q8 23 5 34q0 28 -8 44q-16 33 -62 33q-30 0 -59.5 -8.5t-60.5 -17.5q-23 0 -35 13t-12 29q0 30 56 60t128 30q77 0 118 -52q31 -40 38 -100
q1 -4 1 -11v-14q0 -42 -7 -83q-10 -55 -31 -94q-43 -79 -110 -129.5t-138 -50.5q-62 0 -105 15q-55 19 -55 55q0 33 8 53q13 31 42 31q27 0 53 -15t57 -15q51 0 87 26q30 21 54 65z" />
    <glyph glyph-name="thorn" unicode="&#xfe;" horiz-adv-x="708" 
d="M191 171q-6 -27 -8.5 -71t-3.5 -53q-4 -32 -35 -51q-26 -16 -56 -16q-18 0 -28.5 17t-10.5 35q0 43 13 113q-28 0 -45 10.5t-17 31.5q0 23 23 41.5t65 33.5q12 53 25 91q22 63 38 95q24 49 40 50q20 3 51 -13.5t28 -37.5q0 -11 -20 -73l-24 -74q37 7 61.5 9t47.5 2h14
q4 7 14.5 23.5t12.5 18.5q62 89 132 137q52 36 82 36q13 0 25.5 -11.5t12.5 -25.5q0 -24 -39 -58l-30 -24q-41 -37 -86 -108q-56 -88 -56 -140q0 -22 12 -35.5t37 -13.5q55 0 100 70q41 64 41 129q0 13 -10.5 44.5t-10.5 45.5q0 12 3.5 20t15.5 15t29 7q19 0 35.5 -9.5
t34.5 -29.5t19 -22q5 -11 5 -50q0 -91 -48 -169q-37 -60 -111 -124q-32 -26 -62.5 -36t-80.5 -10t-84 23q-45 31 -45 96q0 16 2 39.5t5 42.5z" />
    <glyph glyph-name="thorn" unicode="&#x44e;" horiz-adv-x="708" 
d="M191 171q-6 -27 -8.5 -71t-3.5 -53q-4 -32 -35 -51q-26 -16 -56 -16q-18 0 -28.5 17t-10.5 35q0 43 13 113q-28 0 -45 10.5t-17 31.5q0 23 23 41.5t65 33.5q12 53 25 91q22 63 38 95q24 49 40 50q20 3 51 -13.5t28 -37.5q0 -11 -20 -73l-24 -74q37 7 61.5 9t47.5 2h14
q4 7 14.5 23.5t12.5 18.5q62 89 132 137q52 36 82 36q13 0 25.5 -11.5t12.5 -25.5q0 -24 -39 -58l-30 -24q-41 -37 -86 -108q-56 -88 -56 -140q0 -22 12 -35.5t37 -13.5q55 0 100 70q41 64 41 129q0 13 -10.5 44.5t-10.5 45.5q0 12 3.5 20t15.5 15t29 7q19 0 35.5 -9.5
t34.5 -29.5t19 -22q5 -11 5 -50q0 -91 -48 -169q-37 -60 -111 -124q-32 -26 -62.5 -36t-80.5 -10t-84 23q-45 31 -45 96q0 16 2 39.5t5 42.5z" />
    <glyph glyph-name="ydieresis" unicode="&#xff;" horiz-adv-x="518" 
d="M140 374q9 41 67 79q48 31 100 45q43 13 75.5 17.5t64.5 4.5q16 0 33.5 -1.5t37.5 -2.5q15 0 26 -18.5t8 -36.5q-1 -14 -11 -23.5t-22 -13.5q-16 -51 -34.5 -135t-21 -109t-2.5 -29v-6q0 -20 12.5 -40t12.5 -39q0 -13 -42 -40.5t-68 -27.5q-25 0 -36 28t-11 64
q0 40 15 100q-30 -37 -70 -79q-34 -36 -61 -60q-35 -30 -59.5 -41.5t-58.5 -11.5q-32 0 -71.5 28t-34.5 49q6 25 26.5 53.5t35.5 28.5q9 0 26 -8q38 -18 48 -18q23 0 57 25q26 19 59 53q-33 6 -64 36q-41 40 -41 95q0 8 1.5 18t2.5 16zM411 417q-8 0 -24 2.5t-21 2.5
q-9 0 -22 -2t-49.5 -24t-39.5 -39t-3 -27q0 -14 6 -20q10 -6 15 -10q15 -12 50 -12q11 0 25 1.5t22 2.5z" />
    <glyph glyph-name="ydieresis" unicode="&#x44f;" horiz-adv-x="518" 
d="M140 374q9 41 67 79q48 31 100 45q43 13 75.5 17.5t64.5 4.5q16 0 33.5 -1.5t37.5 -2.5q15 0 26 -18.5t8 -36.5q-1 -14 -11 -23.5t-22 -13.5q-16 -51 -34.5 -135t-21 -109t-2.5 -29v-6q0 -20 12.5 -40t12.5 -39q0 -13 -42 -40.5t-68 -27.5q-25 0 -36 28t-11 64
q0 40 15 100q-30 -37 -70 -79q-34 -36 -61 -60q-35 -30 -59.5 -41.5t-58.5 -11.5q-32 0 -71.5 28t-34.5 49q6 25 26.5 53.5t35.5 28.5q9 0 26 -8q38 -18 48 -18q23 0 57 25q26 19 59 53q-33 6 -64 36q-41 40 -41 95q0 8 1.5 18t2.5 16zM411 417q-8 0 -24 2.5t-21 2.5
q-9 0 -22 -2t-49.5 -24t-39.5 -39t-3 -27q0 -14 6 -20q10 -6 15 -10q15 -12 50 -12q11 0 25 1.5t22 2.5z" />
    <glyph glyph-name="dotlessi" unicode="&#x131;" horiz-adv-x="263" 
d="M236 441q0 -31 -33 -123q-11 -30 -33 -86q-1 -5 -1 -14q0 -17 8.5 -42.5t8.5 -33.5q0 -18 -15 -52q-39 -88 -101 -88q-31 0 -43 30q-8 20 -8 58q0 27 26 123q30 109 67 189q46 99 86 99q19 0 28.5 -17t9.5 -43z" />
    <glyph glyph-name="OE" unicode="&#x152;" horiz-adv-x="822" 
d="M711 188q0 7 1 15t1 12q0 94 -94 94q-24 0 -49.5 -1.5t-35.5 -1.5q-15 -93 -44 -154q-11 -25 -13 -28q-9 -12 -32 -24q26 -14 49.5 -18.5t71.5 -4.5q79 0 115 40q23 26 30 71zM603 681q22 0 38.5 -11t16.5 -33q0 -27 -50 -141q-13 -29 -37 -80q33 0 64 5t59 5
q55 0 99 -47t44 -114q0 -138 -92 -226t-234 -88q-82 0 -148 34.5t-66 82.5q0 14 16.5 28.5t32.5 14.5q-4 8 -4 22q0 27 22 75q8 18 42 83q-41 -4 -81 -11q-89 -15 -104 -16q-16 -40 -23 -56q-12 -28 -20 -37q17 -26 19 -32q7 -16 7 -37q0 -29 -29 -65q-37 -46 -91 -46
q-27 0 -48.5 18.5t-21.5 43.5q0 19 41 112q31 70 44 104q1 10 -9 26.5t-10 26.5q0 21 6 29q1 1 42 29q51 131 77 184q53 109 85 109q15 0 31 -16t16 -35q0 -44 -45 -146q-30 -64 -40 -88q45 4 106 12q11 1 85 12q60 155 100 217q34 52 60 52z" />
    <glyph glyph-name="oe" unicode="&#x153;" horiz-adv-x="727" 
d="M573 281q-18 0 -45.5 -13t-40.5 -28q-10 -28 -19 -55t-9 -41q0 -17 12.5 -28.5t43.5 -11.5q39 0 73 46q29 39 29 65q0 35 -10.5 50.5t-33.5 15.5zM180 187q-6 -22 -13 -79q-2 -19 -7.5 -48t-38.5 -48q-28 -16 -57 -16q-18 0 -26.5 17t-8.5 35q3 29 7.5 52.5t13.5 60.5
q-27 0 -43 10.5t-16 32.5q0 21 26 40.5t67 33.5q16 53 32 92q23 55 45 94q28 49 43 51q21 2 50 -14t26 -38q-2 -8 -27 -73q-19 -48 -28 -74q50 9 96.5 15t75.5 6q9 24 20 47.5t42 84.5q12 23 29 34.5t43 11.5q21 0 31.5 -6.5t10.5 -28.5q0 -11 -16 -48l-42 -94
q33 23 67 32.5t73 9.5q40 0 63 -39q19 -32 19 -70q0 -99 -61 -170q-47 -55 -127 -89q-62 -26 -102 -26q-43 0 -81 30.5t-38 70.5q0 69 20 123q-35 0 -65.5 -4t-102.5 -19z" />
    <glyph glyph-name="Scaron" unicode="&#x160;" horiz-adv-x="784" 
d="M636 423q57 0 114 -48q63 -53 63 -117q0 -141 -72.5 -217.5t-212.5 -76.5q-54 0 -91 29q-31 25 -44 64q-16 49 -16 112q0 18 1 41t3 42t20 205q7 76 9 90q-9 -14 -63 -127q-35 -74 -48 -102q-111 -236 -162 -289q-33 -34 -64 -45q-20 -7 -53 -7q-26 0 -38.5 30.5
t-12.5 69.5q0 25 30 35q17 5 35 11q44 15 96 87q38 53 84 142q60 121 121 242q70 123 125 123q44 0 59 -26q10 -17 10 -53v-17q0 -26 -4 -69q-12 -128 -12 -156q34 18 56.5 22.5t66.5 4.5zM510 321q0 -34 -2.5 -66t-4.5 -57q0 -42 7 -63q14 -42 51 -42q60 0 105 35
q54 42 54 118q0 45 -28 63q-14 9 -62 21q-11 3 -22 3q-15 0 -48 -6t-50 -6z" />
    <glyph glyph-name="scaron" unicode="&#x161;" horiz-adv-x="667" 
d="M525 263q-18 0 -45.5 -13t-40.5 -28q-10 -28 -19 -55t-9 -41q0 -17 12.5 -28.5t43.5 -11.5q39 0 73 46q29 39 29 65q0 35 -10.5 50.5t-33.5 15.5zM208 81q-62 -71 -123 -71q-28 0 -57.5 13.5t-29.5 33.5q0 26 11.5 64.5t25.5 42.5q2 1 26.5 -3.5t36.5 -4.5q7 0 15 2
q28 8 94 81q61 68 74 96q24 46 48 93q27 46 53 53q31 10 52 13t49 3q21 0 31.5 -6.5t10.5 -28.5q0 -11 -16 -48l-42 -94q33 23 67 32.5t73 9.5q40 0 63 -39q19 -32 19 -70q0 -99 -61 -170q-47 -55 -127 -89q-62 -26 -102 -26q-45 0 -82.5 29t-37.5 69q0 55 25 123
q18 44 25 64q-31 -50 -55 -85q-38 -55 -66 -87z" />
    <glyph glyph-name="Ydieresis" unicode="&#x178;" horiz-adv-x="567" 
d="M573 66q0 -20 -30 -49t-53 -29q-30 0 -54.5 19t-40 47.5t-22.5 54.5t-11 71q-83 -87 -84 -88q-50 -48 -94 -73q-55 -31 -110 -31q-23 0 -40.5 16.5t-15.5 37.5q0 34 30 134q22 74 27 91q35 113 69 170q43 71 94 71q13 0 24 -12t11 -21q-3 -26 -18 -61.5t-28.5 -66
t-31.5 -80.5t-20 -68v-15q0 -20 19 -20q29 0 103 75q39 41 79 82q31 93 75 135q32 31 67 31q19 0 28 -13t9 -34q0 -16 -38 -122q-19 -53 -19 -88q-1 -12 -1 -16q0 -38 24 -77q26 -36 52 -71zM388 -35q0 -83 -64 -169q-56 -75 -87 -75q-8 0 -19.5 8.5t-11.5 14.5
q0 31 34.5 95t34.5 94q0 6 -24.5 28.5t-24.5 35.5q0 15 34 52t49 37q33 0 56 -35t23 -86z" />
    <glyph glyph-name="florin" unicode="&#x192;" horiz-adv-x="326" 
d="M97 323q-16 0 -36 25q-13 17 -13 32q0 41 71 93t123 52q43 0 75.5 -21t32.5 -57q0 -80 -40 -132q-18 -23 -70 -72l-66 -60q-29 -29 -29 -50q0 -12 15 -12q42 0 95.5 30t108.5 62q14 0 22 -10t8 -24q0 -46 -93.5 -115.5t-158.5 -69.5q-55 0 -96 31q-45 34 -45 84
q0 44 74 110q20 18 70 57q59 47 73 66q10 13 10 38q0 7 -12 7q-26 0 -60 -32t-59 -32zM515 771q0 -36 -16 -69q-22 -45 -61 -45q-35 0 -102 -26.5t-135 -53.5q-10 0 -26 18t-16 27q0 46 119.5 110.5t176.5 64.5q60 0 60 -26z" />
    <glyph glyph-name="circumflex" unicode="&#x2c6;" horiz-adv-x="543" 
d="M604 730q0 -28 -22 -50t-53 -22t-62 32q-10 10 -48 63q-14 -13 -61 -66q-65 -74 -94 -74q-19 0 -32.5 18.5t-13.5 35.5q0 15 58 81q52 60 115 120t76 60q24 0 50 -39q25 -45 31 -56q16 -21 33 -42q23 -29 23 -61z" />
    <glyph glyph-name="tilde" unicode="&#x2dc;" horiz-adv-x="510" 
d="M639 831q0 -49 -51 -88q-47 -36 -99 -36q-48 0 -88 18q-26 12 -54 34q-12 -14 -23 -27q-19 -19 -58 -19q-21 0 -37.5 13t-16.5 33q0 27 55 91q61 71 110 71q10 0 58.5 -34.5t116.5 -34.5q14 0 28 7t21 7q16 0 27 -8.5t11 -26.5z" />
    <glyph glyph-name="endash" unicode="&#x2013;" horiz-adv-x="764" 
d="M682 288q0 -31 -25.5 -55.5t-59.5 -24.5q-6 2 -10 4q-34 15 -87 24l-347 -44q-28 0 -46.5 10.5t-18.5 31.5q0 42 113 77q87 27 215 43.5t181 16.5q54 0 69.5 -16.5t15.5 -66.5z" />
    <glyph glyph-name="emdash" unicode="&#x2014;" horiz-adv-x="928" 
d="M888 277q0 -30 -28.5 -53.5t-59.5 -23.5q-21 0 -72 17q-27 9 -42 9q-90 0 -216 -8q-67 -4 -218 -17q-50 -5 -99 -9q-28 0 -46.5 10.5t-18.5 31.5q0 43 161 75q116 23 317 39q152 12 217 12q53 0 79 -22t26 -61z" />
    <glyph glyph-name="quoteleft" unicode="&#x2018;" horiz-adv-x="346" 
d="M204 566q0 85 63 170q55 75 88 75q7 0 18.5 -8.5t11.5 -15.5q0 -28 -21 -69q-48 -94 -48 -119q0 -6 24.5 -28.5t24.5 -35.5q0 -15 -34 -52t-49 -37q-33 0 -55.5 34.5t-22.5 85.5z" />
    <glyph glyph-name="quoteright" unicode="&#x2019;" horiz-adv-x="346" 
d="M365 683q0 -84 -63 -169q-56 -75 -88 -75q-7 0 -18.5 8.5t-11.5 14.5q0 31 34.5 95t34.5 94q0 6 -24.5 28.5t-24.5 35.5q0 15 34 52t49 37q32 0 55 -35.5t23 -85.5z" />
    <glyph glyph-name="quotesinglbase" unicode="&#x201a;" horiz-adv-x="346" 
d="M253 37q0 -83 -64 -169q-56 -75 -87 -75q-8 0 -19.5 8.5t-11.5 14.5q0 31 34.5 95t34.5 94q0 6 -24.5 28.5t-24.5 35.5q0 15 34 52t49 37q33 0 56 -35t23 -86z" />
    <glyph glyph-name="quotedblleft" unicode="&#x201c;" horiz-adv-x="505" 
d="M387 608q0 84 64 170q56 75 87 75q8 0 19.5 -8.5t11.5 -14.5q0 -31 -34.5 -95t-34.5 -94q0 -6 24.5 -28.5t24.5 -35.5q0 -15 -34 -52t-49 -37q-33 0 -56 35t-23 85zM191 601q0 85 63 170q55 75 88 75q7 0 18.5 -8.5t11.5 -14.5q0 -31 -34.5 -95t-34.5 -94
q0 -6 24.5 -28.5t24.5 -35.5q0 -15 -34 -52t-49 -37q-32 0 -55 35.5t-23 84.5z" />
    <glyph glyph-name="quotedblright" unicode="&#x201d;" horiz-adv-x="505" 
d="M358 718q0 -84 -63 -169q-56 -75 -88 -75q-7 0 -18.5 8.5t-11.5 14.5q0 31 34.5 95t34.5 94q0 6 -24.5 28.5t-24.5 35.5q0 15 34 52t49 37q32 0 55 -35.5t23 -85.5zM555 725q0 -83 -64 -169q-56 -75 -87 -75q-8 0 -19.5 8.5t-11.5 14.5q0 31 34.5 95t34.5 94
q0 6 -24.5 28.5t-24.5 35.5q0 15 34 52t49 37q33 0 56 -35t23 -86z" />
    <glyph glyph-name="quotedblbase" unicode="&#x201e;" horiz-adv-x="505" 
d="M253 37q0 -83 -64 -169q-56 -75 -87 -75q-8 0 -19.5 8.5t-11.5 14.5q0 31 34.5 95t34.5 94q0 6 -24.5 28.5t-24.5 35.5q0 15 34 52t49 37q33 0 56 -35t23 -86zM449 44q0 -84 -63 -169q-56 -75 -88 -75q-7 0 -18.5 8.5t-11.5 14.5q0 31 34.5 95t34.5 94q0 6 -24.5 28.5
t-24.5 35.5q0 15 34 52t49 37q32 0 55 -35.5t23 -85.5z" />
    <glyph glyph-name="dagger" unicode="&#x2020;" horiz-adv-x="371" 
d="M523 497q0 -20 -94 -52t-177 -46q-24 -48 -46 -96q-33 -72 -49 -121q-7 -18 -9.5 -38.5t-6 -49.5t-4.5 -47.5t-1 -48.5q0 -39 -19 -56t-52 -17q-27 0 -39 10q-15 13 -15 49v12q0 25 13.5 72t55.5 154q20 53 41 96q28 55 38 75q-52 7 -67.5 29t-15.5 61q0 25 14 39t38 14
q25 0 48 -7t45 -13q2 4 6.5 19t9.5 23q10 18 34 67q32 65 47 65q19 0 33 -9t11 -28q-6 -31 -12 -48.5t-25 -53.5q-2 -3 -18 -28q-10 -15 -13 -30q18 4 119 26q72 16 83 16q28 0 28 -27q-1 -7 -1 -11z" />
    <glyph glyph-name="daggerdbl" unicode="&#x2021;" horiz-adv-x="392" 
d="M538 566q0 -20 -87.5 -53.5t-171.5 -47.5l-48 -96q4 -1 7 -1h4q5 0 19.5 3.5t23.5 3.5q34 0 62.5 5t61.5 11q28 0 28 -27q-1 -7 -1 -11q0 -28 -77.5 -61.5t-175.5 -45.5q-6 -16 -12 -45.5t-8.5 -49.5t-16.5 -95q-7 -37 -7 -43q0 -39 -19 -56t-52 -17q-27 0 -39 10
q-15 13 -15 49v12q0 30 27 114.5t50 133.5q-39 7 -56 20q-28 21 -28 69q0 25 14 39t38 14q23 2 55 -7q20 -8 26 -9q7 17 14.5 35.5t19.5 41.5q-52 7 -67.5 29t-15.5 61q0 25 14 39t38 14q25 0 48 -7t45 -13l34 66q32 55 41 69q24 37 32 38q9 1 23 -8.5t11 -27.5
q-6 -31 -15 -51q-12 -22 -19.5 -36.5t-15.5 -39.5q-2 -8 -6 -22q42 0 91 10t99 21q28 0 28 -27q-1 -7 -1 -11z" />
    <glyph glyph-name="bullet" unicode="&#x2022;" horiz-adv-x="600" 
d="M309 386q36 4 63.5 -21t27.5 -61q0 -37 -22.5 -63.5t-58.5 -26.5q-38 0 -65 22.5t-27 58.5t25.5 63.5t56.5 27.5z" />
    <glyph glyph-name="ellipsis" unicode="&#x2026;" horiz-adv-x="949" 
d="M260 68q0 -20 -28.5 -41.5t-59.5 -21.5q-30 0 -67 45t-37 78q0 24 38 57t64 33q24 0 55 -46q35 -51 35 -104zM569 64q0 -19 -29.5 -41t-58.5 -22q-30 0 -67 45t-37 78q0 25 38.5 57.5t63.5 32.5q23 0 54 -46q36 -53 36 -104zM856 75q0 -20 -28.5 -41.5t-58.5 -21.5
t-67 45t-37 78q0 24 38 57t63 33q24 0 55 -46q35 -51 35 -104z" />
    <glyph glyph-name="guilsinglleft" unicode="&#x2039;" horiz-adv-x="473" 
d="M422 445q0 -28 -80 -88q-54 -39 -75 -54q60 -93 76 -122q22 -41 22 -58q0 -36 -27 -69.5t-60 -33.5q-42 0 -108 116q-62 108 -62 145q0 33 68 85q50 36 73 52q61 42 76 51q41 24 69 24q14 0 21 -13.5t7 -34.5z" />
    <glyph glyph-name="guilsinglright" unicode="&#x203a;" 
d="M390 342q0 -49 -31 -101q-3 -5 -70 -97l-60 -88q-35 -45 -68 -45q-30 0 -38 4q-14 7 -14 32q0 14 60.5 107t60.5 117q0 13 -68.5 60t-70.5 69q0 24 31.5 59.5t60.5 35.5q27 0 114 -58q93 -62 93 -95z" />
    <glyph glyph-name="trademark" unicode="&#x2122;" horiz-adv-x="784" 
d="M759 708q0 -34 -21 -114t-21 -114q0 -20 8 -24t8 -30q0 -28 -16 -49.5t-47 -21.5q-21 0 -36.5 16.5t-15.5 44.5q0 41 11 94q7 34 15 68q-51 -72 -85 -116q-56 -70 -76 -73q-26 0 -34.5 20t-8.5 49l1 109q-29 -66 -52 -111q-34 -66 -53 -84q-23 -22 -43 -28.5t-45 -6.5
q-18 0 -28 20.5t-10 47.5q0 16 20 25q26 9 36 13q26 8 54 49q23 33 43.5 82t35.5 96t22.5 68t25.5 35t35 14q34 0 45 -22q8 -16 8 -57l-8 -170q-3 -1 -5 -1v6q2 0 83 117t105 117q28 0 40 -22q9 -17 9 -47zM408 727q0 -24 -21.5 -44.5t-41.5 -20.5q-7 0 -18 12t-23 12h-38
q-20 -70 -32 -113t-23 -87q-5 -21 -5 -41v-16t1 -16q0 -14 -2 -21q-3 -22 -18.5 -36.5t-32.5 -14.5q-21 0 -38.5 17.5t-17.5 40.5q0 14 22 83q34 105 43 138l17 56q-16 -4 -53.5 -10t-52.5 -6q-17 0 -30.5 9t-13.5 27q0 43 39 51q9 2 29.5 6.5t37.5 6.5q84 13 121 19
q74 12 78 12q35 0 54 -15.5t19 -48.5z" />
    </font>
</defs>
</svg>
