<svg width="45" height="40" viewBox="0 0 45 40" fill="none" xmlns="http://www.w3.org/2000/svg">
<path d="M44.25 3.75759H6V0.751518C6 0.552203 5.92098 0.361052 5.78033 0.220115C5.63968 0.0791777 5.44891 0 5.25 0H3C2.20435 0 1.44129 0.31671 0.87868 0.880458C0.316071 1.44421 0 2.20881 0 3.00607V36.0729C0 36.8701 0.316071 37.6347 0.87868 38.1985C1.44129 38.7622 2.20435 39.0789 3 39.0789H44.25C44.4489 39.0789 44.6397 38.9998 44.7803 38.8588C44.921 38.7179 45 38.5267 45 38.3274V4.50911C45 4.30979 44.921 4.11864 44.7803 3.97771C44.6397 3.83677 44.4489 3.75759 44.25 3.75759ZM1.5 3.00607C1.5 2.60744 1.65804 2.22514 1.93934 1.94327C2.22064 1.66139 2.60218 1.50304 3 1.50304H4.5V33.0668H3C2.47317 33.066 1.95556 33.2052 1.5 33.4704V3.00607ZM43.5 37.5759H3C2.60218 37.5759 2.22064 37.4176 1.93934 37.1357C1.65804 36.8538 1.5 36.4715 1.5 36.0729C1.5 35.6742 1.65804 35.2919 1.93934 35.0101C2.22064 34.7282 2.60218 34.5698 3 34.5698H5.25C5.44891 34.5698 5.63968 34.4907 5.78033 34.3497C5.92098 34.2088 6 34.0176 6 33.8183V5.26063H43.5V37.5759Z" fill="#F33A3A"/>
<path d="M9.75 35.3214H39.75C39.9489 35.3214 40.1397 35.2422 40.2803 35.1013C40.421 34.9604 40.5 34.7692 40.5 34.5699V29.3093C40.5 29.1099 40.421 28.9188 40.2803 28.7779C40.1397 28.6369 39.9489 28.5577 39.75 28.5577H9.75C9.55109 28.5577 9.36032 28.6369 9.21967 28.7779C9.07902 28.9188 9 29.1099 9 29.3093V34.5699C9 34.7692 9.07902 34.9604 9.21967 35.1013C9.36032 35.2422 9.55109 35.3214 9.75 35.3214ZM10.5 30.0608H12V32.3153H13.5V30.0608H15V31.5638H16.5V30.0608H18V32.3153H19.5V30.0608H21V31.5638H22.5V30.0608H24V32.3153H25.5V30.0608H27V31.5638H28.5V30.0608H30V32.3153H31.5V30.0608H33V31.5638H34.5V30.0608H36V32.3153H37.5V30.0608H39V33.8184H10.5V30.0608Z" fill="#F33A3A"/>
<path d="M9.75 26.3032H31.5C31.6989 26.3032 31.8897 26.224 32.0303 26.0831C32.171 25.9422 32.25 25.751 32.25 25.5517V18.0365C32.25 17.8372 32.171 17.646 32.0303 17.5051C31.8897 17.3642 31.6989 17.285 31.5 17.285H27.75V18.788H30.75V24.8002H20.25V23.2971H18.75V24.8002H10.5V18.788H13.5V17.285H10.5V9.0183H18.75V17.285H16.5V18.788H18.75V20.2911H20.25V18.788H24.75V17.285H20.25V8.26678C20.25 8.06746 20.171 7.87631 20.0303 7.73537C19.8897 7.59444 19.6989 7.51526 19.5 7.51526H9.75C9.55109 7.51526 9.36032 7.59444 9.21967 7.73537C9.07902 7.87631 9 8.06746 9 8.26678V25.5517C9 25.751 9.07902 25.9422 9.21967 26.0831C9.36032 26.224 9.55109 26.3032 9.75 26.3032Z" fill="#F33A3A"/>
<path d="M29.25 7.51526H27.75V9.0183H29.25V7.51526Z" fill="#F33A3A"/>
<path d="M41.25 7.51526H30.75V9.0183H41.25V7.51526Z" fill="#F33A3A"/>
<path d="M41.25 10.5212H26.25V12.0243H41.25V10.5212Z" fill="#F33A3A"/>
<path d="M38.25 13.5273H26.25V15.0304H38.25V13.5273Z" fill="#F33A3A"/>
<path d="M39.75 16.5334H35.25C35.0511 16.5334 34.8603 16.6126 34.7197 16.7536C34.579 16.8945 34.5 17.0857 34.5 17.285V25.5517C34.5 25.751 34.579 25.9421 34.7197 26.0831C34.8603 26.224 35.0511 26.3032 35.25 26.3032H39.75C39.9489 26.3032 40.1397 26.224 40.2803 26.0831C40.421 25.9421 40.5 25.751 40.5 25.5517V17.285C40.5 17.0857 40.421 16.8945 40.2803 16.7536C40.1397 16.6126 39.9489 16.5334 39.75 16.5334ZM39 24.8001H36V18.0365H39V24.8001Z" fill="#F33A3A"/>
</svg>
