<svg width="39" height="44" viewBox="0 0 39 44" fill="none" xmlns="http://www.w3.org/2000/svg">
<path d="M9.02656 44L35.1852 44C37.2911 43.9977 38.9976 42.3067 39 40.22L39 14.3C38.9982 12.8096 37.7793 11.6018 36.2751 11.6L33.0053 11.6C31.5011 11.6018 30.2822 12.8096 30.2804 14.3L30.2804 33.74C30.2794 34.6343 29.548 35.3591 28.6455 35.36L9.02649 35.36C7.52231 35.3618 6.3034 36.5696 6.30161 38.06L6.30161 41.3C6.30346 42.7904 7.52237 43.9982 9.02656 44ZM7.39164 38.06C7.3926 37.1657 8.12403 36.4409 9.02656 36.44L28.6456 36.44C30.1497 36.4382 31.3686 35.2304 31.3704 33.74L31.3704 14.3C31.3714 13.4057 32.1028 12.6809 33.0054 12.68L36.2752 12.68C37.1777 12.6809 37.9091 13.4057 37.9101 14.3L37.9101 40.22C37.9083 41.7104 36.6894 42.9182 35.1852 42.92L9.02656 42.92C8.12403 42.919 7.3926 42.1943 7.39164 41.3L7.39164 38.06Z" fill="#F33A3A"/>
<path d="M10.6619 41.8401C11.8658 41.8401 12.8418 40.873 12.8418 39.6801C12.8418 38.4872 11.8658 37.5201 10.6619 37.5201C9.45803 37.5201 8.48207 38.4872 8.48206 39.6801C8.48328 40.8725 9.45854 41.8388 10.6619 41.8401ZM10.6619 38.6001C11.2639 38.6001 11.7519 39.0836 11.7519 39.6801C11.7519 40.2766 11.2638 40.7601 10.6619 40.7601C10.06 40.7601 9.57197 40.2765 9.57197 39.68C9.57267 39.0839 10.0602 38.6007 10.6619 38.6001Z" fill="#F33A3A"/>
<path d="M34.6404 41.8401C35.8443 41.8401 36.8203 40.873 36.8203 39.6801C36.8203 38.4872 35.8444 37.5201 34.6404 37.5201C33.4365 37.5201 32.4606 38.4871 32.4606 39.68C32.462 40.8725 33.4371 41.8387 34.6404 41.8401ZM34.6404 38.6001C35.2424 38.6001 35.7304 39.0836 35.7304 39.6801C35.7304 40.2766 35.2424 40.7601 34.6404 40.7601C34.0385 40.7601 33.5505 40.2765 33.5505 39.68C33.5511 39.0839 34.0388 38.6007 34.6404 38.6001Z" fill="#F33A3A"/>
<path d="M34.6404 29.96C35.8443 29.96 36.8203 28.9929 36.8203 27.8C36.8203 26.6071 35.8443 25.64 34.6404 25.64C33.4365 25.64 32.4606 26.6071 32.4606 27.8C32.462 28.9923 33.4371 29.9586 34.6404 29.96ZM34.6404 26.72C35.2424 26.72 35.7304 27.2035 35.7304 27.8C35.7304 28.3965 35.2424 28.88 34.6404 28.88C34.0385 28.88 33.5505 28.3965 33.5505 27.8C33.5511 27.2037 34.0388 26.7206 34.6404 26.72Z" fill="#F33A3A"/>
<path d="M34.6404 18.08C35.8443 18.08 36.8203 17.1129 36.8203 15.92C36.8203 14.7271 35.8443 13.76 34.6404 13.76C33.4365 13.76 32.4606 14.7271 32.4606 15.92C32.462 17.1123 33.4371 18.0786 34.6404 18.08ZM34.6404 14.84C35.2424 14.84 35.7304 15.3235 35.7304 15.92C35.7304 16.5165 35.2424 17 34.6404 17C34.0385 17 33.5505 16.5165 33.5505 15.92C33.5511 15.3237 34.0388 14.8405 34.6404 14.84Z" fill="#F33A3A"/>
<path d="M22.6512 41.8401C23.8551 41.8401 24.8311 40.873 24.8311 39.6801C24.8311 38.4872 23.8551 37.5201 22.6512 37.5201C21.4473 37.5201 20.4713 38.4871 20.4713 39.68C20.4727 40.8725 21.4479 41.8387 22.6512 41.8401ZM22.6512 38.6001C23.2532 38.6001 23.7412 39.0836 23.7412 39.6801C23.7412 40.2766 23.2532 40.7601 22.6512 40.7601C22.0492 40.7601 21.5612 40.2765 21.5612 39.68C21.5619 39.0839 22.0495 38.6007 22.6512 38.6001Z" fill="#F33A3A"/>
<path d="M29.9734 0L3.81478 0C1.70893 0.0023414 0.00236297 1.69334 4.19251e-09 3.77998L3.29413e-08 29.7C0.00178822 31.1904 1.22069 32.3982 2.72488 32.4H5.99471C7.4989 32.3982 8.71781 31.1904 8.7196 29.7L8.7196 10.26C8.72055 9.36568 9.45199 8.64092 10.3545 8.63997L29.9735 8.63997C31.4777 8.6382 32.6966 7.43042 32.6984 5.93995L32.6984 2.69996C32.6965 1.20956 31.4776 0.00177187 29.9734 0ZM31.6084 5.94002C31.6074 6.83431 30.876 7.55907 29.9734 7.56002L10.3544 7.56002C8.85026 7.56179 7.63136 8.76957 7.62957 10.26L7.62957 29.7C7.62861 30.5943 6.89718 31.3191 5.99465 31.32H2.72482C1.82229 31.3191 1.09086 30.5943 1.0899 29.7L1.0899 3.78004C1.09169 2.28958 2.3106 1.08179 3.81478 1.08002L29.9734 1.08002C30.876 1.08097 31.6074 1.80573 31.6084 2.70002L31.6084 5.94002Z" fill="#F33A3A"/>
<path d="M28.3381 2.16003C27.1342 2.16003 26.1582 3.1271 26.1582 4.32001C26.1582 5.51292 27.1342 6.47999 28.3381 6.47999C29.542 6.47999 30.5179 5.51292 30.5179 4.32001C30.5167 3.12767 29.5415 2.1613 28.3381 2.16003ZM28.3381 5.40003C27.7361 5.40003 27.2481 4.9165 27.2481 4.32001C27.2481 3.72352 27.7362 3.24005 28.3381 3.24005C28.94 3.24005 29.428 3.72358 29.428 4.32007C29.4273 4.91624 28.9398 5.3994 28.3381 5.40003Z" fill="#F33A3A"/>
<path d="M4.36004 2.16003C3.15614 2.16003 2.18018 3.1271 2.18018 4.32001C2.18018 5.51293 3.15608 6.48005 4.36004 6.48005C5.56401 6.48005 6.53991 5.51299 6.53991 4.32008C6.53851 3.12767 5.56337 2.16143 4.36004 2.16003ZM4.36004 5.40003C3.75806 5.40003 3.27008 4.9165 3.27008 4.32001C3.27008 3.72352 3.75806 3.24006 4.36004 3.24006C4.96202 3.24006 5.45001 3.72359 5.45001 4.32008C5.44937 4.91625 4.96171 5.39946 4.36004 5.40003Z" fill="#F33A3A"/>
<path d="M4.36004 14.04C3.15614 14.04 2.18018 15.0071 2.18018 16.2C2.18018 17.3929 3.15614 18.36 4.36004 18.36C5.56394 18.36 6.53991 17.3929 6.53991 16.2C6.53851 15.0077 5.56337 14.0414 4.36004 14.04ZM4.36004 17.28C3.75806 17.28 3.27008 16.7965 3.27008 16.2C3.27008 15.6035 3.75806 15.12 4.36004 15.12C4.96202 15.12 5.44995 15.6035 5.44995 16.2C5.44937 16.7963 4.96171 17.2794 4.36004 17.28Z" fill="#F33A3A"/>
<path d="M4.36004 25.92C3.15614 25.92 2.18018 26.8871 2.18018 28.08C2.18018 29.2729 3.15614 30.24 4.36004 30.24C5.56394 30.24 6.53991 29.2729 6.53991 28.08C6.53851 26.8877 5.56337 25.9214 4.36004 25.92ZM4.36004 29.16C3.75806 29.16 3.27008 28.6765 3.27008 28.08C3.27008 27.4835 3.75806 27 4.36004 27C4.96202 27 5.45001 27.4835 5.45001 28.08C5.44937 28.6763 4.96171 29.1595 4.36004 29.16Z" fill="#F33A3A"/>
<path d="M16.3488 2.16003C15.1449 2.16003 14.1689 3.1271 14.1689 4.32001C14.1689 5.51293 15.1449 6.48005 16.3488 6.48005C17.5527 6.48005 18.5287 5.51299 18.5287 4.32008C18.5273 3.12767 17.5521 2.16143 16.3488 2.16003ZM16.3488 5.40003C15.7468 5.40003 15.2588 4.9165 15.2588 4.32001C15.2588 3.72352 15.7468 3.24006 16.3488 3.24006C16.9508 3.24006 17.4388 3.72359 17.4388 4.32008C17.4381 4.91625 16.9505 5.39946 16.3488 5.40003Z" fill="#F33A3A"/>
</svg>
